<svg width="100%"
     height="100%"
     viewBox="0 0 41 41"
     fill="none">
  <rect y="41"
        width="41"
        height="41"
        rx="10"
        transform="rotate(-90 0 41)"
        fill="#EEEEEE" />
  <path fill-rule="evenodd"
        clip-rule="evenodd"
        d="M12.9301 16.6565C12.5012 17.0044 12.4355 17.6341 12.7834 18.063C13.1313 18.492 13.7611 18.5577 14.19 18.2098L19.4999 13.9029L19.4999 29.1958C19.4999 29.7481 19.9476 30.1958 20.4999 30.1958C21.0522 30.1958 21.4999 29.7481 21.4999 29.1958L21.4999 13.9029L26.8098 18.2098C27.2388 18.5577 27.8685 18.492 28.2164 18.063C28.5643 17.6341 28.4986 17.0044 28.0697 16.6565L21.1298 11.0276L20.4999 10.5166L19.87 11.0276L12.9301 16.6565ZM13.7812 29.1978C13.7812 29.75 14.229 30.1978 14.7812 30.1978C15.3335 30.1978 15.7812 29.75 15.7812 29.1978L15.7812 22.2918C15.7812 21.7395 15.3335 21.2918 14.7812 21.2918C14.229 21.2918 13.7812 21.7395 13.7812 22.2918L13.7812 29.1978ZM24.9053 29.1978C24.9053 29.75 25.353 30.1978 25.9053 30.1978C26.4576 30.1978 26.9053 29.75 26.9053 29.1978L26.9053 22.2918C26.9053 21.7395 26.4576 21.2918 25.9053 21.2918C25.353 21.2918 24.9053 21.7395 24.9053 22.2918L24.9053 29.1978Z"
        fill="#1B8FFB" />
</svg>