<svg width="100%"
     height="100%"
     viewBox="0 0 41 41"
     fill="none">
  <rect y="41"
        width="41"
        height="41"
        rx="10"
        transform="rotate(-90 0 41)"
        fill="#EEEEEE" />
  <path d="M14.6059 18.4403C13.798 17.921 13.798 17.079 14.6059 16.5597L19.5373 13.3895C20.3451 12.8702 21.6549 12.8702 22.4627 13.3895L27.3941 16.5597C28.202 17.079 28.202 17.921 27.3941 18.4403L22.4627 21.6105C21.6549 22.1298 20.3451 22.1298 19.5373 21.6105L14.6059 18.4403Z"
        stroke="#1B8FFB"
        stroke-width="2" />
  <path d="M14 22L18.2019 24.6607C19.7941 25.6688 21.8177 25.6962 23.4365 24.7315L28.0198 22"
        stroke="#1B8FFB"
        stroke-width="2"
        stroke-linecap="round" />
  <path d="M14 25.8311L18.2019 28.4918C19.7941 29.4999 21.8177 29.5272 23.4365 28.5625L28.0198 25.8311"
        stroke="#1B8FFB"
        stroke-width="2"
        stroke-linecap="round" />
</svg>