<svg width="100%"
     height="100%"
     viewBox="0 0 41 41"
     fill="none">
  <rect y="41"
        width="41"
        height="41"
        rx="10"
        transform="rotate(-90 0 41)"
        fill="#EEEEEE" />
  <path fill-rule="evenodd"
        clip-rule="evenodd"
        d="M12.457 14.6812C12.457 14.1289 12.9047 13.6812 13.457 13.6812H17.457C18.0093 13.6812 18.457 14.1289 18.457 14.6812C18.457 15.2334 18.0093 15.6812 17.457 15.6812H13.457C12.9047 15.6812 12.457 15.2334 12.457 14.6812ZM10 22C9.44772 22 9 22.4478 9 23C9 23.5523 9.44772 24 10 24H18C18.5523 24 19 23.5523 19 23C19 22.4478 18.5523 22 18 22H10ZM22 22C21.4477 22 21 22.4478 21 23C21 23.5523 21.4477 24 22 24H30C30.5523 24 31 23.5523 31 23C31 22.4478 30.5523 22 30 22H22ZM22.543 13.6812C21.9907 13.6812 21.543 14.1289 21.543 14.6812C21.543 15.2334 21.9907 15.6812 22.543 15.6812H26.543C27.0953 15.6812 27.543 15.2334 27.543 14.6812C27.543 14.1289 27.0953 13.6812 26.543 13.6812H22.543ZM9 27C9 26.4477 9.44772 26 10 26H18C18.5523 26 19 26.4477 19 27C19 27.5523 18.5523 28 18 28H10C9.44772 28 9 27.5523 9 27ZM22 26C21.4477 26 21 26.4477 21 27C21 27.5523 21.4477 28 22 28H30C30.5523 28 31 27.5523 31 27C31 26.4477 30.5523 26 30 26H22ZM9 31C9 30.4477 9.44772 30 10 30H18C18.5523 30 19 30.4477 19 31C19 31.5523 18.5523 32 18 32H10C9.44772 32 9 31.5523 9 31ZM22 30C21.4477 30 21 30.4477 21 31C21 31.5523 21.4477 32 22 32H30C30.5523 32 31 31.5523 31 31C31 30.4477 30.5523 30 30 30H22Z"
        fill="#1B8FFB" />
  <rect x="10"
        y="10.3623"
        width="20"
        height="8.63777"
        rx="2"
        stroke="#1B8FFB"
        stroke-width="2"
        stroke-linejoin="round" />
</svg>