<svg width="100%"
     height="100%"
     viewBox="0 0 41 41"
     fill="none">
  <rect y="41"
        width="41"
        height="41"
        rx="10"
        transform="rotate(-90 0 41)"
        fill="#EEEEEE" />
  <path d="M22.1977 10.2468H11.8396C10.735 10.2468 9.8396 11.1422 9.8396 12.2468V29.5683C9.8396 30.6729 10.735 31.5683 11.8396 31.5683L29.1611 31.5684C30.2657 31.5684 31.1611 30.6729 31.1611 29.5684V19.5971"
        stroke="#1B8FFB"
        stroke-width="2"
        stroke-linecap="round"
        stroke-linejoin="round" />
  <path d="M18.3589 23.2629L31.1607 10.1182"
        stroke="#1B8FFB"
        stroke-width="2"
        stroke-linecap="round"
        stroke-linejoin="round" />
  <path d="M12.1634 28.6285C12.191 29.1801 12.6606 29.6049 13.2121 29.5773C13.7637 29.5497 14.1885 29.0802 14.1609 28.5286L12.1634 28.6285ZM16.6772 25.9045C17.2276 25.95 17.7107 25.5407 17.7562 24.9903C17.8017 24.4399 17.3924 23.9568 16.842 23.9113L16.6772 25.9045ZM13.1622 28.5785C14.1609 28.5286 14.1609 28.5289 14.1609 28.5292C14.1609 28.5293 14.161 28.5296 14.161 28.5297C14.161 28.5301 14.161 28.5305 14.161 28.5308C14.1611 28.5314 14.1611 28.532 14.1611 28.5325C14.1611 28.5334 14.1612 28.534 14.1612 28.5342C14.1612 28.5347 14.1612 28.5338 14.1611 28.5316C14.161 28.5271 14.1607 28.5174 14.1606 28.5028C14.1604 28.4736 14.1608 28.4256 14.1637 28.3623C14.1695 28.2349 14.1852 28.0514 14.2245 27.8394C14.3055 27.4035 14.474 26.9157 14.7965 26.5313L13.2641 25.2461C12.6403 25.9899 12.3747 26.8471 12.2582 27.474C12.1988 27.7935 12.1749 28.0708 12.1658 28.2715C12.1612 28.3723 12.1603 28.4551 12.1607 28.5157C12.1609 28.546 12.1614 28.5709 12.1619 28.5899C12.1622 28.5993 12.1625 28.6073 12.1628 28.6138C12.1629 28.617 12.163 28.6199 12.1631 28.6223C12.1632 28.6236 12.1632 28.6247 12.1633 28.6257C12.1633 28.6262 12.1633 28.6267 12.1633 28.6272C12.1634 28.6274 12.1634 28.6278 12.1634 28.6279C12.1634 28.6282 12.1634 28.6285 13.1622 28.5785ZM14.7965 26.5313C15.0568 26.2209 15.4751 26.0429 15.9314 25.9586C16.1485 25.9185 16.3455 25.9052 16.4871 25.9023C16.5571 25.9008 16.6114 25.9019 16.6451 25.9031C16.6618 25.9037 16.6733 25.9044 16.6789 25.9047C16.6817 25.9049 16.683 25.905 16.6828 25.9049C16.6827 25.9049 16.6821 25.9049 16.6812 25.9048C16.6807 25.9048 16.6802 25.9047 16.6795 25.9047C16.6792 25.9047 16.6788 25.9046 16.6784 25.9046C16.6782 25.9046 16.6779 25.9046 16.6778 25.9046C16.6775 25.9045 16.6772 25.9045 16.7596 24.9079C16.842 23.9113 16.8416 23.9113 16.8413 23.9112C16.8412 23.9112 16.8408 23.9112 16.8406 23.9112C16.8401 23.9111 16.8396 23.9111 16.839 23.9111C16.8379 23.911 16.8367 23.9109 16.8354 23.9108C16.8327 23.9106 16.8296 23.9103 16.8261 23.9101C16.819 23.9096 16.8102 23.909 16.7997 23.9083C16.7788 23.9071 16.751 23.9056 16.7172 23.9044C16.6497 23.902 16.5572 23.9004 16.4453 23.9027C16.223 23.9074 15.9151 23.9278 15.5682 23.9919C14.8964 24.1159 13.95 24.4283 13.2641 25.2461L14.7965 26.5313Z"
        fill="#1B8FFB" />
  <path d="M17.8633 24.9737C17.8523 24.4215 17.3958 23.9828 16.8436 23.9938C16.2914 24.0049 15.8527 24.4614 15.8637 25.0136L17.8633 24.9737ZM13.2697 27.5609C12.721 27.4988 12.2258 27.8935 12.1638 28.4422C12.1018 28.991 12.4964 29.4862 13.0452 29.5482L13.2697 27.5609ZM16.8635 24.9936C15.8637 25.0136 15.8637 25.0133 15.8637 25.013C15.8637 25.0129 15.8637 25.0126 15.8637 25.0124C15.8637 25.012 15.8637 25.0117 15.8637 25.0114C15.8637 25.0107 15.8637 25.0101 15.8637 25.0097C15.8637 25.0087 15.8636 25.0081 15.8636 25.0079C15.8636 25.0074 15.8637 25.0083 15.8637 25.0105C15.8636 25.015 15.8636 25.0248 15.8632 25.0393C15.8626 25.0685 15.8607 25.1165 15.856 25.1797C15.8463 25.3068 15.8252 25.4898 15.7794 25.7005C15.6854 26.1338 15.5023 26.6163 15.1685 26.9908L16.6615 28.3215C17.3074 27.5968 17.5986 26.748 17.7339 26.1248C17.8028 25.8073 17.8351 25.5308 17.8503 25.3305C17.8579 25.2299 17.8613 25.1472 17.8627 25.0866C17.8634 25.0562 17.8636 25.0313 17.8637 25.0124C17.8637 25.0029 17.8636 24.9949 17.8636 24.9884C17.8635 24.9852 17.8635 24.9823 17.8634 24.9799C17.8634 24.9786 17.8634 24.9775 17.8634 24.9765C17.8634 24.976 17.8634 24.9755 17.8634 24.975C17.8634 24.9748 17.8634 24.9744 17.8634 24.9743C17.8633 24.974 17.8633 24.9737 16.8635 24.9936ZM15.1685 26.9908C14.8989 27.2933 14.4755 27.4587 14.0168 27.5292C13.7986 27.5627 13.6013 27.5701 13.4597 27.5688C13.3897 27.5682 13.3355 27.5654 13.3018 27.5632C13.2851 27.5621 13.2736 27.5611 13.268 27.5606C13.2652 27.5604 13.2639 27.5602 13.2642 27.5602C13.2643 27.5603 13.2648 27.5603 13.2658 27.5604C13.2662 27.5605 13.2668 27.5605 13.2674 27.5606C13.2678 27.5606 13.2681 27.5607 13.2685 27.5607C13.2687 27.5607 13.269 27.5608 13.2691 27.5608C13.2694 27.5608 13.2697 27.5609 13.1575 28.5545C13.0452 29.5482 13.0455 29.5482 13.0458 29.5483C13.046 29.5483 13.0463 29.5483 13.0466 29.5484C13.047 29.5484 13.0476 29.5485 13.0481 29.5485C13.0492 29.5487 13.0504 29.5488 13.0517 29.5489C13.0544 29.5492 13.0575 29.5495 13.061 29.5499C13.068 29.5506 13.0768 29.5515 13.0873 29.5524C13.1082 29.5543 13.1359 29.5566 13.1697 29.5588C13.2371 29.5633 13.3295 29.5677 13.4414 29.5687C13.6637 29.5707 13.9721 29.5596 14.3208 29.506C14.996 29.4021 15.9513 29.1183 16.6615 28.3215L15.1685 26.9908Z"
        fill="#1B8FFB" />
</svg>