<svg width="44" height="44" viewBox="0 0 44 44" fill="none" xmlns="http://www.w3.org/2000/svg">
<rect width="44" height="44" rx="15" fill="#F3F9FF"/>
<path d="M21.5483 12.7948C21.8463 11.8707 23.1537 11.8707 23.4517 12.7948L25.1028 17.9145C25.2363 18.3283 25.6219 18.6085 26.0568 18.6075L31.4361 18.5958C32.407 18.5937 32.8111 19.8371 32.0243 20.4061L27.6654 23.5585C27.3131 23.8133 27.1658 24.2666 27.3011 24.6798L28.9745 29.7923C29.2766 30.715 28.2189 31.4835 27.4346 30.9111L23.0896 27.7397C22.7383 27.4833 22.2617 27.4833 21.9104 27.7397L17.5654 30.9111C16.7811 31.4835 15.7234 30.715 16.0255 29.7923L17.6989 24.6798C17.8342 24.2666 17.6869 23.8133 17.3346 23.5585L12.9757 20.4061C12.1889 19.8371 12.593 18.5937 13.5639 18.5958L18.9432 18.6075C19.3781 18.6085 19.7637 18.3283 19.8972 17.9145L21.5483 12.7948Z" fill="#1B8FFB"/>
</svg>
