<svg width="100%"
     height="100%"
     viewBox="0 0 41 41"
     fill="none">
      <rect y="41"
            width="41"
            height="41"
            rx="10"
            transform="rotate(-90 0 41)"
            fill="#EEEEEE" />
      <path d="M21.6885 21.8727H20.6885C20.6885 22.425 21.1362 22.8727 21.6885 22.8727V21.8727ZM30.3032 21.8727V22.8727C30.8555 22.8727 31.3032 22.425 31.3032 21.8727H30.3032ZM25.8598 17.248L25.8597 18.248L25.8598 17.248ZM21.6885 22.8727H30.3032V20.8727H21.6885V22.8727ZM30.3032 21.8727C31.3032 21.8727 31.3032 21.8723 31.3032 21.8717C31.3032 21.8716 31.3032 21.871 31.3032 21.8706C31.3032 21.8699 31.3032 21.869 31.3032 21.8681C31.3032 21.8663 31.3032 21.8642 31.3032 21.8618C31.3031 21.857 31.3031 21.851 31.303 21.844C31.3027 21.8299 31.3023 21.8114 31.3016 21.7888C31.3002 21.7436 31.2974 21.6817 31.2922 21.6056C31.2818 21.4536 31.2613 21.2427 31.2212 20.992C31.1417 20.4957 30.9809 19.8179 30.6492 19.1275C30.316 18.434 29.7987 17.7043 28.9987 17.1492C28.1905 16.5884 27.1541 16.2481 25.8598 16.248L25.8597 18.248C26.7872 18.2481 27.4171 18.486 27.8586 18.7924C28.3083 19.1044 28.6241 19.5309 28.8464 19.9935C29.0701 20.4592 29.187 20.9375 29.2464 21.3083C29.2757 21.4912 29.29 21.6416 29.2969 21.7425C29.3003 21.7928 29.3019 21.8303 29.3026 21.8528C29.303 21.8641 29.3031 21.8715 29.3032 21.875C29.3032 21.8767 29.3032 21.8774 29.3032 21.877C29.3032 21.8768 29.3032 21.8764 29.3032 21.8757C29.3032 21.8753 29.3032 21.8749 29.3032 21.8744C29.3032 21.8742 29.3032 21.8738 29.3032 21.8736C29.3032 21.8732 29.3032 21.8727 30.3032 21.8727ZM25.8598 16.248C24.6194 16.248 23.6253 16.5962 22.8539 17.1663C22.094 17.728 21.6086 18.4612 21.2983 19.1492C20.9886 19.8358 20.8388 20.5091 20.7648 21.0014C20.7274 21.2501 20.7084 21.4593 20.6987 21.6097C20.6938 21.6851 20.6913 21.7462 20.6899 21.7908C20.6893 21.813 20.6889 21.8312 20.6887 21.8449C20.6886 21.8518 20.6886 21.8576 20.6885 21.8622C20.6885 21.8646 20.6885 21.8666 20.6885 21.8683C20.6885 21.8692 20.6885 21.87 20.6885 21.8708C20.6885 21.8711 20.6885 21.8716 20.6885 21.8718C20.6885 21.8723 20.6885 21.8727 21.6885 21.8727C22.6885 21.8727 22.6885 21.8732 22.6885 21.8736C22.6885 21.8737 22.6885 21.8741 22.6885 21.8743C22.6885 21.8747 22.6885 21.8751 22.6885 21.8754C22.6885 21.8761 22.6885 21.8764 22.6885 21.8765C22.6885 21.8767 22.6885 21.8759 22.6885 21.874C22.6886 21.8703 22.6887 21.8625 22.689 21.8509C22.6897 21.8276 22.6913 21.7894 22.6946 21.7383C22.7012 21.6358 22.7147 21.4836 22.7425 21.2987C22.7989 20.9239 22.9097 20.4409 23.1215 19.9714C23.3326 19.5032 23.6293 19.0802 24.0426 18.7747C24.4444 18.4778 25.0145 18.248 25.8597 18.248L25.8598 16.248Z"
            fill="#1B8FFB" />
      <path d="M10.6968 29.9128H9.69678C9.69678 30.4651 10.1445 30.9128 10.6968 30.9128V29.9128ZM22.8843 29.9128V30.9128C23.4366 30.9128 23.8843 30.4651 23.8843 29.9128H22.8843ZM16.598 23.3701L16.598 24.3701L16.598 23.3701ZM10.6968 30.9128H22.8843V28.9128H10.6968V30.9128ZM22.8843 29.9128C23.8843 29.9128 23.8843 29.9123 23.8843 29.9118C23.8843 29.9116 23.8843 29.911 23.8843 29.9106C23.8843 29.9098 23.8843 29.9089 23.8843 29.9078C23.8843 29.9058 23.8843 29.9033 23.8842 29.9004C23.8842 29.8947 23.8841 29.8874 23.884 29.8785C23.8837 29.8608 23.8832 29.837 23.8822 29.8073C23.8803 29.7481 23.8767 29.6656 23.8697 29.5632C23.8556 29.3588 23.828 29.0729 23.7735 28.7324C23.6652 28.0563 23.4468 27.1388 22.9999 26.2086C22.5515 25.2754 21.8615 24.3059 20.8024 23.571C19.735 22.8304 18.353 22.3702 16.5981 22.3701L16.598 24.3701C17.9861 24.3702 18.9616 24.728 19.6622 25.2142C20.3711 25.7061 20.8597 26.3722 21.1971 27.0747C21.536 27.7801 21.7105 28.4981 21.7986 29.0487C21.8423 29.3215 21.8638 29.5468 21.8744 29.7002C21.8796 29.7767 21.8821 29.8348 21.8833 29.8713C21.8838 29.8896 21.8841 29.9025 21.8842 29.9095C21.8843 29.9131 21.8843 29.9151 21.8843 29.9157C21.8843 29.916 21.8843 29.9159 21.8843 29.9154C21.8843 29.9152 21.8843 29.9148 21.8843 29.9144C21.8843 29.9142 21.8843 29.9138 21.8843 29.9137C21.8843 29.9132 21.8843 29.9128 22.8843 29.9128ZM16.5981 22.3701C14.9252 22.37 13.6067 22.8381 12.592 23.5881C11.5889 24.3295 10.9412 25.3024 10.5228 26.2302C10.1051 27.1566 9.90113 28.0697 9.80009 28.7418C9.7492 29.0804 9.72344 29.3645 9.71037 29.5674C9.70383 29.669 9.70043 29.7507 9.69867 29.8093C9.69779 29.8386 9.69732 29.8621 9.69706 29.8795C9.69694 29.8882 9.69687 29.8953 9.69683 29.9009C9.69681 29.9037 9.69679 29.9061 9.69679 29.9081C9.69678 29.909 9.69678 29.9099 9.69678 29.9107C9.69678 29.9111 9.69678 29.9116 9.69678 29.9118C9.69678 29.9123 9.69678 29.9128 10.6968 29.9128C11.6968 29.9128 11.6968 29.9132 11.6968 29.9136C11.6968 29.9137 11.6968 29.9141 11.6968 29.9143C11.6968 29.9147 11.6968 29.915 11.6968 29.9152C11.6968 29.9156 11.6968 29.9156 11.6968 29.9152C11.6968 29.9145 11.6968 29.9123 11.6969 29.9086C11.697 29.9012 11.6972 29.888 11.6978 29.8694C11.6989 29.8321 11.7013 29.7732 11.7062 29.6959C11.7162 29.541 11.7366 29.3139 11.7779 29.0391C11.8613 28.4844 12.0262 27.7617 12.346 27.0524C12.6653 26.3445 13.1242 25.6817 13.7807 25.1964C14.4258 24.7197 15.3202 24.37 16.598 24.3701L16.5981 22.3701Z"
            fill="#1B8FFB" />
      <circle cx="25.9959"
              cy="12.8704"
              r="1.78352"
              stroke="#1B8FFB"
              stroke-width="2" />
      <circle cx="16.7908"
              cy="17.9768"
              r="2.5232"
              stroke="#1B8FFB"
              stroke-width="2" />
</svg>