<svg width="auto"
     height="auto"
     viewBox="0 0 1440 212"
     fill="#1B8FFB"
     xmlns="http://www.w3.org/2000/svg">
      <path
            d="M119.736 58.0889L113.68 80.5841L51.7611 61.2924L44.427 88.5317L101.28 106.246L95.46 127.862L38.6073 110.148L30.3266 140.902L93.3878 160.552L87.1895 183.574L-1.19385 156.036L32.4969 30.9067L119.736 58.0889Z" />
      <path
            d="M223.655 69.4051L222.151 93.6859L185.834 91.0797L179.28 196.781L152.636 194.87L159.19 89.1684L122.872 86.5639L124.376 62.2832L223.655 69.4051Z" />
      <path
            d="M328.462 90.5888L303.513 94.1933C300.902 81.5252 292.516 76.214 278.357 78.2596C272.288 79.1356 267.703 81.1208 264.599 84.2153C261.496 87.3097 260.232 91.1543 260.805 95.749C261.001 97.3197 261.4 98.6773 262 99.8218C262.6 100.966 263.583 101.961 264.948 102.81C266.312 103.66 267.654 104.328 268.972 104.814C270.292 105.301 272.209 105.762 274.722 106.199C277.238 106.635 279.516 107.014 281.558 107.335C283.6 107.654 286.478 108.038 290.195 108.486C293.912 108.934 297.173 109.385 299.975 109.842C312.228 111.765 321.589 115.027 328.054 119.632C334.521 124.235 338.389 131.614 339.656 141.77C340.578 149.143 339.976 155.784 337.853 161.691C335.732 167.598 332.481 172.498 328.105 176.391C323.729 180.284 318.797 183.397 313.31 185.728C307.825 188.059 301.879 189.687 295.472 190.611C279.176 192.966 265.948 190.786 255.786 184.07C245.622 177.352 239.571 166.69 237.634 152.078L263.763 148.303C266.234 164.438 276.291 171.231 293.936 168.682C300.792 167.692 306.021 165.366 309.625 161.707C313.23 158.047 314.701 153.558 314.037 148.24C313.477 143.767 311.244 140.766 307.335 139.239C303.427 137.712 295.401 135.978 283.262 134.04C282.572 134.017 282.051 133.97 281.698 133.898C281.347 133.825 280.878 133.738 280.294 133.639C279.709 133.539 279.185 133.46 278.72 133.404C274.523 132.78 271.604 132.308 269.963 131.993C268.321 131.676 265.705 131.1 262.111 130.266C258.518 129.43 255.866 128.583 254.157 127.722C252.448 126.861 250.32 125.631 247.774 124.029C245.23 122.428 243.319 120.642 242.044 118.674C240.768 116.704 239.517 114.238 238.288 111.277C237.061 108.316 236.221 105.022 235.768 101.396C234.304 89.6691 237.348 79.6911 244.902 71.4616C252.455 63.2338 263.2 58.1122 277.134 56.0984C290.62 54.1501 302.059 55.9742 311.454 61.5707C320.847 67.1673 326.516 76.84 328.462 90.5888Z" />
      <path
            d="M504.263 90.7484L509.234 160.986L492.444 162.36L488.854 147.793C480.653 160.452 468.976 167.401 453.826 168.643C436.979 170.023 422.855 164.879 411.454 153.213C400.053 141.547 393.647 125.741 392.236 105.793C390.816 85.7258 395.195 68.8825 405.376 55.2662C415.557 41.6483 429.354 34.127 446.766 32.7023C460.559 31.5729 472.499 34.7848 482.587 42.338C492.673 49.8913 498.989 60.4147 501.536 73.9068L475.927 76.0044C474.203 69.2953 470.888 64.2442 465.986 60.8544C461.083 57.4629 455.128 56.055 448.117 56.6289C438.054 57.4528 430.418 62.0223 425.206 70.3408C419.995 78.6575 417.881 89.7483 418.861 103.613C419.86 117.722 423.548 128.459 429.926 135.828C436.303 143.196 444.75 146.448 455.265 145.588C463.519 144.913 470.111 141.651 475.041 135.804C479.974 129.956 482.298 122.639 482.017 113.854L455.052 116.063L453.554 94.9L504.263 90.7484Z" />
      <path
            d="M627.58 40.1719L625.957 63.5263L561.674 58.356L559.708 86.6357L618.733 91.3831L617.172 113.826L558.148 109.077L555.928 141.007L621.398 146.274L619.737 170.176L527.976 162.794L537.007 32.8872L627.58 40.1719Z" />
      <path
            d="M738.167 54.0134L735.596 78.19L699.434 73.7396L688.243 178.99L661.712 175.726L672.903 70.4757L636.741 66.0253L639.312 41.8486L738.167 54.0134Z" />
      <path
            d="M875.354 105.842L850.245 103.941C850.071 90.9672 842.857 83.9392 828.606 82.8601C822.498 82.3987 817.633 83.3451 814.012 85.6995C810.392 88.0539 808.429 91.5427 808.127 96.1676C808.024 97.7484 808.157 99.1648 808.531 100.417C808.904 101.667 809.678 102.857 810.855 103.986C812.031 105.114 813.22 106.06 814.42 106.824C815.621 107.587 817.412 108.456 819.791 109.431C822.171 110.406 824.332 111.272 826.27 112.031C828.211 112.789 830.957 113.791 834.514 115.04C838.07 116.287 841.177 117.439 843.836 118.497C855.473 123.046 864.026 128.278 869.493 134.195C874.961 140.113 877.359 148.181 876.69 158.401C876.205 165.823 874.367 172.195 871.176 177.518C867.987 182.839 863.883 186.93 858.864 189.792C853.846 192.651 848.432 194.626 842.62 195.715C836.808 196.803 830.679 197.103 824.232 196.615C807.831 195.373 795.286 190.357 786.596 181.569C777.908 172.779 773.988 161.019 774.838 146.286L801.136 148.278C800.522 164.616 809.094 173.458 826.852 174.803C833.752 175.326 839.311 174.188 843.53 171.389C847.749 168.59 850.032 164.514 850.382 159.161C850.678 154.658 849.054 151.233 845.514 148.887C841.973 146.54 834.439 143.096 822.915 138.555C822.244 138.382 821.744 138.223 821.412 138.075C821.081 137.928 820.638 137.741 820.086 137.516C819.531 137.29 819.032 137.1 818.588 136.944C814.595 135.419 811.825 134.323 810.277 133.655C808.73 132.987 806.274 131.855 802.912 130.255C799.55 128.654 797.113 127.248 795.602 126.033C794.089 124.818 792.238 123.148 790.046 121.027C787.855 118.904 786.32 116.74 785.441 114.533C784.563 112.326 783.8 109.64 783.156 106.473C782.511 103.306 782.308 99.8981 782.546 96.2482C783.318 84.446 788.176 75.3371 797.121 68.9217C806.066 62.5062 817.552 59.8296 831.578 60.8919C845.151 61.9206 856.011 66.1964 864.158 73.7228C872.304 81.2475 876.036 91.9539 875.354 105.842Z" />
      <path
            d="M976.343 64.0063L977.136 88.3256L940.759 89.695L944.204 195.568L917.518 196.571L914.073 90.7002L877.696 92.0695L876.905 67.7502L976.343 64.0063Z" />
      <path
            d="M1042.1 55.79L1100.58 180.365L1072.84 183.493L1060.55 155.628L1015.72 160.682L1008.73 190.721L981.666 193.773L1014.87 58.861L1042.1 55.79ZM1052.1 135.608L1031.5 89.1796L1020.13 139.213L1052.1 135.608Z" />
      <path
            d="M1096.42 49.0043L1156.3 42.2063C1168.25 40.8487 1178.3 42.7735 1186.45 47.9807C1194.6 53.1879 1199.28 61.9779 1200.5 74.3507C1201.24 81.872 1200.19 88.6449 1197.36 94.6693C1194.53 100.694 1190.25 105.258 1184.51 108.363C1195.11 109.49 1202.02 118.886 1205.23 136.552C1205.29 137.158 1205.59 139.025 1206.12 142.153C1206.66 145.281 1207.13 147.773 1207.54 149.628C1207.95 151.482 1208.46 153.724 1209.06 156.355C1209.66 158.985 1210.38 161.172 1211.24 162.915C1212.09 164.657 1213.01 165.902 1214 166.649L1186.6 169.76C1185.51 167.921 1184.59 165.541 1183.85 162.621C1183.1 159.7 1182.33 155.924 1181.54 151.292C1180.74 146.661 1180.32 144.102 1180.27 143.617C1178.48 134.622 1175.74 128.554 1172.07 125.414C1168.4 122.274 1162.34 121.184 1153.88 122.144L1130.37 124.813L1135.35 175.578L1109.13 178.555L1096.42 49.0043ZM1124.83 68.4085L1128.35 104.253L1153.38 101.41C1160.71 100.578 1166.31 98.6851 1170.19 95.7316C1174.06 92.7764 1175.63 87.6615 1174.92 80.3835C1174.26 73.5905 1171.8 69.2072 1167.56 67.2354C1163.32 65.2653 1157.82 64.6629 1151.05 65.4314L1124.83 68.4085Z" />
      <path
            d="M1313.11 31.8867L1313.87 56.2077L1277.5 57.5401L1280.85 163.414L1254.16 164.391L1250.81 58.5168L1214.44 59.8492L1213.67 35.5283L1313.11 31.8867Z" />
      <path
            d="M1432.48 44.2137L1430.05 67.4859L1365.98 59.6877L1363.03 87.8666L1421.83 95.0272L1419.48 117.388L1360.68 110.229L1357.31 142.045L1422.56 149.986L1420.06 173.803L1328.61 162.672L1342.24 33.2271L1432.48 44.2137Z" />
      <path
            d="M1435.48 177.23L1461.41 49.9795L1509.26 61.2615C1527.65 65.5977 1540.69 74.4146 1548.36 87.7137C1556.05 101.011 1557.79 117.908 1553.62 138.401C1549.44 158.894 1541.28 173.454 1529.14 182.078C1516.99 190.701 1501.72 192.846 1483.33 188.512L1435.48 177.23ZM1465.98 160.067L1484.92 164.533C1507.84 169.94 1522.04 159.178 1527.54 132.251C1530.19 119.264 1529.36 108.613 1525.08 100.298C1520.79 91.9828 1512.9 86.4668 1501.37 83.7516L1482.44 79.2861L1465.98 160.067Z" />
</svg>