<svg width="100%" height="173" viewBox="0 0 1440 173" fill="none" xmlns="http://www.w3.org/2000/svg">
    <path d="M76.384 112.12L70.7622 132.644L-1 109.898L28.8705 0.842773L51.082 7.88284L26.8333 96.4144L76.384 112.12Z"
        fill="#1B8FFB" />
    <path
        d="M186.406 51.5386L181.121 71.1708L127.083 54.3344L120.682 78.1068L170.299 93.5666L165.22 112.431L115.603 96.9716L108.376 123.812L163.411 140.961L158.002 161.053L80.8673 137.02L110.27 27.8159L186.406 51.5386Z"
        fill="#1B8FFB" />
    <path
        d="M277.1 61.4147L275.787 82.6052L244.091 80.3308L238.372 172.579L215.119 170.911L220.838 78.6627L189.143 76.3897L190.456 55.1992L277.1 61.4147Z"
        fill="#1B8FFB" />
    <path
        d="M368.567 79.9024L346.794 83.0482C344.514 71.9924 337.196 67.3571 324.839 69.1424C319.543 69.9069 315.541 71.6395 312.832 74.3401C310.124 77.0407 309.021 80.3959 309.521 84.4058C309.692 85.7766 310.04 86.9615 310.564 87.9603C311.087 88.9591 311.946 89.8276 313.136 90.5686C314.327 91.3097 315.498 91.8926 316.649 92.3173C317.801 92.742 319.474 93.1447 321.667 93.5255C323.862 93.9063 325.851 94.2373 327.633 94.517C329.415 94.7953 331.927 95.1307 335.171 95.5217C338.415 95.9127 341.26 96.3067 343.706 96.7051C354.4 98.3834 362.569 101.23 368.211 105.249C373.855 109.266 377.231 115.706 378.337 124.569C379.141 131.005 378.616 136.8 376.763 141.955C374.912 147.11 372.075 151.387 368.256 154.784C364.437 158.182 360.132 160.899 355.344 162.933C350.557 164.967 345.367 166.388 339.776 167.195C325.554 169.25 314.01 167.347 305.141 161.486C296.271 155.624 290.99 146.318 289.299 133.566L312.102 130.271C314.259 144.352 323.036 150.281 338.435 148.056C344.419 147.192 348.983 145.162 352.128 141.97C355.274 138.775 356.558 134.858 355.978 130.217C355.49 126.312 353.541 123.694 350.129 122.361C346.718 121.028 339.714 119.515 329.12 117.824C328.518 117.803 328.063 117.762 327.755 117.699C327.448 117.636 327.04 117.56 326.529 117.474C326.019 117.386 325.562 117.317 325.156 117.269C321.493 116.724 318.946 116.312 317.513 116.037C316.081 115.76 313.797 115.258 310.661 114.53C307.525 113.801 305.21 113.061 303.719 112.31C302.228 111.558 300.37 110.485 298.149 109.086C295.929 107.689 294.26 106.131 293.148 104.413C292.034 102.694 290.943 100.542 289.87 97.9572C288.799 95.3738 288.066 92.4989 287.671 89.334C286.393 79.0998 289.05 70.3917 295.642 63.2096C302.233 56.0289 311.611 51.5591 323.772 49.8017C335.541 48.1014 345.525 49.6933 353.724 54.5775C361.921 59.4618 366.869 67.9034 368.567 79.9024Z"
        fill="#1B8FFB" />
    <path
        d="M521.994 80.0412L526.332 141.34L511.679 142.539L508.546 129.825C501.389 140.874 491.198 146.939 477.976 148.022C463.273 149.226 450.947 144.737 440.997 134.556C431.047 124.374 425.456 110.58 424.224 93.1708C422.985 75.6578 426.807 60.9582 435.692 49.0749C444.577 37.1902 456.619 30.6261 471.815 29.3827C483.852 28.3971 494.272 31.2002 503.076 37.7921C511.879 44.384 517.391 53.5681 519.614 65.3431L497.264 67.1737C495.759 61.3185 492.867 56.9103 488.589 53.9519C484.309 50.992 479.112 49.7633 472.993 50.2642C464.212 50.9832 457.547 54.9712 452.999 62.2309C448.451 69.4892 446.606 79.1684 447.461 91.2684C448.333 103.582 451.552 112.952 457.118 119.383C462.683 125.814 470.055 128.652 479.232 127.901C486.435 127.312 492.188 124.465 496.491 119.363C500.796 114.259 502.824 107.873 502.579 100.206L479.046 102.134L477.739 83.6645L521.994 80.0412Z"
        fill="#1B8FFB" />
    <path
        d="M629.616 35.902L628.199 56.284L572.098 51.7718L570.382 76.4522L621.895 80.5954L620.533 100.182L569.02 96.0375L567.084 123.903L624.221 128.501L622.771 149.36L542.689 142.918L550.571 29.5444L629.616 35.902Z"
        fill="#1B8FFB" />
    <path
        d="M726.128 47.9817L723.885 69.0814L692.325 65.1974L682.558 157.052L659.404 154.203L669.171 62.3489L637.611 58.4649L639.855 37.3652L726.128 47.9817Z"
        fill="#1B8FFB" />
    <path
        d="M845.856 93.2139L823.942 91.5546C823.79 80.2322 817.494 74.0987 805.057 73.157C799.726 72.7542 795.481 73.5802 792.321 75.635C789.161 77.6897 787.448 80.7345 787.184 84.7708C787.094 86.1504 787.211 87.3865 787.537 88.479C787.863 89.5701 788.538 90.6084 789.565 91.5941C790.592 92.5783 791.629 93.4043 792.676 94.0706C793.725 94.737 795.287 95.4956 797.364 96.3465C799.441 97.1974 801.327 97.9531 803.019 98.6151C804.712 99.2771 807.109 100.151 810.213 101.241C813.317 102.329 816.028 103.335 818.349 104.258C828.505 108.228 835.969 112.795 840.74 117.959C845.512 123.123 847.605 130.164 847.021 139.083C846.598 145.561 844.994 151.122 842.209 155.767C839.426 160.411 835.844 163.982 831.464 166.479C827.084 168.975 822.359 170.698 817.288 171.649C812.215 172.598 806.866 172.86 801.24 172.434C786.926 171.35 775.977 166.973 768.394 159.303C760.811 151.632 757.39 141.368 758.132 128.511L781.083 130.249C780.547 144.508 788.028 152.225 803.526 153.398C809.548 153.855 814.399 152.862 818.081 150.419C821.763 147.976 823.756 144.419 824.062 139.747C824.32 135.817 822.902 132.828 819.813 130.781C816.723 128.732 810.148 125.727 800.09 121.764C799.505 121.613 799.068 121.474 798.779 121.345C798.49 121.216 798.103 121.053 797.621 120.857C797.137 120.659 796.702 120.494 796.314 120.358C792.83 119.026 790.412 118.07 789.061 117.487C787.711 116.904 785.568 115.916 782.633 114.52C779.699 113.123 777.572 111.896 776.253 110.835C774.933 109.775 773.318 108.318 771.404 106.467C769.493 104.614 768.153 102.725 767.386 100.799C766.619 98.8729 765.954 96.5281 765.392 93.7645C764.828 91.0009 764.651 88.0265 764.859 84.8411C765.533 74.541 769.773 66.5914 777.579 60.9925C785.386 55.3935 795.41 53.0576 807.651 53.9846C819.496 54.8824 828.974 58.6141 836.084 65.1825C843.193 71.7495 846.45 81.0933 845.856 93.2139Z"
        fill="#1B8FFB" />
    <path
        d="M933.992 56.7026L934.683 77.9268L902.936 79.1218L905.943 171.52L882.653 172.396L879.647 79.9991L847.9 81.1942L847.209 59.97L933.992 56.7026Z"
        fill="#1B8FFB" />
    <path
        d="M991.38 49.5327L1042.42 158.253L1018.21 160.983L1007.48 136.664L968.36 141.075L962.257 167.291L938.637 169.955L967.612 52.2128L991.38 49.5327ZM1000.11 119.192L982.13 78.6727L972.206 122.338L1000.11 119.192Z"
        fill="#1B8FFB" />
    <path
        d="M1038.79 43.6104L1091.04 37.6776C1101.47 36.4928 1110.25 38.1726 1117.36 42.7171C1124.47 47.2616 1128.56 54.9328 1129.62 65.7309C1130.26 72.295 1129.35 78.2059 1126.88 83.4636C1124.41 88.7213 1120.67 92.7048 1115.66 95.4142C1124.91 96.3984 1130.94 104.598 1133.75 120.016C1133.8 120.544 1134.06 122.174 1134.53 124.904C1134.99 127.634 1135.41 129.809 1135.76 131.427C1136.12 133.046 1136.56 135.002 1137.09 137.299C1137.61 139.594 1138.25 141.502 1138.99 143.024C1139.74 144.544 1140.54 145.63 1141.4 146.282L1117.49 148.997C1116.53 147.392 1115.73 145.316 1115.09 142.767C1114.44 140.218 1113.77 136.922 1113.07 132.88C1112.37 128.838 1112.01 126.605 1111.97 126.181C1110.4 118.331 1108.01 113.036 1104.81 110.295C1101.6 107.555 1096.31 106.603 1088.93 107.441L1068.41 109.771L1072.76 154.075L1049.88 156.673L1038.79 43.6104ZM1063.58 60.545L1066.65 91.8276L1088.5 89.3466C1094.9 88.6202 1099.78 86.9682 1103.16 84.3906C1106.54 81.8116 1107.92 77.3476 1107.3 70.9959C1106.72 65.0675 1104.57 61.2421 1100.87 59.5212C1097.17 57.8019 1092.37 57.2761 1086.46 57.9468L1063.58 60.545Z"
        fill="#1B8FFB" />
    <path
        d="M1227.9 28.6714L1228.56 49.897L1196.82 51.0598L1199.74 143.459L1176.45 144.312L1173.53 51.9122L1141.78 53.075L1141.11 31.8495L1227.9 28.6714Z"
        fill="#1B8FFB" />
    <path
        d="M1332.08 39.4292L1329.95 59.7395L1274.04 52.9337L1271.46 77.5263L1322.78 83.7755L1320.73 103.291L1269.41 97.0429L1266.48 124.809L1323.42 131.739L1321.23 152.526L1241.43 142.811L1253.32 29.8408L1332.08 39.4292Z"
        fill="#1B8FFB" />
    <path
        d="M1334.7 155.516L1357.32 44.4614L1399.09 54.3075C1415.14 58.0919 1426.51 65.7866 1433.21 77.3931C1439.92 88.9981 1441.44 103.745 1437.79 121.63C1434.15 139.515 1427.03 152.221 1416.43 159.747C1405.83 167.273 1392.51 169.145 1376.46 165.362L1334.7 155.516ZM1361.31 140.538L1377.84 144.435C1397.85 149.154 1410.24 139.762 1415.03 116.262C1417.35 104.928 1416.63 95.6325 1412.89 88.3757C1409.15 81.1189 1402.26 76.305 1392.2 73.9353L1375.68 70.0382L1361.31 140.538Z"
        fill="#1B8FFB" />
</svg>