<svg width="100%"
     height="100%"
     viewBox="0 0 51 37"
     fill="none"
     xmlns="http://www.w3.org/2000/svg">
  <rect width="51"
        height="37"
        rx="18.5"
        fill="#F9F9F9" />
  <path d="M17.6878 18.1669C17.2869 17.7871 16.6539 17.8042 16.2741 18.2051C15.8942 18.606 15.9113 19.2389 16.3122 19.6188L17.6878 18.1669ZM22.3902 24L21.7025 24.7259L22.3902 25.3776L23.078 24.7259L22.3902 24ZM34.6878 13.7259C35.0887 13.3461 35.1058 12.7131 34.7259 12.3122C34.3461 11.9113 33.7131 11.8942 33.3122 12.2741L34.6878 13.7259ZM16.3122 19.6188L21.7025 24.7259L23.078 23.2741L17.6878 18.1669L16.3122 19.6188ZM23.078 24.7259L34.6878 13.7259L33.3122 12.2741L21.7025 23.2741L23.078 24.7259Z"
        fill="#383838" />
</svg>