<svg width="100%"
     height="100%"
     viewBox="0 0 126 125"
     fill="none"
     xmlns="http://www.w3.org/2000/svg">
      <g filter="url(#filter0_d_634_12007)">
            <path d="M98.307 43.1662C114.566 52.5462 113.999 73.3089 97.9136 82.5885C89.8081 87.2647 79.3387 89.9074 68.1052 90.7858C55.7629 91.7831 43.0358 91.5134 30.7559 89.9807C27.6947 89.5945 26.2448 88.6612 25.6572 87.0391C23.0427 79.9792 22.3935 66.7016 24.0764 59.5547C25.6025 53.076 30.1797 47.0341 38.2852 42.3579C54.3703 33.0782 82.0023 33.7598 98.307 43.1662Z"
                  fill="#5218F8" />
      </g>
      <path d="M30.6735 84.0431L30.6744 84.0432C42.9984 85.5814 55.7712 85.8522 68.1585 84.8513C79.4626 83.9672 90.014 81.3063 98.1881 76.5906C114.431 67.2199 113.978 51.8232 97.5738 42.3597C81.1244 32.8698 54.4363 32.6079 38.1932 41.9788C30.0189 46.6947 25.4101 52.7841 23.8743 59.3036L24.2585 59.3338L23.8743 59.3037C22.1856 66.4756 22.6546 73.8437 25.2781 80.9288L30.6735 84.0431ZM30.6735 84.0431C29.0915 83.8435 27.8875 83.4975 27.0018 82.9734M30.6735 84.0431L27.0018 82.9734M27.0018 82.9734C26.1169 82.4498 25.5823 81.7677 25.2785 80.9298L27.0018 82.9734Z"
            fill="url(#paint0_linear_634_12007)"
            stroke="url(#paint1_linear_634_12007)"
            stroke-width="0.632965"
            stroke-linecap="round"
            stroke-linejoin="round" />
      <g filter="url(#filter1_d_634_12007)">
            <path d="M71.1485 69.8265C97.3174 57.8423 88.4528 40.6841 80.7494 33.603C73.1593 34.1955 54.0877 35.5835 38.5223 36.396C19.0656 37.4116 18.216 67.9645 27.0522 71.4345C35.8885 74.9045 34.4441 75.9201 71.1485 69.8265Z"
                  fill="#5C34FF" />
      </g>
      <g filter="url(#filter2_b_634_12007)">
            <path d="M78.8733 29.1007C93.963 37.8061 93.0136 57.826 78.0852 66.4385C70.5625 70.7784 60.846 73.231 50.4202 74.0463C38.9654 74.9719 27.1534 74.7216 15.7566 73.2991C12.9155 72.9406 11.5698 72.0744 11.0245 70.569C8.59802 64.0167 7.99551 51.6939 9.55734 45.0609C10.9738 39.048 15.2218 33.4406 22.7445 29.1006C37.673 20.4882 63.741 20.3706 78.8733 29.1007Z"
                  fill="white"
                  fill-opacity="0.5" />
      </g>
      <g filter="url(#filter3_b_634_12007)">
            <path d="M77.5156 27.9271C92.6054 36.6326 93.0143 50.7907 78.0858 59.4031C70.5632 63.743 60.8466 66.1957 50.4209 67.0109C38.9661 67.9365 27.1541 67.6862 15.7572 66.2637C12.9162 65.9053 11.5705 65.0391 11.0251 63.5337C8.59868 56.9814 8.16477 50.1669 9.72662 43.5339C11.143 37.521 15.3911 31.9136 22.9138 27.5737C37.8422 18.9612 62.3833 19.1971 77.5156 27.9271Z"
                  fill="white"
                  fill-opacity="0.5" />
            <path d="M15.6812 66.4666L15.6804 66.4665C14.2121 66.2812 13.0947 65.9601 12.2727 65.4737C11.4511 64.9876 10.9548 64.3542 10.6729 63.5761C8.23803 57.0005 7.80275 50.1622 9.37008 43.506L9.72662 43.5339L9.37009 43.506C10.7954 37.4552 15.0728 31.8036 22.6593 27.4269C37.7345 18.7298 62.5035 18.9729 77.7701 27.7804C92.9944 36.5635 93.4151 50.853 78.3402 59.5499C70.754 63.9265 60.9613 66.3961 50.4701 67.2166C38.9735 68.1455 27.1191 67.8942 15.6812 66.4666Z"
                  stroke="url(#paint2_linear_634_12007)"
                  stroke-width="0.587451"
                  stroke-linecap="round"
                  stroke-linejoin="round" />
      </g>
      <rect width="111"
            height="111"
            rx="16" />
      <defs>
            <filter id="filter0_d_634_12007"
                    x="8.26429"
                    y="35.7437"
                    width="116.861"
                    height="89.1188"
                    filterUnits="userSpaceOnUse"
                    color-interpolation-filters="sRGB">
                  <feFlood flood-opacity="0"
                           result="BackgroundImageFix" />
                  <feColorMatrix in="SourceAlpha"
                                 type="matrix"
                                 values="0 0 0 0 0 0 0 0 0 0 0 0 0 0 0 0 0 0 127 0"
                                 result="hardAlpha" />
                  <feOffset dy="18.6041" />
                  <feGaussianBlur stdDeviation="7.44165" />
                  <feComposite in2="hardAlpha"
                               operator="out" />
                  <feColorMatrix type="matrix"
                                 values="0 0 0 0 0.475185 0 0 0 0 0.343982 0 0 0 0 1 0 0 0 0.5 0" />
                  <feBlend mode="normal"
                           in2="BackgroundImageFix"
                           result="effect1_dropShadow_634_12007" />
                  <feBlend mode="normal"
                           in="SourceGraphic"
                           in2="effect1_dropShadow_634_12007"
                           result="shape" />
            </filter>
            <filter id="filter1_d_634_12007"
                    x="7.38841"
                    y="28.5052"
                    width="95.5381"
                    height="69.1651"
                    filterUnits="userSpaceOnUse"
                    color-interpolation-filters="sRGB">
                  <feFlood flood-opacity="0"
                           result="BackgroundImageFix" />
                  <feColorMatrix in="SourceAlpha"
                                 type="matrix"
                                 values="0 0 0 0 0 0 0 0 0 0 0 0 0 0 0 0 0 0 127 0"
                                 result="hardAlpha" />
                  <feOffset dy="9.17611" />
                  <feGaussianBlur stdDeviation="7.13697" />
                  <feComposite in2="hardAlpha"
                               operator="out" />
                  <feColorMatrix type="matrix"
                                 values="0 0 0 0 0.130634 0 0 0 0 0 0 0 0 0 0.933102 0 0 0 0.4 0" />
                  <feBlend mode="normal"
                           in2="BackgroundImageFix"
                           result="effect1_dropShadow_634_12007" />
                  <feBlend mode="normal"
                           in="SourceGraphic"
                           in2="effect1_dropShadow_634_12007"
                           result="shape" />
            </filter>
            <filter id="filter2_b_634_12007"
                    x="-10.7497"
                    y="3.15214"
                    width="119.94"
                    height="90.8857"
                    filterUnits="userSpaceOnUse"
                    color-interpolation-filters="sRGB">
                  <feFlood flood-opacity="0"
                           result="BackgroundImageFix" />
                  <feGaussianBlur in="BackgroundImage"
                                  stdDeviation="9.72252" />
                  <feComposite in2="SourceAlpha"
                               operator="in"
                               result="effect1_backgroundBlur_634_12007" />
                  <feBlend mode="normal"
                           in="SourceGraphic"
                           in2="effect1_backgroundBlur_634_12007"
                           result="shape" />
            </filter>
            <filter id="filter3_b_634_12007"
                    x="-11.3549"
                    y="1.38505"
                    width="120.58"
                    height="86.0326"
                    filterUnits="userSpaceOnUse"
                    color-interpolation-filters="sRGB">
                  <feFlood flood-opacity="0"
                           result="BackgroundImageFix" />
                  <feGaussianBlur in="BackgroundImage"
                                  stdDeviation="9.72252" />
                  <feComposite in2="SourceAlpha"
                               operator="in"
                               result="effect1_backgroundBlur_634_12007" />
                  <feBlend mode="normal"
                           in="SourceGraphic"
                           in2="effect1_backgroundBlur_634_12007"
                           result="shape" />
            </filter>
            <linearGradient id="paint0_linear_634_12007"
                            x1="67.5654"
                            y1="46.5502"
                            x2="75.9743"
                            y2="79.6285"
                            gradientUnits="userSpaceOnUse">
                  <stop stop-color="#5C33FF" />
                  <stop offset="1"
                        stop-color="#7759EF" />
            </linearGradient>
            <linearGradient id="paint1_linear_634_12007"
                            x1="93.4017"
                            y1="73.0924"
                            x2="40.8224"
                            y2="62.8086"
                            gradientUnits="userSpaceOnUse">
                  <stop stop-color="white"
                        stop-opacity="0.43" />
                  <stop offset="0.846595"
                        stop-color="white"
                        stop-opacity="0.44" />
                  <stop offset="1"
                        stop-color="white"
                        stop-opacity="0" />
            </linearGradient>
            <linearGradient id="paint2_linear_634_12007"
                            x1="73.898"
                            y1="56.3032"
                            x2="25.0995"
                            y2="46.7589"
                            gradientUnits="userSpaceOnUse">
                  <stop stop-color="white"
                        stop-opacity="0.43" />
                  <stop offset="0.846595"
                        stop-color="white"
                        stop-opacity="0.44" />
                  <stop offset="1"
                        stop-color="white"
                        stop-opacity="0" />
            </linearGradient>
      </defs>
</svg>