<svg width="100%"
     height="100%"
     viewBox="0 0 128 118"
     fill="none"
     xmlns="http://www.w3.org/2000/svg">
      <path d="M18.6657 67.1761C12.7863 63.9092 12.6984 54.56 17.7115 51.9387L53.309 35.0748C59.1982 31.6971 68.7466 31.6971 74.6358 35.0748L109.969 51.7639C115.422 54.4726 115.168 63.7984 109.279 67.1761L74.6358 87.0455C68.7466 90.4232 59.1982 90.4232 53.309 87.0455L18.6657 67.1761Z"
            fill="#778DFF" />
      <g filter="url(#filter0_d_634_10172)">
            <rect x="0.454765"
                  width="63.9982"
                  height="63.9982"
                  rx="11.9705"
                  transform="matrix(0.867452 -0.497521 0.867452 0.497521 8.06028 57.6164)"
                  fill="url(#paint0_linear_634_10172)"
                  stroke="url(#paint1_linear_634_10172)"
                  stroke-width="0.524254" />
      </g>
      <g filter="url(#filter1_d_634_10172)">
            <path d="M21.1233 45.8123L47.2708 31.074C55.6784 26.3349 69.3098 26.3349 77.7175 31.074L103.865 45.8123L68.5835 65.699C65.2204 67.5946 59.7678 67.5946 56.4048 65.699L21.1233 45.8123Z"
                  fill="#2447FF" />
      </g>
      <g filter="url(#filter2_b_634_10172)">
            <path d="M18.6985 44.8084C12.8191 41.5415 12.7312 32.1923 17.7443 29.571L53.3418 12.7071C59.231 9.32939 68.7794 9.32939 74.6686 12.7071L110.002 29.3963C115.455 32.1049 115.201 41.4307 109.312 44.8084L74.6686 64.6778C68.7794 68.0556 59.231 68.0556 53.3418 64.6778L18.6985 44.8084Z"
                  fill="white"
                  fill-opacity="0.5" />
      </g>
      <g filter="url(#filter3_b_634_10172)">
            <rect x="0.454765"
                  width="63.9982"
                  height="63.9982"
                  rx="11.9705"
                  transform="matrix(0.867452 -0.497521 0.867452 0.497521 8.06028 35.3273)"
                  fill="white"
                  fill-opacity="0.5"
                  stroke="url(#paint2_linear_634_10172)"
                  stroke-width="0.524254" />
      </g>
      <g filter="url(#filter4_i_634_10172)">
            <mask id="path-7-inside-1_634_10172"
                  fill="white">
                  <path
                        d="M80.9718 40.4678C80.636 40.6854 80.2068 40.8589 79.707 40.9644L63.387 44.3354C62.4444 44.5278 61.4336 44.4291 60.7283 44.074L47.2456 37.2843C46.1396 36.7274 46.1033 35.7173 47.1645 35.0295C48.2257 34.3418 49.9845 34.2357 51.0905 34.7927L63.4352 41.0092L78.232 37.9516C79.711 37.6484 81.2397 38.0729 81.6474 38.904C81.9137 39.4544 81.6254 40.0442 80.9718 40.4678Z" />
            </mask>
            <path d="M80.9718 40.4678C80.636 40.6854 80.2068 40.8589 79.707 40.9644L63.387 44.3354C62.4444 44.5278 61.4336 44.4291 60.7283 44.074L47.2456 37.2843C46.1396 36.7274 46.1033 35.7173 47.1645 35.0295C48.2257 34.3418 49.9845 34.2357 51.0905 34.7927L63.4352 41.0092L78.232 37.9516C79.711 37.6484 81.2397 38.0729 81.6474 38.904C81.9137 39.4544 81.6254 40.0442 80.9718 40.4678Z"
                  fill="#2447FF" />
            <path d="M79.707 40.9644L79.7302 41.0087L79.7308 41.0086L79.707 40.9644ZM63.387 44.3354L63.4099 44.3797L63.4102 44.3796L63.387 44.3354ZM63.4352 41.0092L63.3792 41.0455L63.4134 41.0628L63.4585 41.0534L63.4352 41.0092ZM78.232 37.9516L78.2089 37.9073L78.2087 37.9073L78.232 37.9516ZM81.6474 38.904L81.7263 38.8887L81.7262 38.8886L81.6474 38.904ZM80.9121 40.4378C80.5859 40.6492 80.169 40.8177 79.6832 40.9203L79.7308 41.0086C80.2446 40.9001 80.6861 40.7217 81.0314 40.4978L80.9121 40.4378ZM79.6837 40.9202L63.3638 44.2911L63.4102 44.3796L79.7302 41.0087L79.6837 40.9202ZM63.3641 44.291C62.4486 44.4779 61.468 44.3819 60.7844 44.0376L60.6723 44.1103C61.3991 44.4763 62.4401 44.5777 63.4099 44.3797L63.3641 44.291ZM60.7844 44.0376L47.3016 37.248L47.1895 37.3207L60.6723 44.1103L60.7844 44.0376ZM47.3016 37.248C46.2298 36.7083 46.1928 35.728 47.2241 35.0596L47.1048 34.9995C46.0138 35.7065 46.0494 36.7465 47.1895 37.3207L47.3016 37.248ZM47.2241 35.0596C48.2555 34.3912 49.9626 34.2892 51.0344 34.829L51.1466 34.7563C50.0065 34.1822 48.1958 34.2925 47.1048 34.9995L47.2241 35.0596ZM51.0344 34.829L63.3792 41.0455L63.4913 40.9729L51.1466 34.7563L51.0344 34.829ZM63.4585 41.0534L78.2552 37.9959L78.2087 37.9073L63.412 40.9649L63.4585 41.0534ZM78.255 37.9959C79.6911 37.7015 81.1733 38.1138 81.5685 38.9194L81.7262 38.8886C81.3062 38.0321 79.7308 37.5954 78.2089 37.9073L78.255 37.9959ZM81.5684 38.9193C81.8269 39.4533 81.5473 40.0261 80.9121 40.4378L81.0314 40.4978C81.7035 40.0623 82.0006 39.4554 81.7263 38.8887L81.5684 38.9193Z"
                  fill="url(#paint3_linear_634_10172)"
                  mask="url(#path-7-inside-1_634_10172)" />
      </g>
      <rect x="8"
            width="111"
            height="111"
            rx="16.5801" />
      <defs>
            <filter id="filter0_d_634_10172"
                    x="0.235783"
                    y="28.854"
                    width="127.469"
                    height="88.5275"
                    filterUnits="userSpaceOnUse"
                    color-interpolation-filters="sRGB">
                  <feFlood flood-opacity="0"
                           result="BackgroundImageFix" />
                  <feColorMatrix in="SourceAlpha"
                                 type="matrix"
                                 values="0 0 0 0 0 0 0 0 0 0 0 0 0 0 0 0 0 0 127 0"
                                 result="hardAlpha" />
                  <feOffset dy="17.4751" />
                  <feGaussianBlur stdDeviation="6.99006" />
                  <feComposite in2="hardAlpha"
                               operator="out" />
                  <feColorMatrix type="matrix"
                                 values="0 0 0 0 0.141176 0 0 0 0 0.278431 0 0 0 0 1 0 0 0 0.4 0" />
                  <feBlend mode="normal"
                           in2="BackgroundImageFix"
                           result="effect1_dropShadow_634_10172" />
                  <feBlend mode="normal"
                           in="SourceGraphic"
                           in2="effect1_dropShadow_634_10172"
                           result="shape" />
            </filter>
            <filter id="filter1_d_634_10172"
                    x="13.4343"
                    y="25.7723"
                    width="98.1197"
                    height="54.9792"
                    filterUnits="userSpaceOnUse"
                    color-interpolation-filters="sRGB">
                  <feFlood flood-opacity="0"
                           result="BackgroundImageFix" />
                  <feColorMatrix in="SourceAlpha"
                                 type="matrix"
                                 values="0 0 0 0 0 0 0 0 0 0 0 0 0 0 0 0 0 0 127 0"
                                 result="hardAlpha" />
                  <feOffset dy="5.94155" />
                  <feGaussianBlur stdDeviation="3.84453" />
                  <feComposite in2="hardAlpha"
                               operator="out" />
                  <feColorMatrix type="matrix"
                                 values="0 0 0 0 0.228863 0 0 0 0 0.105882 0 0 0 0 0.984314 0 0 0 1 0" />
                  <feBlend mode="normal"
                           in2="BackgroundImageFix"
                           result="effect1_dropShadow_634_10172" />
                  <feBlend mode="normal"
                           in="SourceGraphic"
                           in2="effect1_dropShadow_634_10172"
                           result="shape" />
            </filter>
            <filter id="filter2_b_634_10172"
                    x="7.13729"
                    y="3.18377"
                    width="113.77"
                    height="71.0175"
                    filterUnits="userSpaceOnUse"
                    color-interpolation-filters="sRGB">
                  <feFlood flood-opacity="0"
                           result="BackgroundImageFix" />
                  <feGaussianBlur in="BackgroundImage"
                                  stdDeviation="3.49503" />
                  <feComposite in2="SourceAlpha"
                               operator="in"
                               result="effect1_backgroundBlur_634_10172" />
                  <feBlend mode="normal"
                           in="SourceGraphic"
                           in2="effect1_backgroundBlur_634_10172"
                           result="shape" />
            </filter>
            <filter id="filter3_b_634_10172"
                    x="7.22584"
                    y="-0.425116"
                    width="113.489"
                    height="71.0524"
                    filterUnits="userSpaceOnUse"
                    color-interpolation-filters="sRGB">
                  <feFlood flood-opacity="0"
                           result="BackgroundImageFix" />
                  <feGaussianBlur in="BackgroundImage"
                                  stdDeviation="3.49503" />
                  <feComposite in2="SourceAlpha"
                               operator="in"
                               result="effect1_backgroundBlur_634_10172" />
                  <feBlend mode="normal"
                           in="SourceGraphic"
                           in2="effect1_backgroundBlur_634_10172"
                           result="shape" />
            </filter>
            <filter id="filter4_i_634_10172"
                    x="46.3917"
                    y="34.4355"
                    width="35.3544"
                    height="10.3744"
                    filterUnits="userSpaceOnUse"
                    color-interpolation-filters="sRGB">
                  <feFlood flood-opacity="0"
                           result="BackgroundImageFix" />
                  <feBlend mode="normal"
                           in="SourceGraphic"
                           in2="BackgroundImageFix"
                           result="shape" />
                  <feColorMatrix in="SourceAlpha"
                                 type="matrix"
                                 values="0 0 0 0 0 0 0 0 0 0 0 0 0 0 0 0 0 0 127 0"
                                 result="hardAlpha" />
                  <feOffset dy="0.878324" />
                  <feGaussianBlur stdDeviation="0.18891" />
                  <feComposite in2="hardAlpha"
                               operator="arithmetic"
                               k2="-1"
                               k3="1" />
                  <feColorMatrix type="matrix"
                                 values="0 0 0 0 1 0 0 0 0 1 0 0 0 0 1 0 0 0 1 0" />
                  <feBlend mode="normal"
                           in2="shape"
                           result="effect1_innerShadow_634_10172" />
            </filter>
            <linearGradient id="paint0_linear_634_10172"
                            x1="12.1"
                            y1="54.0045"
                            x2="10.1234"
                            y2="25.7736"
                            gradientUnits="userSpaceOnUse">
                  <stop stop-color="#2447FF" />
                  <stop offset="1"
                        stop-color="#6B83FF" />
            </linearGradient>
            <linearGradient id="paint1_linear_634_10172"
                            x1="5.59066"
                            y1="26.2449"
                            x2="33.9173"
                            y2="52.8123"
                            gradientUnits="userSpaceOnUse">
                  <stop stop-color="white"
                        stop-opacity="0.43" />
                  <stop offset="0.846595"
                        stop-color="white"
                        stop-opacity="0.44" />
                  <stop offset="1"
                        stop-color="white"
                        stop-opacity="0" />
            </linearGradient>
            <linearGradient id="paint2_linear_634_10172"
                            x1="7.78753"
                            y1="28.2662"
                            x2="37.2428"
                            y2="56.1395"
                            gradientUnits="userSpaceOnUse">
                  <stop stop-color="white"
                        stop-opacity="0.09" />
                  <stop offset="0.846595"
                        stop-color="white"
                        stop-opacity="0.79" />
                  <stop offset="1"
                        stop-color="white"
                        stop-opacity="0.17" />
            </linearGradient>
            <linearGradient id="paint3_linear_634_10172"
                            x1="50.2224"
                            y1="36.2338"
                            x2="74.8522"
                            y2="29.2868"
                            gradientUnits="userSpaceOnUse">
                  <stop stop-color="white"
                        stop-opacity="0.25" />
                  <stop offset="1"
                        stop-color="white"
                        stop-opacity="0" />
            </linearGradient>
      </defs>
</svg>