<svg width="14" height="14" viewBox="0 0 14 14" fill="none" xmlns="http://www.w3.org/2000/svg">
<path fill-rule="evenodd" clip-rule="evenodd" d="M7.00039 12.5999C8.4856 12.5999 9.90998 12.0099 10.9602 10.9597C12.0104 9.9095 12.6004 8.48511 12.6004 6.9999C12.6004 5.51469 12.0104 4.09031 10.9602 3.0401C9.90998 1.9899 8.4856 1.3999 7.00039 1.3999C5.51518 1.3999 4.0908 1.9899 3.04059 3.0401C1.99039 4.09031 1.40039 5.51469 1.40039 6.9999C1.40039 8.48511 1.99039 9.9095 3.04059 10.9597C4.0908 12.0099 5.51518 12.5999 7.00039 12.5999ZM9.59529 6.0948C9.7228 5.96278 9.79336 5.78596 9.79176 5.60242C9.79017 5.41888 9.71655 5.24331 9.58676 5.11353C9.45698 4.98374 9.28141 4.91013 9.09787 4.90853C8.91433 4.90694 8.73751 4.97749 8.60549 5.105L6.30039 7.4101L5.39529 6.505C5.26327 6.37749 5.08645 6.30694 4.90291 6.30853C4.71937 6.31013 4.5438 6.38374 4.41402 6.51353C4.28423 6.64331 4.21061 6.81888 4.20902 7.00242C4.20742 7.18596 4.27798 7.36278 4.40549 7.4948L5.80549 8.8948C5.93676 9.02603 6.11478 9.09975 6.30039 9.09975C6.48601 9.09975 6.66402 9.02603 6.79529 8.8948L9.59529 6.0948Z" fill="#4ED273"/>
</svg>
