<svg width="24" height="24" viewBox="0 0 24 24" fill="none" xmlns="http://www.w3.org/2000/svg">
<path d="M16.8272 15.6402C17.4972 15.2002 18.3772 15.6802 18.3772 16.4802V17.7702C18.3772 19.0402 17.3872 20.4002 16.1972 20.8002L13.0072 21.8602C12.4472 22.0502 11.5372 22.0502 10.9872 21.8602L7.79719 20.8002C6.59719 20.4002 5.61719 19.0402 5.61719 17.7702V16.4702C5.61719 15.6802 6.49719 15.2002 7.15719 15.6302L9.21719 16.9702C10.0072 17.5002 11.0072 17.7602 12.0072 17.7602C13.0072 17.7602 14.0072 17.5002 14.7972 16.9702L16.8272 15.6402Z" fill="#383838"/>
<path d="M19.9834 6.46006L13.9934 2.53006C12.9134 1.82006 11.1334 1.82006 10.0534 2.53006L4.03344 6.46006C2.10344 7.71006 2.10344 10.5401 4.03344 11.8001L5.63344 12.8401L10.0534 15.7201C11.1334 16.4301 12.9134 16.4301 13.9934 15.7201L18.3834 12.8401L19.7534 11.9401V15.0001C19.7534 15.4101 20.0934 15.7501 20.5034 15.7501C20.9134 15.7501 21.2534 15.4101 21.2534 15.0001V10.0801C21.6534 8.79006 21.2434 7.29006 19.9834 6.46006Z" fill="#383838"/>
</svg>
