<svg width="12"
     height="22"
     viewBox="0 0 12 22"
     fill="#1B8FFB"
     xmlns="http://www.w3.org/2000/svg">
      <path
            d="M1.35355 0.646447C1.15829 0.451184 0.841709 0.451184 0.646447 0.646447C0.451184 0.841709 0.451184 1.15829 0.646447 1.35355L1.35355 0.646447ZM11 11L11.3536 11.3536L11.7071 11L11.3536 10.6464L11 11ZM0.646447 20.6464C0.451184 20.8417 0.451184 21.1583 0.646447 21.3536C0.841709 21.5488 1.15829 21.5488 1.35355 21.3536L0.646447 20.6464ZM0.646447 1.35355L10.6464 11.3536L11.3536 10.6464L1.35355 0.646447L0.646447 1.35355ZM10.6464 10.6464L0.646447 20.6464L1.35355 21.3536L11.3536 11.3536L10.6464 10.6464Z" />
</svg>