<svg width="100%"
     height="100%"
     viewBox="0 0 12 22"
     fill="#1B8FFB">
      <path
            d="M10.6464 21.3536C10.8417 21.5488 11.1583 21.5488 11.3536 21.3536C11.5488 21.1583 11.5488 20.8417 11.3536 20.6464L10.6464 21.3536ZM1 11L0.646448 10.6464L0.292894 11L0.646448 11.3536L1 11ZM11.3536 1.35355C11.5488 1.15829 11.5488 0.841709 11.3536 0.646447C11.1583 0.451184 10.8417 0.451184 10.6464 0.646447L11.3536 1.35355ZM11.3536 20.6464L1.35355 10.6464L0.646448 11.3536L10.6464 21.3536L11.3536 20.6464ZM1.35355 11.3536L11.3536 1.35355L10.6464 0.646447L0.646448 10.6464L1.35355 11.3536Z" />
</svg>