<svg width="100%"
     height="100%"
     viewBox="0 0 840 372"
     fill="none"
     xmlns="http://www.w3.org/2000/svg">
  <rect x="1"
        y="1"
        width="198"
        height="58"
        rx="9"
        fill="white" />
  <path d="M33.434 21.896H31.292V34H33.434V21.896ZM37.6044 25.228H35.7684V34H37.7064V29.274C37.7064 27.251 38.6754 26.605 39.8484 26.605C41.3954 26.605 41.5484 27.693 41.5484 28.9V34H43.4864V28.152C43.4864 26.163 42.5344 24.99 40.5114 24.99C39.2024 24.99 38.3354 25.466 37.6044 26.52V25.228ZM53.8262 21.896H51.9222V26.367C51.3102 25.466 50.3752 24.99 49.1342 24.99C46.7032 24.99 45.1562 26.775 45.1562 29.597C45.1562 32.436 46.7202 34.238 49.2022 34.238C50.5112 34.238 51.4632 33.745 52.0072 32.793V34H53.8262V21.896ZM49.4912 26.554C51.0552 26.554 51.9732 27.676 51.9732 29.597C51.9732 31.535 51.0722 32.674 49.5592 32.674C48.0462 32.674 47.1112 31.484 47.1112 29.563C47.1112 27.693 48.0292 26.554 49.4912 26.554ZM57.8947 21.845H55.9567V23.749H57.8947V21.845ZM57.8947 25.228H55.9567V34H57.8947V25.228ZM59.1223 25.228L62.3183 34.017H64.4943L67.6393 25.228H65.6333L63.4743 31.977L61.2303 25.228H59.1223ZM70.8108 21.845H68.8728V23.749H70.8108V21.845ZM70.8108 25.228H68.8728V34H70.8108V25.228ZM81.2353 21.896H79.3313V26.367C78.7193 25.466 77.7843 24.99 76.5433 24.99C74.1123 24.99 72.5653 26.775 72.5653 29.597C72.5653 32.436 74.1293 34.238 76.6113 34.238C77.9203 34.238 78.8723 33.745 79.4163 32.793V34H81.2353V21.896ZM76.9003 26.554C78.4643 26.554 79.3823 27.676 79.3823 29.597C79.3823 31.535 78.4813 32.674 76.9683 32.674C75.4553 32.674 74.5203 31.484 74.5203 29.563C74.5203 27.693 75.4383 26.554 76.9003 26.554ZM91.0159 25.228H89.0779V29.869C89.0779 31.314 88.5169 32.606 86.9699 32.606C85.3209 32.606 85.2529 31.518 85.2529 30.243V25.228H83.3149V31.042C83.3149 33.099 84.3689 34.238 86.3069 34.238C87.5309 34.238 88.4489 33.745 89.1969 32.691V34H91.0159V25.228ZM92.9916 27.931H94.8276C94.9806 26.792 95.5246 26.367 96.7826 26.367C98.0066 26.367 98.5846 26.792 98.5846 27.693C98.5846 28.016 98.5506 28.22 98.4656 28.322C98.2786 28.577 97.8876 28.662 96.5446 28.832C94.7936 29.053 92.6176 29.274 92.6176 31.603C92.6176 33.218 93.7566 34.221 95.5756 34.221C96.7316 34.221 97.8536 33.932 98.6526 33.167C98.7886 33.932 99.3326 34.221 100.081 34.221C100.455 34.221 100.727 34.187 101.339 34.034V32.674C101.101 32.708 101.033 32.708 100.897 32.708C100.54 32.708 100.438 32.572 100.438 32.062V27.608C100.438 25.721 98.9076 24.956 96.8336 24.956C94.6916 24.956 93.2126 25.772 92.9916 27.931ZM98.5676 29.597V30.634C98.5676 31.161 98.5846 31.739 98.1766 32.147C97.7346 32.589 96.9866 32.844 96.1876 32.844C95.1846 32.844 94.6066 32.368 94.6066 31.535C94.6066 30.379 95.6266 30.209 96.5276 30.073C97.2246 29.971 97.9386 29.954 98.5676 29.597ZM104.512 21.896H102.591V34H104.512V21.896ZM118.308 27.778C118.308 25.789 116.642 24.973 114.636 24.973C112.392 24.973 111.049 25.959 111.049 27.625C111.049 29.512 112.63 29.767 114.636 30.26C115.741 30.532 116.727 30.685 116.727 31.569C116.727 32.351 115.979 32.844 114.84 32.844C113.633 32.844 112.817 32.351 112.715 31.195H110.862C110.964 33.201 112.324 34.255 114.806 34.255C117.152 34.255 118.631 33.133 118.631 31.365C118.631 29.427 116.761 29.036 115.231 28.679C113.82 28.356 112.987 28.288 112.987 27.404C112.987 26.758 113.565 26.384 114.551 26.384C115.588 26.384 116.319 26.707 116.455 27.778H118.308ZM128.024 31.263H126.171C125.78 32.385 125.151 32.861 124.08 32.861C122.584 32.861 121.717 31.858 121.666 30.09H128.143V29.886C128.143 26.86 126.545 24.973 123.978 24.973C121.513 24.973 119.728 26.962 119.728 29.716C119.728 32.334 121.343 34.289 124.046 34.289C126.018 34.289 127.582 33.184 128.024 31.263ZM126.205 28.798H121.7C121.887 27.251 122.686 26.418 123.961 26.418C125.236 26.418 126.086 27.319 126.205 28.798ZM136.57 27.778C136.57 25.789 134.904 24.973 132.898 24.973C130.654 24.973 129.311 25.959 129.311 27.625C129.311 29.512 130.892 29.767 132.898 30.26C134.003 30.532 134.989 30.685 134.989 31.569C134.989 32.351 134.241 32.844 133.102 32.844C131.895 32.844 131.079 32.351 130.977 31.195H129.124C129.226 33.201 130.586 34.255 133.068 34.255C135.414 34.255 136.893 33.133 136.893 31.365C136.893 29.427 135.023 29.036 133.493 28.679C132.082 28.356 131.249 28.288 131.249 27.404C131.249 26.758 131.827 26.384 132.813 26.384C133.85 26.384 134.581 26.707 134.717 27.778H136.57ZM145.385 27.778C145.385 25.789 143.719 24.973 141.713 24.973C139.469 24.973 138.126 25.959 138.126 27.625C138.126 29.512 139.707 29.767 141.713 30.26C142.818 30.532 143.804 30.685 143.804 31.569C143.804 32.351 143.056 32.844 141.917 32.844C140.71 32.844 139.894 32.351 139.792 31.195H137.939C138.041 33.201 139.401 34.255 141.883 34.255C144.229 34.255 145.708 33.133 145.708 31.365C145.708 29.427 143.838 29.036 142.308 28.679C140.897 28.356 140.064 28.288 140.064 27.404C140.064 26.758 140.642 26.384 141.628 26.384C142.665 26.384 143.396 26.707 143.532 27.778H145.385ZM149.237 21.845H147.299V23.749H149.237V21.845ZM149.237 25.228H147.299V34H149.237V25.228ZM155.411 24.973C152.691 24.973 150.94 26.792 150.94 29.614C150.94 32.47 152.674 34.272 155.411 34.272C158.097 34.272 159.797 32.47 159.797 29.614C159.797 26.775 158.097 24.973 155.411 24.973ZM155.377 26.503C156.907 26.503 157.842 27.676 157.842 29.597C157.842 31.569 156.924 32.759 155.394 32.759C153.83 32.759 152.895 31.586 152.895 29.614C152.895 27.693 153.847 26.503 155.377 26.503ZM163.278 25.228H161.442V34H163.38V29.274C163.38 27.251 164.349 26.605 165.522 26.605C167.069 26.605 167.222 27.693 167.222 28.9V34H169.16V28.152C169.16 26.163 168.208 24.99 166.185 24.99C164.876 24.99 164.009 25.466 163.278 26.52V25.228Z"
        fill="#383838" />
  <circle cx="199"
          cy="30"
          r="9"
          fill="white"
          stroke="#1B8FFB"
          stroke-width="2" />
  <rect x="1"
        y="1"
        width="198"
        height="58"
        rx="9"
        stroke="#1B8FFB"
        stroke-width="2" />
  <rect x="1"
        y="79"
        width="198"
        height="58"
        rx="9"
        fill="white" />
  <path d="M28.434 99.896H26.292V112H28.434V99.896ZM32.6044 103.228H30.7684V112H32.7064V107.274C32.7064 105.251 33.6754 104.605 34.8484 104.605C36.3954 104.605 36.5484 105.693 36.5484 106.9V112H38.4864V106.152C38.4864 104.163 37.5344 102.99 35.5114 102.99C34.2024 102.99 33.3354 103.466 32.6044 104.52V103.228ZM44.7972 103.228H43.0292V100.593H41.0912V103.228H39.6292V104.639H41.0912V108.821C41.0912 110.81 40.9382 112.085 43.4882 112.085C43.9812 112.085 44.2192 112.085 44.7972 112.017V110.487C44.5082 110.521 44.3042 110.521 44.0322 110.521C43.0122 110.521 43.0292 110.096 43.0292 109.263V104.639H44.7972V103.228ZM54.0283 109.263H52.1753C51.7843 110.385 51.1553 110.861 50.0843 110.861C48.5883 110.861 47.7213 109.858 47.6703 108.09H54.1473V107.886C54.1473 104.86 52.5493 102.973 49.9823 102.973C47.5173 102.973 45.7323 104.962 45.7323 107.716C45.7323 110.334 47.3473 112.289 50.0503 112.289C52.0223 112.289 53.5863 111.184 54.0283 109.263ZM52.2093 106.798H47.7043C47.8913 105.251 48.6903 104.418 49.9653 104.418C51.2403 104.418 52.0903 105.319 52.2093 106.798ZM60.5846 103.058C60.3976 103.041 60.3296 103.024 60.2106 103.024C58.7996 103.024 57.8476 103.772 57.2696 104.979V103.228H55.4506V112H57.3716V108.141C57.3716 106.305 57.9836 104.86 59.9046 104.86C60.1086 104.86 60.2446 104.877 60.5846 104.911V103.058ZM61.5121 105.931H63.3481C63.5011 104.792 64.0451 104.367 65.3031 104.367C66.5271 104.367 67.1051 104.792 67.1051 105.693C67.1051 106.016 67.0711 106.22 66.9861 106.322C66.7991 106.577 66.4081 106.662 65.0651 106.832C63.3141 107.053 61.1381 107.274 61.1381 109.603C61.1381 111.218 62.2771 112.221 64.0961 112.221C65.2521 112.221 66.3741 111.932 67.1731 111.167C67.3091 111.932 67.8531 112.221 68.6011 112.221C68.9751 112.221 69.2471 112.187 69.8591 112.034V110.674C69.6211 110.708 69.5531 110.708 69.4171 110.708C69.0601 110.708 68.9581 110.572 68.9581 110.062V105.608C68.9581 103.721 67.4281 102.956 65.3541 102.956C63.2121 102.956 61.7331 103.772 61.5121 105.931ZM67.0881 107.597V108.634C67.0881 109.161 67.1051 109.739 66.6971 110.147C66.2551 110.589 65.5071 110.844 64.7081 110.844C63.7051 110.844 63.1271 110.368 63.1271 109.535C63.1271 108.379 64.1471 108.209 65.0481 108.073C65.7451 107.971 66.4591 107.954 67.0881 107.597ZM78.9994 108.685H77.0954C76.8914 109.977 76.1264 110.691 74.9704 110.691C73.4914 110.691 72.6244 109.535 72.6244 107.597C72.6244 105.642 73.5424 104.452 75.0384 104.452C76.0924 104.452 76.7894 105.064 77.0104 106.169H78.9314C78.7104 104.146 77.2654 102.956 75.0214 102.956C72.3524 102.956 70.6524 104.809 70.6524 107.699C70.6524 110.351 72.3014 112.221 74.9704 112.221C77.1634 112.221 78.7274 110.844 78.9994 108.685ZM84.7737 103.228H83.0057V100.593H81.0677V103.228H79.6057V104.639H81.0677V108.821C81.0677 110.81 80.9147 112.085 83.4647 112.085C83.9577 112.085 84.1957 112.085 84.7737 112.017V110.487C84.4847 110.521 84.2807 110.521 84.0087 110.521C82.9887 110.521 83.0057 110.096 83.0057 109.263V104.639H84.7737V103.228ZM88.1399 99.845H86.2019V101.749H88.1399V99.845ZM88.1399 103.228H86.2019V112H88.1399V103.228ZM89.3674 103.228L92.5634 112.017H94.7394L97.8844 103.228H95.8784L93.7194 109.977L91.4754 103.228H89.3674ZM106.921 109.263H105.068C104.677 110.385 104.048 110.861 102.977 110.861C101.481 110.861 100.614 109.858 100.563 108.09H107.04V107.886C107.04 104.86 105.442 102.973 102.875 102.973C100.41 102.973 98.6249 104.962 98.6249 107.716C98.6249 110.334 100.24 112.289 102.943 112.289C104.915 112.289 106.479 111.184 106.921 109.263ZM105.102 106.798H100.597C100.784 105.251 101.583 104.418 102.858 104.418C104.133 104.418 104.983 105.319 105.102 106.798ZM120.198 105.778C120.198 103.789 118.532 102.973 116.526 102.973C114.282 102.973 112.939 103.959 112.939 105.625C112.939 107.512 114.52 107.767 116.526 108.26C117.631 108.532 118.617 108.685 118.617 109.569C118.617 110.351 117.869 110.844 116.73 110.844C115.523 110.844 114.707 110.351 114.605 109.195H112.752C112.854 111.201 114.214 112.255 116.696 112.255C119.042 112.255 120.521 111.133 120.521 109.365C120.521 107.427 118.651 107.036 117.121 106.679C115.71 106.356 114.877 106.288 114.877 105.404C114.877 104.758 115.455 104.384 116.441 104.384C117.478 104.384 118.209 104.707 118.345 105.778H120.198ZM129.914 109.263H128.061C127.67 110.385 127.041 110.861 125.97 110.861C124.474 110.861 123.607 109.858 123.556 108.09H130.033V107.886C130.033 104.86 128.435 102.973 125.868 102.973C123.403 102.973 121.618 104.962 121.618 107.716C121.618 110.334 123.233 112.289 125.936 112.289C127.908 112.289 129.472 111.184 129.914 109.263ZM128.095 106.798H123.59C123.777 105.251 124.576 104.418 125.851 104.418C127.126 104.418 127.976 105.319 128.095 106.798ZM133.359 103.228H131.523V112H133.461V106.951C133.461 105.591 134.107 104.622 135.467 104.622C136.759 104.622 136.912 105.455 136.912 106.509V112H138.85V106.849C138.85 105.472 139.496 104.622 140.771 104.622C142.114 104.622 142.335 105.54 142.335 106.611V112H144.273V105.778C144.273 103.976 142.998 102.99 141.4 102.99C140.176 102.99 139.241 103.517 138.561 104.486C138.153 103.517 137.252 102.99 136.113 102.99C134.889 102.99 134.056 103.517 133.359 104.469V103.228ZM148.287 99.845H146.349V101.749H148.287V99.845ZM148.287 103.228H146.349V112H148.287V103.228ZM152.252 103.228H150.416V112H152.354V107.274C152.354 105.251 153.323 104.605 154.496 104.605C156.043 104.605 156.196 105.693 156.196 106.9V112H158.134V106.152C158.134 104.163 157.182 102.99 155.159 102.99C153.85 102.99 152.983 103.466 152.252 104.52V103.228ZM160.076 105.931H161.912C162.065 104.792 162.609 104.367 163.867 104.367C165.091 104.367 165.669 104.792 165.669 105.693C165.669 106.016 165.635 106.22 165.55 106.322C165.363 106.577 164.972 106.662 163.629 106.832C161.878 107.053 159.702 107.274 159.702 109.603C159.702 111.218 160.841 112.221 162.66 112.221C163.816 112.221 164.938 111.932 165.737 111.167C165.873 111.932 166.417 112.221 167.165 112.221C167.539 112.221 167.811 112.187 168.423 112.034V110.674C168.185 110.708 168.117 110.708 167.981 110.708C167.624 110.708 167.522 110.572 167.522 110.062V105.608C167.522 103.721 165.992 102.956 163.918 102.956C161.776 102.956 160.297 103.772 160.076 105.931ZM165.652 107.597V108.634C165.652 109.161 165.669 109.739 165.261 110.147C164.819 110.589 164.071 110.844 163.272 110.844C162.269 110.844 161.691 110.368 161.691 109.535C161.691 108.379 162.711 108.209 163.612 108.073C164.309 107.971 165.023 107.954 165.652 107.597ZM174.571 103.058C174.384 103.041 174.316 103.024 174.197 103.024C172.786 103.024 171.834 103.772 171.256 104.979V103.228H169.437V112H171.358V108.141C171.358 106.305 171.97 104.86 173.891 104.86C174.095 104.86 174.231 104.877 174.571 104.911V103.058Z"
        fill="#383838" />
  <rect x="1"
        y="79"
        width="198"
        height="58"
        rx="9"
        stroke="#CCCCCC"
        stroke-width="2" />
  <rect x="1"
        y="157"
        width="198"
        height="58"
        rx="9"
        fill="white" />
  <path d="M49.407 177.896H46.721L41.366 183.387V177.896H39.258V190H41.366V185.937L43.1 184.203L47.078 190H49.713L44.562 182.724L49.407 177.896ZM58.5117 187.263H56.6587C56.2677 188.385 55.6387 188.861 54.5677 188.861C53.0717 188.861 52.2047 187.858 52.1537 186.09H58.6307V185.886C58.6307 182.86 57.0327 180.973 54.4657 180.973C52.0007 180.973 50.2157 182.962 50.2157 185.716C50.2157 188.334 51.8307 190.289 54.5337 190.289C56.5057 190.289 58.0697 189.184 58.5117 187.263ZM56.6927 184.798H52.1877C52.3747 183.251 53.1737 182.418 54.4487 182.418C55.7237 182.418 56.5737 183.319 56.6927 184.798ZM67.839 181.228H65.816L63.606 187.688L61.26 181.228H59.135L62.501 189.745C62.246 190.51 61.991 191.734 61.005 191.734C60.767 191.734 60.512 191.717 59.985 191.615V193.247C60.648 193.332 60.92 193.349 61.328 193.349C63.487 193.349 63.963 191.513 64.592 189.83L67.839 181.228ZM70.7724 181.228H68.9364V190H70.8744V185.274C70.8744 183.251 71.8434 182.605 73.0164 182.605C74.5634 182.605 74.7164 183.693 74.7164 184.9V190H76.6544V184.152C76.6544 182.163 75.7024 180.99 73.6794 180.99C72.3704 180.99 71.5034 181.466 70.7724 182.52V181.228ZM82.7441 180.973C80.0241 180.973 78.2731 182.792 78.2731 185.614C78.2731 188.47 80.0071 190.272 82.7441 190.272C85.4301 190.272 87.1301 188.47 87.1301 185.614C87.1301 182.775 85.4301 180.973 82.7441 180.973ZM82.7101 182.503C84.2401 182.503 85.1751 183.676 85.1751 185.597C85.1751 187.569 84.2571 188.759 82.7271 188.759C81.1631 188.759 80.2281 187.586 80.2281 185.614C80.2281 183.693 81.1801 182.503 82.7101 182.503ZM93.0423 181.228H91.2743V178.593H89.3363V181.228H87.8743V182.639H89.3363V186.821C89.3363 188.81 89.1833 190.085 91.7333 190.085C92.2263 190.085 92.4643 190.085 93.0423 190.017V188.487C92.7533 188.521 92.5493 188.521 92.2773 188.521C91.2573 188.521 91.2743 188.096 91.2743 187.263V182.639H93.0423V181.228ZM102.273 187.263H100.42C100.029 188.385 99.4004 188.861 98.3294 188.861C96.8334 188.861 95.9664 187.858 95.9154 186.09H102.392V185.886C102.392 182.86 100.794 180.973 98.2274 180.973C95.7624 180.973 93.9774 182.962 93.9774 185.716C93.9774 188.334 95.5924 190.289 98.2954 190.289C100.267 190.289 101.831 189.184 102.273 187.263ZM100.454 184.798H95.9494C96.1364 183.251 96.9354 182.418 98.2104 182.418C99.4854 182.418 100.335 183.319 100.454 184.798ZM110.586 177.896H108.665V190H110.586V177.896ZM120.552 187.263H118.699C118.308 188.385 117.679 188.861 116.608 188.861C115.112 188.861 114.245 187.858 114.194 186.09H120.671V185.886C120.671 182.86 119.073 180.973 116.506 180.973C114.041 180.973 112.256 182.962 112.256 185.716C112.256 188.334 113.871 190.289 116.574 190.289C118.546 190.289 120.11 189.184 120.552 187.263ZM118.733 184.798H114.228C114.415 183.251 115.214 182.418 116.489 182.418C117.764 182.418 118.614 183.319 118.733 184.798ZM130.1 186.685H128.196C127.992 187.977 127.227 188.691 126.071 188.691C124.592 188.691 123.725 187.535 123.725 185.597C123.725 183.642 124.643 182.452 126.139 182.452C127.193 182.452 127.89 183.064 128.111 184.169H130.032C129.811 182.146 128.366 180.956 126.122 180.956C123.453 180.956 121.753 182.809 121.753 185.699C121.753 188.351 123.402 190.221 126.071 190.221C128.264 190.221 129.828 188.844 130.1 186.685ZM135.874 181.228H134.106V178.593H132.168V181.228H130.706V182.639H132.168V186.821C132.168 188.81 132.015 190.085 134.565 190.085C135.058 190.085 135.296 190.085 135.874 190.017V188.487C135.585 188.521 135.381 188.521 135.109 188.521C134.089 188.521 134.106 188.096 134.106 187.263V182.639H135.874V181.228ZM144.952 181.228H143.014V185.869C143.014 187.314 142.453 188.606 140.906 188.606C139.257 188.606 139.189 187.518 139.189 186.243V181.228H137.251V187.042C137.251 189.099 138.305 190.238 140.243 190.238C141.467 190.238 142.385 189.745 143.133 188.691V190H144.952V181.228ZM151.977 181.058C151.79 181.041 151.722 181.024 151.603 181.024C150.192 181.024 149.24 181.772 148.662 182.979V181.228H146.843V190H148.764V186.141C148.764 184.305 149.376 182.86 151.297 182.86C151.501 182.86 151.637 182.877 151.977 182.911V181.058ZM160.545 187.263H158.692C158.301 188.385 157.672 188.861 156.601 188.861C155.105 188.861 154.238 187.858 154.187 186.09H160.664V185.886C160.664 182.86 159.066 180.973 156.499 180.973C154.034 180.973 152.249 182.962 152.249 185.716C152.249 188.334 153.864 190.289 156.567 190.289C158.539 190.289 160.103 189.184 160.545 187.263ZM158.726 184.798H154.221C154.408 183.251 155.207 182.418 156.482 182.418C157.757 182.418 158.607 183.319 158.726 184.798Z"
        fill="#383838" />
  <rect x="1"
        y="157"
        width="198"
        height="58"
        rx="9"
        stroke="#CCCCCC"
        stroke-width="2" />
  <rect x="1"
        y="235"
        width="198"
        height="58"
        rx="9"
        fill="white" />
  <path d="M31.554 266.164H25.4V255.896H23.258V268H31.554V266.164ZM40.6357 265.263H38.7827C38.3917 266.385 37.7627 266.861 36.6917 266.861C35.1957 266.861 34.3287 265.858 34.2777 264.09H40.7547V263.886C40.7547 260.86 39.1567 258.973 36.5897 258.973C34.1247 258.973 32.3397 260.962 32.3397 263.716C32.3397 266.334 33.9547 268.289 36.6577 268.289C38.6297 268.289 40.1937 267.184 40.6357 265.263ZM38.8167 262.798H34.3117C34.4987 261.251 35.2977 260.418 36.5727 260.418C37.8477 260.418 38.6977 261.319 38.8167 262.798ZM42.143 261.931H43.979C44.132 260.792 44.676 260.367 45.934 260.367C47.158 260.367 47.736 260.792 47.736 261.693C47.736 262.016 47.702 262.22 47.617 262.322C47.43 262.577 47.039 262.662 45.696 262.832C43.945 263.053 41.769 263.274 41.769 265.603C41.769 267.218 42.908 268.221 44.727 268.221C45.883 268.221 47.005 267.932 47.804 267.167C47.94 267.932 48.484 268.221 49.232 268.221C49.606 268.221 49.878 268.187 50.49 268.034V266.674C50.252 266.708 50.184 266.708 50.048 266.708C49.691 266.708 49.589 266.572 49.589 266.062V261.608C49.589 259.721 48.059 258.956 45.985 258.956C43.843 258.956 42.364 259.772 42.143 261.931ZM47.719 263.597V264.634C47.719 265.161 47.736 265.739 47.328 266.147C46.886 266.589 46.138 266.844 45.339 266.844C44.336 266.844 43.758 266.368 43.758 265.535C43.758 264.379 44.778 264.209 45.679 264.073C46.376 263.971 47.09 263.954 47.719 263.597ZM56.6383 259.058C56.4513 259.041 56.3833 259.024 56.2643 259.024C54.8533 259.024 53.9013 259.772 53.3233 260.979V259.228H51.5043V268H53.4253V264.141C53.4253 262.305 54.0373 260.86 55.9583 260.86C56.1623 260.86 56.2983 260.877 56.6383 260.911V259.058ZM59.8027 259.228H57.9667V268H59.9047V263.274C59.9047 261.251 60.8737 260.605 62.0467 260.605C63.5937 260.605 63.7467 261.693 63.7467 262.9V268H65.6847V262.152C65.6847 260.163 64.7327 258.99 62.7097 258.99C61.4007 258.99 60.5337 259.466 59.8027 260.52V259.228ZM69.7004 255.845H67.7624V257.749H69.7004V255.845ZM69.7004 259.228H67.7624V268H69.7004V259.228ZM73.665 259.228H71.829V268H73.767V263.274C73.767 261.251 74.736 260.605 75.909 260.605C77.456 260.605 77.609 261.693 77.609 262.9V268H79.547V262.152C79.547 260.163 78.595 258.99 76.572 258.99C75.263 258.99 74.396 259.466 73.665 260.52V259.228ZM89.6147 259.228H87.8127V260.452C87.1157 259.466 86.3507 258.99 85.0757 258.99C82.7127 258.99 81.1657 260.792 81.1657 263.546C81.1657 266.215 82.6447 267.915 84.9737 267.915C86.2317 267.915 87.0987 267.473 87.7617 266.436V267.473C87.7617 269.275 87.0647 270.057 85.4497 270.057C84.2257 270.057 83.5967 269.649 83.4097 268.748H81.4717C81.6927 270.533 83.0187 271.417 85.3987 271.417C88.5607 271.417 89.6147 269.87 89.6147 266.98V259.228ZM85.4157 260.554C86.8777 260.554 87.7617 261.625 87.7617 263.41C87.7617 265.246 86.8607 266.402 85.4157 266.402C84.0047 266.402 83.0867 265.28 83.0867 263.512C83.0867 261.659 83.9537 260.554 85.4157 260.554ZM104.236 265.263H102.383C101.992 266.385 101.363 266.861 100.292 266.861C98.7963 266.861 97.9293 265.858 97.8783 264.09H104.355V263.886C104.355 260.86 102.757 258.973 100.19 258.973C97.7253 258.973 95.9403 260.962 95.9403 263.716C95.9403 266.334 97.5553 268.289 100.258 268.289C102.23 268.289 103.794 267.184 104.236 265.263ZM102.417 262.798H97.9123C98.0993 261.251 98.8983 260.418 100.173 260.418C101.448 260.418 102.298 261.319 102.417 262.798ZM108.175 263.393L104.86 268H107.138L109.297 264.77L111.524 268H113.853L110.504 263.291L113.479 259.228H111.235L109.314 261.931L107.478 259.228H105.132L108.175 263.393ZM116.812 259.228H114.993V271.247H116.914V266.844C117.611 267.813 118.58 268.221 119.77 268.221C122.133 268.221 123.663 266.419 123.663 263.648C123.663 260.809 122.099 258.973 119.668 258.973C118.529 258.973 117.424 259.415 116.812 260.401V259.228ZM119.277 260.537C120.773 260.537 121.708 261.744 121.708 263.648C121.708 265.518 120.79 266.674 119.311 266.674C117.764 266.674 116.846 265.518 116.846 263.614C116.846 261.693 117.747 260.537 119.277 260.537ZM133.206 265.263H131.353C130.962 266.385 130.333 266.861 129.262 266.861C127.766 266.861 126.899 265.858 126.848 264.09H133.325V263.886C133.325 260.86 131.727 258.973 129.16 258.973C126.695 258.973 124.91 260.962 124.91 263.716C124.91 266.334 126.525 268.289 129.228 268.289C131.2 268.289 132.764 267.184 133.206 265.263ZM131.387 262.798H126.882C127.069 261.251 127.868 260.418 129.143 260.418C130.418 260.418 131.268 261.319 131.387 262.798ZM143.111 255.896H141.207V260.367C140.595 259.466 139.66 258.99 138.419 258.99C135.988 258.99 134.441 260.775 134.441 263.597C134.441 266.436 136.005 268.238 138.487 268.238C139.796 268.238 140.748 267.745 141.292 266.793V268H143.111V255.896ZM138.776 260.554C140.34 260.554 141.258 261.676 141.258 263.597C141.258 265.535 140.357 266.674 138.844 266.674C137.331 266.674 136.396 265.484 136.396 263.563C136.396 261.693 137.314 260.554 138.776 260.554ZM147.18 255.845H145.242V257.749H147.18V255.845ZM147.18 259.228H145.242V268H147.18V259.228ZM153.575 259.228H151.807V256.593H149.869V259.228H148.407V260.639H149.869V264.821C149.869 266.81 149.716 268.085 152.266 268.085C152.759 268.085 152.997 268.085 153.575 268.017V266.487C153.286 266.521 153.082 266.521 152.81 266.521C151.79 266.521 151.807 266.096 151.807 265.263V260.639H153.575V259.228ZM156.942 255.845H155.004V257.749H156.942V255.845ZM156.942 259.228H155.004V268H156.942V259.228ZM163.116 258.973C160.396 258.973 158.645 260.792 158.645 263.614C158.645 266.47 160.379 268.272 163.116 268.272C165.802 268.272 167.502 266.47 167.502 263.614C167.502 260.775 165.802 258.973 163.116 258.973ZM163.082 260.503C164.612 260.503 165.547 261.676 165.547 263.597C165.547 265.569 164.629 266.759 163.099 266.759C161.535 266.759 160.6 265.586 160.6 263.614C160.6 261.693 161.552 260.503 163.082 260.503ZM170.983 259.228H169.147V268H171.085V263.274C171.085 261.251 172.054 260.605 173.227 260.605C174.774 260.605 174.927 261.693 174.927 262.9V268H176.865V262.152C176.865 260.163 175.913 258.99 173.89 258.99C172.581 258.99 171.714 259.466 170.983 260.52V259.228Z"
        fill="#383838" />
  <rect x="1"
        y="235"
        width="198"
        height="58"
        rx="9"
        stroke="#CCCCCC"
        stroke-width="2" />
  <rect x="1"
        y="313"
        width="198"
        height="58"
        rx="9"
        fill="white" />
  <path d="M45.121 345.966L43.54 344.606C44.628 343.569 45.257 341.869 45.257 339.931C45.257 336.225 42.877 333.641 39.477 333.641C36.043 333.641 33.646 336.242 33.646 339.982C33.646 343.739 35.992 346.289 39.409 346.289C40.497 346.289 41.551 346.051 42.282 345.592L44.084 347.122L45.121 345.966ZM42.044 343.297L40.616 342.056L39.596 343.212L40.837 344.266C40.378 344.47 40.004 344.555 39.477 344.555C37.233 344.555 35.788 342.753 35.788 339.948C35.788 337.211 37.233 335.426 39.443 335.426C41.687 335.426 43.132 337.194 43.132 339.948C43.132 341.274 42.86 342.26 42.044 343.297ZM52.716 333.879H50.455L45.78 346H47.973L49.163 342.787H53.957L55.113 346H57.391L52.716 333.879ZM53.396 341.189H49.707L51.594 336.089L53.396 341.189ZM64.8593 337.228H63.0403V349.247H64.9613V344.844C65.6583 345.813 66.6273 346.221 67.8173 346.221C70.1803 346.221 71.7103 344.419 71.7103 341.648C71.7103 338.809 70.1463 336.973 67.7153 336.973C66.5763 336.973 65.4713 337.415 64.8593 338.401V337.228ZM67.3243 338.537C68.8203 338.537 69.7553 339.744 69.7553 341.648C69.7553 343.518 68.8373 344.674 67.3583 344.674C65.8113 344.674 64.8933 343.518 64.8933 341.614C64.8933 339.693 65.7943 338.537 67.3243 338.537ZM73.3139 339.931H75.1499C75.3029 338.792 75.8469 338.367 77.1049 338.367C78.3289 338.367 78.9069 338.792 78.9069 339.693C78.9069 340.016 78.8729 340.22 78.7879 340.322C78.6009 340.577 78.2099 340.662 76.8669 340.832C75.1159 341.053 72.9399 341.274 72.9399 343.603C72.9399 345.218 74.0789 346.221 75.8979 346.221C77.0539 346.221 78.1759 345.932 78.9749 345.167C79.1109 345.932 79.6549 346.221 80.4029 346.221C80.7769 346.221 81.0489 346.187 81.6609 346.034V344.674C81.4229 344.708 81.3549 344.708 81.2189 344.708C80.8619 344.708 80.7599 344.572 80.7599 344.062V339.608C80.7599 337.721 79.2299 336.956 77.1559 336.956C75.0139 336.956 73.5349 337.772 73.3139 339.931ZM78.8899 341.597V342.634C78.8899 343.161 78.9069 343.739 78.4989 344.147C78.0569 344.589 77.3089 344.844 76.5099 344.844C75.5069 344.844 74.9289 344.368 74.9289 343.535C74.9289 342.379 75.9489 342.209 76.8499 342.073C77.5469 341.971 78.2609 341.954 78.8899 341.597ZM84.6982 337.228H82.8622V346H84.8002V341.274C84.8002 339.251 85.7692 338.605 86.9422 338.605C88.4892 338.605 88.6422 339.693 88.6422 340.9V346H90.5802V340.152C90.5802 338.163 89.6282 336.99 87.6052 336.99C86.2962 336.99 85.4292 337.466 84.6982 338.52V337.228ZM100.461 343.263H98.6079C98.2169 344.385 97.5879 344.861 96.5169 344.861C95.0209 344.861 94.1539 343.858 94.1029 342.09H100.58V341.886C100.58 338.86 98.9819 336.973 96.4149 336.973C93.9499 336.973 92.1649 338.962 92.1649 341.716C92.1649 344.334 93.7799 346.289 96.4829 346.289C98.4549 346.289 100.019 345.184 100.461 343.263ZM98.6419 340.798H94.1369C94.3239 339.251 95.1229 338.418 96.3979 338.418C97.6729 338.418 98.5229 339.319 98.6419 340.798ZM104.042 333.896H102.121V346H104.042V333.896ZM119.725 340.22H118.025C117.957 340.781 117.838 341.359 117.6 341.869L115.747 339.574C116.954 338.928 117.889 337.925 117.889 336.48C117.889 334.916 116.665 333.794 114.965 333.794C113.214 333.794 111.973 334.916 111.973 336.48C111.973 337.33 112.33 338.112 113.18 339.149C111.684 339.846 110.426 341.07 110.426 342.753C110.426 344.98 112.143 346.255 114.217 346.255C115.407 346.255 116.631 345.813 117.617 344.64L118.739 346H121.119L118.739 343.195C119.317 342.379 119.64 341.206 119.725 340.22ZM114.778 338.401L114.71 338.316C114.302 337.806 113.707 337.092 113.707 336.429C113.707 335.749 114.251 335.239 114.965 335.239C115.679 335.239 116.189 335.783 116.189 336.531C116.189 337.245 115.781 337.806 114.778 338.401ZM114.183 340.39L116.58 343.331C116.019 344.079 115.322 344.64 114.319 344.64C113.214 344.64 112.33 343.773 112.33 342.702C112.33 341.546 113.299 340.9 114.183 340.39ZM130.703 336.973C127.983 336.973 126.232 338.792 126.232 341.614C126.232 344.47 127.966 346.272 130.703 346.272C133.389 346.272 135.089 344.47 135.089 341.614C135.089 338.775 133.389 336.973 130.703 336.973ZM130.669 338.503C132.199 338.503 133.134 339.676 133.134 341.597C133.134 343.569 132.216 344.759 130.686 344.759C129.122 344.759 128.187 343.586 128.187 341.614C128.187 339.693 129.139 338.503 130.669 338.503ZM141.001 337.228H139.233V334.593H137.295V337.228H135.833V338.639H137.295V342.821C137.295 344.81 137.142 346.085 139.692 346.085C140.185 346.085 140.423 346.085 141.001 346.017V344.487C140.712 344.521 140.508 344.521 140.236 344.521C139.216 344.521 139.233 344.096 139.233 343.263V338.639H141.001V337.228ZM144.316 333.896H142.395V346H144.316V341.291C144.316 339.812 144.877 338.622 146.458 338.622C147.903 338.622 148.158 339.506 148.158 340.679V346H150.113V340.05C150.113 338.027 148.957 337.007 147.087 337.007C145.88 337.007 144.945 337.5 144.316 338.435V333.896ZM159.994 343.263H158.141C157.75 344.385 157.121 344.861 156.05 344.861C154.554 344.861 153.687 343.858 153.636 342.09H160.113V341.886C160.113 338.86 158.515 336.973 155.948 336.973C153.483 336.973 151.698 338.962 151.698 341.716C151.698 344.334 153.313 346.289 156.016 346.289C157.988 346.289 159.552 345.184 159.994 343.263ZM158.175 340.798H153.67C153.857 339.251 154.656 338.418 155.931 338.418C157.206 338.418 158.056 339.319 158.175 340.798ZM166.55 337.058C166.363 337.041 166.295 337.024 166.176 337.024C164.765 337.024 163.813 337.772 163.235 338.979V337.228H161.416V346H163.337V342.141C163.337 340.305 163.949 338.86 165.87 338.86C166.074 338.86 166.21 338.877 166.55 338.911V337.058Z"
        fill="#383838" />
  <rect x="1"
        y="313"
        width="198"
        height="58"
        rx="9"
        stroke="#CCCCCC"
        stroke-width="2" />
  <rect x="321"
        y="1"
        width="198"
        height="58"
        rx="9"
        fill="white" />
  <path d="M378.656 21.896H370.275V34H372.417V28.713H377.891V26.996H372.417V23.698H378.656V21.896ZM387.798 25.228H385.86V29.869C385.86 31.314 385.299 32.606 383.752 32.606C382.103 32.606 382.035 31.518 382.035 30.243V25.228H380.097V31.042C380.097 33.099 381.151 34.238 383.089 34.238C384.313 34.238 385.231 33.745 385.979 32.691V34H387.798V25.228ZM391.848 21.896H389.927V34H391.848V21.896ZM395.948 21.896H394.027V34H395.948V21.896ZM402.837 28.424H397.856V30.226H402.837V28.424ZM408.951 25.228H407.183V22.593H405.245V25.228H403.783V26.639H405.245V30.821C405.245 32.81 405.092 34.085 407.642 34.085C408.135 34.085 408.373 34.085 408.951 34.017V32.487C408.662 32.521 408.458 32.521 408.186 32.521C407.166 32.521 407.183 32.096 407.183 31.263V26.639H408.951V25.228ZM412.318 21.845H410.38V23.749H412.318V21.845ZM412.318 25.228H410.38V34H412.318V25.228ZM416.282 25.228H414.446V34H416.384V28.951C416.384 27.591 417.03 26.622 418.39 26.622C419.682 26.622 419.835 27.455 419.835 28.509V34H421.773V28.849C421.773 27.472 422.419 26.622 423.694 26.622C425.037 26.622 425.258 27.54 425.258 28.611V34H427.196V27.778C427.196 25.976 425.921 24.99 424.323 24.99C423.099 24.99 422.164 25.517 421.484 26.486C421.076 25.517 420.175 24.99 419.036 24.99C417.812 24.99 416.979 25.517 416.282 26.469V25.228ZM437.075 31.263H435.222C434.831 32.385 434.202 32.861 433.131 32.861C431.635 32.861 430.768 31.858 430.717 30.09H437.194V29.886C437.194 26.86 435.596 24.973 433.029 24.973C430.564 24.973 428.779 26.962 428.779 29.716C428.779 32.334 430.394 34.289 433.097 34.289C435.069 34.289 436.633 33.184 437.075 31.263ZM435.256 28.798H430.751C430.938 27.251 431.737 26.418 433.012 26.418C434.287 26.418 435.137 27.319 435.256 28.798ZM448.363 25.058C448.176 25.041 448.108 25.024 447.989 25.024C446.578 25.024 445.626 25.772 445.048 26.979V25.228H443.229V34H445.15V30.141C445.15 28.305 445.762 26.86 447.683 26.86C447.887 26.86 448.023 26.877 448.363 26.911V25.058ZM453.14 24.973C450.42 24.973 448.669 26.792 448.669 29.614C448.669 32.47 450.403 34.272 453.14 34.272C455.826 34.272 457.526 32.47 457.526 29.614C457.526 26.775 455.826 24.973 453.14 24.973ZM453.106 26.503C454.636 26.503 455.571 27.676 455.571 29.597C455.571 31.569 454.653 32.759 453.123 32.759C451.559 32.759 450.624 31.586 450.624 29.614C450.624 27.693 451.576 26.503 453.106 26.503ZM461.143 21.896H459.222V34H461.143V21.896ZM471.108 31.263H469.255C468.864 32.385 468.235 32.861 467.164 32.861C465.668 32.861 464.801 31.858 464.75 30.09H471.227V29.886C471.227 26.86 469.629 24.973 467.062 24.973C464.597 24.973 462.812 26.962 462.812 29.716C462.812 32.334 464.427 34.289 467.13 34.289C469.102 34.289 470.666 33.184 471.108 31.263ZM469.289 28.798H464.784C464.971 27.251 465.77 26.418 467.045 26.418C468.32 26.418 469.17 27.319 469.289 28.798Z"
        fill="#383838" />
  <rect x="321"
        y="1"
        width="198"
        height="58"
        rx="9"
        stroke="#CCCCCC"
        stroke-width="2" />
  <rect x="321"
        y="79"
        width="198"
        height="58"
        rx="9"
        fill="white" />
  <path d="M337.554 110.164H331.4V99.896H329.258V112H337.554V110.164ZM342.845 102.973C340.125 102.973 338.374 104.792 338.374 107.614C338.374 110.47 340.108 112.272 342.845 112.272C345.531 112.272 347.231 110.47 347.231 107.614C347.231 104.775 345.531 102.973 342.845 102.973ZM342.811 104.503C344.341 104.503 345.276 105.676 345.276 107.597C345.276 109.569 344.358 110.759 342.828 110.759C341.264 110.759 340.329 109.586 340.329 107.614C340.329 105.693 341.281 104.503 342.811 104.503ZM350.712 103.228H348.876V112H350.814V107.274C350.814 105.251 351.783 104.605 352.956 104.605C354.503 104.605 354.656 105.693 354.656 106.9V112H356.594V106.152C356.594 104.163 355.642 102.99 353.619 102.99C352.31 102.99 351.443 103.466 350.712 104.52V103.228ZM366.662 103.228H364.86V104.452C364.163 103.466 363.398 102.99 362.123 102.99C359.76 102.99 358.213 104.792 358.213 107.546C358.213 110.215 359.692 111.915 362.021 111.915C363.279 111.915 364.146 111.473 364.809 110.436V111.473C364.809 113.275 364.112 114.057 362.497 114.057C361.273 114.057 360.644 113.649 360.457 112.748H358.519C358.74 114.533 360.066 115.417 362.446 115.417C365.608 115.417 366.662 113.87 366.662 110.98V103.228ZM362.463 104.554C363.925 104.554 364.809 105.625 364.809 107.41C364.809 109.246 363.908 110.402 362.463 110.402C361.052 110.402 360.134 109.28 360.134 107.512C360.134 105.659 361.001 104.554 362.463 104.554ZM373.475 106.424H368.494V108.226H373.475V106.424ZM379.589 103.228H377.821V100.593H375.883V103.228H374.421V104.639H375.883V108.821C375.883 110.81 375.73 112.085 378.28 112.085C378.773 112.085 379.011 112.085 379.589 112.017V110.487C379.3 110.521 379.096 110.521 378.824 110.521C377.804 110.521 377.821 110.096 377.821 109.263V104.639H379.589V103.228ZM388.82 109.263H386.967C386.576 110.385 385.947 110.861 384.876 110.861C383.38 110.861 382.513 109.858 382.462 108.09H388.939V107.886C388.939 104.86 387.341 102.973 384.774 102.973C382.309 102.973 380.524 104.962 380.524 107.716C380.524 110.334 382.139 112.289 384.842 112.289C386.814 112.289 388.378 111.184 388.82 109.263ZM387.001 106.798H382.496C382.683 105.251 383.482 104.418 384.757 104.418C386.032 104.418 386.882 105.319 387.001 106.798ZM395.377 103.058C395.19 103.041 395.122 103.024 395.003 103.024C393.592 103.024 392.64 103.772 392.062 104.979V103.228H390.243V112H392.164V108.141C392.164 106.305 392.776 104.86 394.697 104.86C394.901 104.86 395.037 104.877 395.377 104.911V103.058ZM398.242 103.228H396.406V112H398.344V106.951C398.344 105.591 398.99 104.622 400.35 104.622C401.642 104.622 401.795 105.455 401.795 106.509V112H403.733V106.849C403.733 105.472 404.379 104.622 405.654 104.622C406.997 104.622 407.218 105.54 407.218 106.611V112H409.156V105.778C409.156 103.976 407.881 102.99 406.283 102.99C405.059 102.99 404.124 103.517 403.444 104.486C403.036 103.517 402.135 102.99 400.996 102.99C399.772 102.99 398.939 103.517 398.242 104.469V103.228ZM423.767 109.263H421.914C421.523 110.385 420.894 110.861 419.823 110.861C418.327 110.861 417.46 109.858 417.409 108.09H423.886V107.886C423.886 104.86 422.288 102.973 419.721 102.973C417.256 102.973 415.471 104.962 415.471 107.716C415.471 110.334 417.086 112.289 419.789 112.289C421.761 112.289 423.325 111.184 423.767 109.263ZM421.948 106.798H417.443C417.63 105.251 418.429 104.418 419.704 104.418C420.979 104.418 421.829 105.319 421.948 106.798ZM427.212 103.228H425.376V112H427.314V107.274C427.314 105.251 428.283 104.605 429.456 104.605C431.003 104.605 431.156 105.693 431.156 106.9V112H433.094V106.152C433.094 104.163 432.142 102.99 430.119 102.99C428.81 102.99 427.943 103.466 427.212 104.52V103.228ZM443.162 103.228H441.36V104.452C440.663 103.466 439.898 102.99 438.623 102.99C436.26 102.99 434.713 104.792 434.713 107.546C434.713 110.215 436.192 111.915 438.521 111.915C439.779 111.915 440.646 111.473 441.309 110.436V111.473C441.309 113.275 440.612 114.057 438.997 114.057C437.773 114.057 437.144 113.649 436.957 112.748H435.019C435.24 114.533 436.566 115.417 438.946 115.417C442.108 115.417 443.162 113.87 443.162 110.98V103.228ZM438.963 104.554C440.425 104.554 441.309 105.625 441.309 107.41C441.309 109.246 440.408 110.402 438.963 110.402C437.552 110.402 436.634 109.28 436.634 107.512C436.634 105.659 437.501 104.554 438.963 104.554ZM445.113 105.931H446.949C447.102 104.792 447.646 104.367 448.904 104.367C450.128 104.367 450.706 104.792 450.706 105.693C450.706 106.016 450.672 106.22 450.587 106.322C450.4 106.577 450.009 106.662 448.666 106.832C446.915 107.053 444.739 107.274 444.739 109.603C444.739 111.218 445.878 112.221 447.697 112.221C448.853 112.221 449.975 111.932 450.774 111.167C450.91 111.932 451.454 112.221 452.202 112.221C452.576 112.221 452.848 112.187 453.46 112.034V110.674C453.222 110.708 453.154 110.708 453.018 110.708C452.661 110.708 452.559 110.572 452.559 110.062V105.608C452.559 103.721 451.029 102.956 448.955 102.956C446.813 102.956 445.334 103.772 445.113 105.931ZM450.689 107.597V108.634C450.689 109.161 450.706 109.739 450.298 110.147C449.856 110.589 449.108 110.844 448.309 110.844C447.306 110.844 446.728 110.368 446.728 109.535C446.728 108.379 447.748 108.209 448.649 108.073C449.346 107.971 450.06 107.954 450.689 107.597ZM462.685 103.228H460.883V104.452C460.186 103.466 459.421 102.99 458.146 102.99C455.783 102.99 454.236 104.792 454.236 107.546C454.236 110.215 455.715 111.915 458.044 111.915C459.302 111.915 460.169 111.473 460.832 110.436V111.473C460.832 113.275 460.135 114.057 458.52 114.057C457.296 114.057 456.667 113.649 456.48 112.748H454.542C454.763 114.533 456.089 115.417 458.469 115.417C461.631 115.417 462.685 113.87 462.685 110.98V103.228ZM458.486 104.554C459.948 104.554 460.832 105.625 460.832 107.41C460.832 109.246 459.931 110.402 458.486 110.402C457.075 110.402 456.157 109.28 456.157 107.512C456.157 105.659 457.024 104.554 458.486 104.554ZM472.575 109.263H470.722C470.331 110.385 469.702 110.861 468.631 110.861C467.135 110.861 466.268 109.858 466.217 108.09H472.694V107.886C472.694 104.86 471.096 102.973 468.529 102.973C466.064 102.973 464.279 104.962 464.279 107.716C464.279 110.334 465.894 112.289 468.597 112.289C470.569 112.289 472.133 111.184 472.575 109.263ZM470.756 106.798H466.251C466.438 105.251 467.237 104.418 468.512 104.418C469.787 104.418 470.637 105.319 470.756 106.798ZM476.02 103.228H474.184V112H476.122V106.951C476.122 105.591 476.768 104.622 478.128 104.622C479.42 104.622 479.573 105.455 479.573 106.509V112H481.511V106.849C481.511 105.472 482.157 104.622 483.432 104.622C484.775 104.622 484.996 105.54 484.996 106.611V112H486.934V105.778C486.934 103.976 485.659 102.99 484.061 102.99C482.837 102.99 481.902 103.517 481.222 104.486C480.814 103.517 479.913 102.99 478.774 102.99C477.55 102.99 476.717 103.517 476.02 104.469V103.228ZM496.813 109.263H494.96C494.569 110.385 493.94 110.861 492.869 110.861C491.373 110.861 490.506 109.858 490.455 108.09H496.932V107.886C496.932 104.86 495.334 102.973 492.767 102.973C490.302 102.973 488.517 104.962 488.517 107.716C488.517 110.334 490.132 112.289 492.835 112.289C494.807 112.289 496.371 111.184 496.813 109.263ZM494.994 106.798H490.489C490.676 105.251 491.475 104.418 492.75 104.418C494.025 104.418 494.875 105.319 494.994 106.798ZM500.259 103.228H498.423V112H500.361V107.274C500.361 105.251 501.33 104.605 502.503 104.605C504.05 104.605 504.203 105.693 504.203 106.9V112H506.141V106.152C506.141 104.163 505.189 102.99 503.166 102.99C501.857 102.99 500.99 103.466 500.259 104.52V103.228ZM512.451 103.228H510.683V100.593H508.745V103.228H507.283V104.639H508.745V108.821C508.745 110.81 508.592 112.085 511.142 112.085C511.635 112.085 511.873 112.085 512.451 112.017V110.487C512.162 110.521 511.958 110.521 511.686 110.521C510.666 110.521 510.683 110.096 510.683 109.263V104.639H512.451V103.228Z"
        fill="#383838" />
  <rect x="321"
        y="79"
        width="198"
        height="58"
        rx="9"
        stroke="#CCCCCC"
        stroke-width="2" />
  <rect x="321"
        y="157"
        width="198"
        height="58"
        rx="9"
        fill="white" />
  <path d="M360.855 177.896H357.897L354.633 187.365L351.25 177.896H348.275V190H350.281V180.667L353.732 190H355.466L358.832 180.667V190H360.855V177.896ZM370.828 181.228H368.89V185.869C368.89 187.314 368.329 188.606 366.782 188.606C365.133 188.606 365.065 187.518 365.065 186.243V181.228H363.127V187.042C363.127 189.099 364.181 190.238 366.119 190.238C367.343 190.238 368.261 189.745 369.009 188.691V190H370.828V181.228ZM374.878 177.896H372.957V190H374.878V177.896ZM381.274 181.228H379.506V178.593H377.568V181.228H376.106V182.639H377.568V186.821C377.568 188.81 377.415 190.085 379.965 190.085C380.458 190.085 380.696 190.085 381.274 190.017V188.487C380.985 188.521 380.781 188.521 380.509 188.521C379.489 188.521 379.506 188.096 379.506 187.263V182.639H381.274V181.228ZM384.64 177.845H382.702V179.749H384.64V177.845ZM384.64 181.228H382.702V190H384.64V181.228ZM391.528 184.424H386.547V186.226H391.528V184.424ZM401.672 177.896H399.768V182.367C399.156 181.466 398.221 180.99 396.98 180.99C394.549 180.99 393.002 182.775 393.002 185.597C393.002 188.436 394.566 190.238 397.048 190.238C398.357 190.238 399.309 189.745 399.853 188.793V190H401.672V177.896ZM397.337 182.554C398.901 182.554 399.819 183.676 399.819 185.597C399.819 187.535 398.918 188.674 397.405 188.674C395.892 188.674 394.957 187.484 394.957 185.563C394.957 183.693 395.875 182.554 397.337 182.554ZM403.666 183.931H405.502C405.655 182.792 406.199 182.367 407.457 182.367C408.681 182.367 409.259 182.792 409.259 183.693C409.259 184.016 409.225 184.22 409.14 184.322C408.953 184.577 408.562 184.662 407.219 184.832C405.468 185.053 403.292 185.274 403.292 187.603C403.292 189.218 404.431 190.221 406.25 190.221C407.406 190.221 408.528 189.932 409.327 189.167C409.463 189.932 410.007 190.221 410.755 190.221C411.129 190.221 411.401 190.187 412.013 190.034V188.674C411.775 188.708 411.707 188.708 411.571 188.708C411.214 188.708 411.112 188.572 411.112 188.062V183.608C411.112 181.721 409.582 180.956 407.508 180.956C405.366 180.956 403.887 181.772 403.666 183.931ZM409.242 185.597V186.634C409.242 187.161 409.259 187.739 408.851 188.147C408.409 188.589 407.661 188.844 406.862 188.844C405.859 188.844 405.281 188.368 405.281 187.535C405.281 186.379 406.301 186.209 407.202 186.073C407.899 185.971 408.613 185.954 409.242 185.597ZM420.933 181.228H418.91L416.7 187.688L414.354 181.228H412.229L415.595 189.745C415.34 190.51 415.085 191.734 414.099 191.734C413.861 191.734 413.606 191.717 413.079 191.615V193.247C413.742 193.332 414.014 193.349 414.422 193.349C416.581 193.349 417.057 191.513 417.686 189.83L420.933 181.228ZM428.598 181.228H426.779V193.247H428.7V188.844C429.397 189.813 430.366 190.221 431.556 190.221C433.919 190.221 435.449 188.419 435.449 185.648C435.449 182.809 433.885 180.973 431.454 180.973C430.315 180.973 429.21 181.415 428.598 182.401V181.228ZM431.063 182.537C432.559 182.537 433.494 183.744 433.494 185.648C433.494 187.518 432.576 188.674 431.097 188.674C429.55 188.674 428.632 187.518 428.632 185.614C428.632 183.693 429.533 182.537 431.063 182.537ZM442.101 181.058C441.914 181.041 441.846 181.024 441.727 181.024C440.316 181.024 439.364 181.772 438.786 182.979V181.228H436.967V190H438.888V186.141C438.888 184.305 439.5 182.86 441.421 182.86C441.625 182.86 441.761 182.877 442.101 182.911V181.058ZM446.878 180.973C444.158 180.973 442.407 182.792 442.407 185.614C442.407 188.47 444.141 190.272 446.878 190.272C449.564 190.272 451.264 188.47 451.264 185.614C451.264 182.775 449.564 180.973 446.878 180.973ZM446.844 182.503C448.374 182.503 449.309 183.676 449.309 185.597C449.309 187.569 448.391 188.759 446.861 188.759C445.297 188.759 444.362 187.586 444.362 185.614C444.362 183.693 445.314 182.503 446.844 182.503ZM460.933 181.228H459.131V182.452C458.434 181.466 457.669 180.99 456.394 180.99C454.031 180.99 452.484 182.792 452.484 185.546C452.484 188.215 453.963 189.915 456.292 189.915C457.55 189.915 458.417 189.473 459.08 188.436V189.473C459.08 191.275 458.383 192.057 456.768 192.057C455.544 192.057 454.915 191.649 454.728 190.748H452.79C453.011 192.533 454.337 193.417 456.717 193.417C459.879 193.417 460.933 191.87 460.933 188.98V181.228ZM456.734 182.554C458.196 182.554 459.08 183.625 459.08 185.41C459.08 187.246 458.179 188.402 456.734 188.402C455.323 188.402 454.405 187.28 454.405 185.512C454.405 183.659 455.272 182.554 456.734 182.554ZM467.933 181.058C467.746 181.041 467.678 181.024 467.559 181.024C466.148 181.024 465.196 181.772 464.618 182.979V181.228H462.799V190H464.72V186.141C464.72 184.305 465.332 182.86 467.253 182.86C467.457 182.86 467.593 182.877 467.933 182.911V181.058ZM468.861 183.931H470.697C470.85 182.792 471.394 182.367 472.652 182.367C473.876 182.367 474.454 182.792 474.454 183.693C474.454 184.016 474.42 184.22 474.335 184.322C474.148 184.577 473.757 184.662 472.414 184.832C470.663 185.053 468.487 185.274 468.487 187.603C468.487 189.218 469.626 190.221 471.445 190.221C472.601 190.221 473.723 189.932 474.522 189.167C474.658 189.932 475.202 190.221 475.95 190.221C476.324 190.221 476.596 190.187 477.208 190.034V188.674C476.97 188.708 476.902 188.708 476.766 188.708C476.409 188.708 476.307 188.572 476.307 188.062V183.608C476.307 181.721 474.777 180.956 472.703 180.956C470.561 180.956 469.082 181.772 468.861 183.931ZM474.437 185.597V186.634C474.437 187.161 474.454 187.739 474.046 188.147C473.604 188.589 472.856 188.844 472.057 188.844C471.054 188.844 470.476 188.368 470.476 187.535C470.476 186.379 471.496 186.209 472.397 186.073C473.094 185.971 473.808 185.954 474.437 185.597ZM480.245 181.228H478.409V190H480.347V184.951C480.347 183.591 480.993 182.622 482.353 182.622C483.645 182.622 483.798 183.455 483.798 184.509V190H485.736V184.849C485.736 183.472 486.382 182.622 487.657 182.622C489 182.622 489.221 183.54 489.221 184.611V190H491.159V183.778C491.159 181.976 489.884 180.99 488.286 180.99C487.062 180.99 486.127 181.517 485.447 182.486C485.039 181.517 484.138 180.99 482.999 180.99C481.775 180.99 480.942 181.517 480.245 182.469V181.228Z"
        fill="#383838" />
  <circle cx="321"
          cy="186"
          r="9"
          fill="white"
          stroke="#1B8FFB"
          stroke-width="2" />
  <rect x="321"
        y="157"
        width="198"
        height="58"
        rx="9"
        stroke="#1B8FFB"
        stroke-width="2" />
  <rect x="321"
        y="235"
        width="198"
        height="58"
        rx="9"
        fill="white" />
  <path d="M357.494 255.607C353.788 255.607 351.646 258.395 351.646 261.948C351.646 265.722 353.992 268.289 357.46 268.289C360.911 268.289 363.274 265.722 363.274 261.948C363.274 258.191 360.911 255.607 357.494 255.607ZM357.46 257.392C359.704 257.392 361.132 259.16 361.132 261.931C361.132 264.702 359.704 266.504 357.494 266.504C355.216 266.504 353.788 264.736 353.788 261.914C353.788 259.177 355.233 257.392 357.46 257.392ZM366.789 259.228H364.953V268H366.891V263.274C366.891 261.251 367.86 260.605 369.033 260.605C370.58 260.605 370.733 261.693 370.733 262.9V268H372.671V262.152C372.671 260.163 371.719 258.99 369.696 258.99C368.387 258.99 367.52 259.466 366.789 260.52V259.228ZM382.552 265.263H380.699C380.308 266.385 379.679 266.861 378.608 266.861C377.112 266.861 376.245 265.858 376.194 264.09H382.671V263.886C382.671 260.86 381.073 258.973 378.506 258.973C376.041 258.973 374.256 260.962 374.256 263.716C374.256 266.334 375.871 268.289 378.574 268.289C380.546 268.289 382.11 267.184 382.552 265.263ZM380.733 262.798H376.228C376.415 261.251 377.214 260.418 378.489 260.418C379.764 260.418 380.614 261.319 380.733 262.798ZM388.921 262.424H383.94V264.226H388.921V262.424ZM399.064 255.896H397.16V260.367C396.548 259.466 395.613 258.99 394.372 258.99C391.941 258.99 390.394 260.775 390.394 263.597C390.394 266.436 391.958 268.238 394.44 268.238C395.749 268.238 396.701 267.745 397.245 266.793V268H399.064V255.896ZM394.729 260.554C396.293 260.554 397.211 261.676 397.211 263.597C397.211 265.535 396.31 266.674 394.797 266.674C393.284 266.674 392.349 265.484 392.349 263.563C392.349 261.693 393.267 260.554 394.729 260.554ZM401.059 261.931H402.895C403.048 260.792 403.592 260.367 404.85 260.367C406.074 260.367 406.652 260.792 406.652 261.693C406.652 262.016 406.618 262.22 406.533 262.322C406.346 262.577 405.955 262.662 404.612 262.832C402.861 263.053 400.685 263.274 400.685 265.603C400.685 267.218 401.824 268.221 403.643 268.221C404.799 268.221 405.921 267.932 406.72 267.167C406.856 267.932 407.4 268.221 408.148 268.221C408.522 268.221 408.794 268.187 409.406 268.034V266.674C409.168 266.708 409.1 266.708 408.964 266.708C408.607 266.708 408.505 266.572 408.505 266.062V261.608C408.505 259.721 406.975 258.956 404.901 258.956C402.759 258.956 401.28 259.772 401.059 261.931ZM406.635 263.597V264.634C406.635 265.161 406.652 265.739 406.244 266.147C405.802 266.589 405.054 266.844 404.255 266.844C403.252 266.844 402.674 266.368 402.674 265.535C402.674 264.379 403.694 264.209 404.595 264.073C405.292 263.971 406.006 263.954 406.635 263.597ZM418.325 259.228H416.302L414.092 265.688L411.746 259.228H409.621L412.987 267.745C412.732 268.51 412.477 269.734 411.491 269.734C411.253 269.734 410.998 269.717 410.471 269.615V271.247C411.134 271.332 411.406 271.349 411.814 271.349C413.973 271.349 414.449 269.513 415.078 267.83L418.325 259.228ZM425.99 259.228H424.171V271.247H426.092V266.844C426.789 267.813 427.758 268.221 428.948 268.221C431.311 268.221 432.841 266.419 432.841 263.648C432.841 260.809 431.277 258.973 428.846 258.973C427.707 258.973 426.602 259.415 425.99 260.401V259.228ZM428.455 260.537C429.951 260.537 430.886 261.744 430.886 263.648C430.886 265.518 429.968 266.674 428.489 266.674C426.942 266.674 426.024 265.518 426.024 263.614C426.024 261.693 426.925 260.537 428.455 260.537ZM439.494 259.058C439.307 259.041 439.239 259.024 439.12 259.024C437.709 259.024 436.757 259.772 436.179 260.979V259.228H434.36V268H436.281V264.141C436.281 262.305 436.893 260.86 438.814 260.86C439.018 260.86 439.154 260.877 439.494 260.911V259.058ZM444.271 258.973C441.551 258.973 439.8 260.792 439.8 263.614C439.8 266.47 441.534 268.272 444.271 268.272C446.957 268.272 448.657 266.47 448.657 263.614C448.657 260.775 446.957 258.973 444.271 258.973ZM444.237 260.503C445.767 260.503 446.702 261.676 446.702 263.597C446.702 265.569 445.784 266.759 444.254 266.759C442.69 266.759 441.755 265.586 441.755 263.614C441.755 261.693 442.707 260.503 444.237 260.503ZM458.326 259.228H456.524V260.452C455.827 259.466 455.062 258.99 453.787 258.99C451.424 258.99 449.877 260.792 449.877 263.546C449.877 266.215 451.356 267.915 453.685 267.915C454.943 267.915 455.81 267.473 456.473 266.436V267.473C456.473 269.275 455.776 270.057 454.161 270.057C452.937 270.057 452.308 269.649 452.121 268.748H450.183C450.404 270.533 451.73 271.417 454.11 271.417C457.272 271.417 458.326 269.87 458.326 266.98V259.228ZM454.127 260.554C455.589 260.554 456.473 261.625 456.473 263.41C456.473 265.246 455.572 266.402 454.127 266.402C452.716 266.402 451.798 265.28 451.798 263.512C451.798 261.659 452.665 260.554 454.127 260.554ZM465.326 259.058C465.139 259.041 465.071 259.024 464.952 259.024C463.541 259.024 462.589 259.772 462.011 260.979V259.228H460.192V268H462.113V264.141C462.113 262.305 462.725 260.86 464.646 260.86C464.85 260.86 464.986 260.877 465.326 260.911V259.058ZM466.253 261.931H468.089C468.242 260.792 468.786 260.367 470.044 260.367C471.268 260.367 471.846 260.792 471.846 261.693C471.846 262.016 471.812 262.22 471.727 262.322C471.54 262.577 471.149 262.662 469.806 262.832C468.055 263.053 465.879 263.274 465.879 265.603C465.879 267.218 467.018 268.221 468.837 268.221C469.993 268.221 471.115 267.932 471.914 267.167C472.05 267.932 472.594 268.221 473.342 268.221C473.716 268.221 473.988 268.187 474.6 268.034V266.674C474.362 266.708 474.294 266.708 474.158 266.708C473.801 266.708 473.699 266.572 473.699 266.062V261.608C473.699 259.721 472.169 258.956 470.095 258.956C467.953 258.956 466.474 259.772 466.253 261.931ZM471.829 263.597V264.634C471.829 265.161 471.846 265.739 471.438 266.147C470.996 266.589 470.248 266.844 469.449 266.844C468.446 266.844 467.868 266.368 467.868 265.535C467.868 264.379 468.888 264.209 469.789 264.073C470.486 263.971 471.2 263.954 471.829 263.597ZM477.638 259.228H475.802V268H477.74V262.951C477.74 261.591 478.386 260.622 479.746 260.622C481.038 260.622 481.191 261.455 481.191 262.509V268H483.129V262.849C483.129 261.472 483.775 260.622 485.05 260.622C486.393 260.622 486.614 261.54 486.614 262.611V268H488.552V261.778C488.552 259.976 487.277 258.99 485.679 258.99C484.455 258.99 483.52 259.517 482.84 260.486C482.432 259.517 481.531 258.99 480.392 258.99C479.168 258.99 478.335 259.517 477.638 260.469V259.228Z"
        fill="#383838" />
  <rect x="321"
        y="235"
        width="198"
        height="58"
        rx="9"
        stroke="#CCCCCC"
        stroke-width="2" />
  <circle cx="519"
          cy="186"
          r="9"
          fill="white"
          stroke="#1B8FFB"
          stroke-width="2" />
  <rect x="321"
        y="313"
        width="198"
        height="58"
        rx="9"
        fill="white" />
  <path d="M369.033 333.896H366.908V338.707H361.366V333.896H359.241V346H361.366V340.56H366.908V346H369.033V333.896ZM371.204 339.931H373.04C373.193 338.792 373.737 338.367 374.995 338.367C376.219 338.367 376.797 338.792 376.797 339.693C376.797 340.016 376.763 340.22 376.678 340.322C376.491 340.577 376.1 340.662 374.757 340.832C373.006 341.053 370.83 341.274 370.83 343.603C370.83 345.218 371.969 346.221 373.788 346.221C374.944 346.221 376.066 345.932 376.865 345.167C377.001 345.932 377.545 346.221 378.293 346.221C378.667 346.221 378.939 346.187 379.551 346.034V344.674C379.313 344.708 379.245 344.708 379.109 344.708C378.752 344.708 378.65 344.572 378.65 344.062V339.608C378.65 337.721 377.12 336.956 375.046 336.956C372.904 336.956 371.425 337.772 371.204 339.931ZM376.78 341.597V342.634C376.78 343.161 376.797 343.739 376.389 344.147C375.947 344.589 375.199 344.844 374.4 344.844C373.397 344.844 372.819 344.368 372.819 343.535C372.819 342.379 373.839 342.209 374.74 342.073C375.437 341.971 376.151 341.954 376.78 341.597ZM382.724 333.896H380.803V346H382.724V333.896ZM389.187 333.879C388.796 333.845 388.422 333.828 388.031 333.828C386.11 333.828 385.43 334.746 385.43 336.531V337.228H383.985V338.639H385.43V346H387.351V338.639H389V337.228H387.334V336.378C387.334 335.545 387.538 335.324 388.337 335.324C388.66 335.324 388.813 335.341 389.187 335.375V333.879ZM394.975 340.424H389.994V342.226H394.975V340.424ZM405.118 333.896H403.214V338.367C402.602 337.466 401.667 336.99 400.426 336.99C397.995 336.99 396.448 338.775 396.448 341.597C396.448 344.436 398.012 346.238 400.494 346.238C401.803 346.238 402.755 345.745 403.299 344.793V346H405.118V333.896ZM400.783 338.554C402.347 338.554 403.265 339.676 403.265 341.597C403.265 343.535 402.364 344.674 400.851 344.674C399.338 344.674 398.403 343.484 398.403 341.563C398.403 339.693 399.321 338.554 400.783 338.554ZM407.113 339.931H408.949C409.102 338.792 409.646 338.367 410.904 338.367C412.128 338.367 412.706 338.792 412.706 339.693C412.706 340.016 412.672 340.22 412.587 340.322C412.4 340.577 412.009 340.662 410.666 340.832C408.915 341.053 406.739 341.274 406.739 343.603C406.739 345.218 407.878 346.221 409.697 346.221C410.853 346.221 411.975 345.932 412.774 345.167C412.91 345.932 413.454 346.221 414.202 346.221C414.576 346.221 414.848 346.187 415.46 346.034V344.674C415.222 344.708 415.154 344.708 415.018 344.708C414.661 344.708 414.559 344.572 414.559 344.062V339.608C414.559 337.721 413.029 336.956 410.955 336.956C408.813 336.956 407.334 337.772 407.113 339.931ZM412.689 341.597V342.634C412.689 343.161 412.706 343.739 412.298 344.147C411.856 344.589 411.108 344.844 410.309 344.844C409.306 344.844 408.728 344.368 408.728 343.535C408.728 342.379 409.748 342.209 410.649 342.073C411.346 341.971 412.06 341.954 412.689 341.597ZM424.379 337.228H422.356L420.146 343.688L417.8 337.228H415.675L419.041 345.745C418.786 346.51 418.531 347.734 417.545 347.734C417.307 347.734 417.052 347.717 416.525 347.615V349.247C417.188 349.332 417.46 349.349 417.868 349.349C420.027 349.349 420.503 347.513 421.132 345.83L424.379 337.228ZM434.254 336.973C431.534 336.973 429.783 338.792 429.783 341.614C429.783 344.47 431.517 346.272 434.254 346.272C436.94 346.272 438.64 344.47 438.64 341.614C438.64 338.775 436.94 336.973 434.254 336.973ZM434.22 338.503C435.75 338.503 436.685 339.676 436.685 341.597C436.685 343.569 435.767 344.759 434.237 344.759C432.673 344.759 431.738 343.586 431.738 341.614C431.738 339.693 432.69 338.503 434.22 338.503ZM445.232 337.058C445.045 337.041 444.977 337.024 444.858 337.024C443.447 337.024 442.495 337.772 441.917 338.979V337.228H440.098V346H442.019V342.141C442.019 340.305 442.631 338.86 444.552 338.86C444.756 338.86 444.892 338.877 445.232 338.911V337.058ZM452.965 333.896H451.044V346H452.965V333.896ZM462.931 343.263H461.078C460.687 344.385 460.058 344.861 458.987 344.861C457.491 344.861 456.624 343.858 456.573 342.09H463.05V341.886C463.05 338.86 461.452 336.973 458.885 336.973C456.42 336.973 454.635 338.962 454.635 341.716C454.635 344.334 456.25 346.289 458.953 346.289C460.925 346.289 462.489 345.184 462.931 343.263ZM461.112 340.798H456.607C456.794 339.251 457.593 338.418 458.868 338.418C460.143 338.418 460.993 339.319 461.112 340.798ZM471.476 339.778C471.476 337.789 469.81 336.973 467.804 336.973C465.56 336.973 464.217 337.959 464.217 339.625C464.217 341.512 465.798 341.767 467.804 342.26C468.909 342.532 469.895 342.685 469.895 343.569C469.895 344.351 469.147 344.844 468.008 344.844C466.801 344.844 465.985 344.351 465.883 343.195H464.03C464.132 345.201 465.492 346.255 467.974 346.255C470.32 346.255 471.799 345.133 471.799 343.365C471.799 341.427 469.929 341.036 468.399 340.679C466.988 340.356 466.155 340.288 466.155 339.404C466.155 338.758 466.733 338.384 467.719 338.384C468.756 338.384 469.487 338.707 469.623 339.778H471.476ZM480.291 339.778C480.291 337.789 478.625 336.973 476.619 336.973C474.375 336.973 473.032 337.959 473.032 339.625C473.032 341.512 474.613 341.767 476.619 342.26C477.724 342.532 478.71 342.685 478.71 343.569C478.71 344.351 477.962 344.844 476.823 344.844C475.616 344.844 474.8 344.351 474.698 343.195H472.845C472.947 345.201 474.307 346.255 476.789 346.255C479.135 346.255 480.614 345.133 480.614 343.365C480.614 341.427 478.744 341.036 477.214 340.679C475.803 340.356 474.97 340.288 474.97 339.404C474.97 338.758 475.548 338.384 476.534 338.384C477.571 338.384 478.302 338.707 478.438 339.778H480.291Z"
        fill="#383838" />
  <rect x="321"
        y="313"
        width="198"
        height="58"
        rx="9"
        stroke="#CCCCCC"
        stroke-width="2" />
  <rect x="641"
        y="1"
        width="198"
        height="58"
        rx="9"
        fill="white" />
  <path d="M721.494 21.607C717.788 21.607 715.646 24.395 715.646 27.948C715.646 31.722 717.992 34.289 721.46 34.289C724.911 34.289 727.274 31.722 727.274 27.948C727.274 24.191 724.911 21.607 721.494 21.607ZM721.46 23.392C723.704 23.392 725.132 25.16 725.132 27.931C725.132 30.702 723.704 32.504 721.494 32.504C719.216 32.504 717.788 30.736 717.788 27.914C717.788 25.177 719.233 23.392 721.46 23.392ZM733.288 21.879C732.897 21.845 732.523 21.828 732.132 21.828C730.211 21.828 729.531 22.746 729.531 24.531V25.228H728.086V26.639H729.531V34H731.452V26.639H733.101V25.228H731.435V24.378C731.435 23.545 731.639 23.324 732.438 23.324C732.761 23.324 732.914 23.341 733.288 23.375V21.879ZM738.351 21.879C737.96 21.845 737.586 21.828 737.195 21.828C735.274 21.828 734.594 22.746 734.594 24.531V25.228H733.149V26.639H734.594V34H736.515V26.639H738.164V25.228H736.498V24.378C736.498 23.545 736.702 23.324 737.501 23.324C737.824 23.324 737.977 23.341 738.351 23.375V21.879ZM741.351 21.896H739.43V34H741.351V21.896ZM745.451 21.845H743.513V23.749H745.451V21.845ZM745.451 25.228H743.513V34H745.451V25.228ZM749.416 25.228H747.58V34H749.518V29.274C749.518 27.251 750.487 26.605 751.66 26.605C753.207 26.605 753.36 27.693 753.36 28.9V34H755.298V28.152C755.298 26.163 754.346 24.99 752.323 24.99C751.014 24.99 750.147 25.466 749.416 26.52V25.228ZM765.179 31.263H763.326C762.935 32.385 762.306 32.861 761.235 32.861C759.739 32.861 758.872 31.858 758.821 30.09H765.298V29.886C765.298 26.86 763.7 24.973 761.133 24.973C758.668 24.973 756.883 26.962 756.883 29.716C756.883 32.334 758.498 34.289 761.201 34.289C763.173 34.289 764.737 33.184 765.179 31.263ZM763.36 28.798H758.855C759.042 27.251 759.841 26.418 761.116 26.418C762.391 26.418 763.241 27.319 763.36 28.798Z"
        fill="#383838" />
  <rect x="641"
        y="1"
        width="198"
        height="58"
        rx="9"
        stroke="#CCCCCC"
        stroke-width="2" />
  <rect x="641"
        y="79"
        width="198"
        height="58"
        rx="9"
        fill="white" />
  <path d="M721.494 99.607C717.788 99.607 715.646 102.395 715.646 105.948C715.646 109.722 717.992 112.289 721.46 112.289C724.911 112.289 727.274 109.722 727.274 105.948C727.274 102.191 724.911 99.607 721.494 99.607ZM721.46 101.392C723.704 101.392 725.132 103.16 725.132 105.931C725.132 108.702 723.704 110.504 721.494 110.504C719.216 110.504 717.788 108.736 717.788 105.914C717.788 103.177 719.233 101.392 721.46 101.392ZM730.789 103.228H728.953V112H730.891V107.274C730.891 105.251 731.86 104.605 733.033 104.605C734.58 104.605 734.733 105.693 734.733 106.9V112H736.671V106.152C736.671 104.163 735.719 102.99 733.696 102.99C732.387 102.99 731.52 103.466 730.789 104.52V103.228ZM740.687 99.896H738.766V112H740.687V99.896ZM744.787 99.845H742.849V101.749H744.787V99.845ZM744.787 103.228H742.849V112H744.787V103.228ZM748.752 103.228H746.916V112H748.854V107.274C748.854 105.251 749.823 104.605 750.996 104.605C752.543 104.605 752.696 105.693 752.696 106.9V112H754.634V106.152C754.634 104.163 753.682 102.99 751.659 102.99C750.35 102.99 749.483 103.466 748.752 104.52V103.228ZM764.515 109.263H762.662C762.271 110.385 761.642 110.861 760.571 110.861C759.075 110.861 758.208 109.858 758.157 108.09H764.634V107.886C764.634 104.86 763.036 102.973 760.469 102.973C758.004 102.973 756.219 104.962 756.219 107.716C756.219 110.334 757.834 112.289 760.537 112.289C762.509 112.289 764.073 111.184 764.515 109.263ZM762.696 106.798H758.191C758.378 105.251 759.177 104.418 760.452 104.418C761.727 104.418 762.577 105.319 762.696 106.798Z"
        fill="#383838" />
  <circle cx="641"
          cy="108"
          r="9"
          fill="white"
          stroke="#1B8FFB"
          stroke-width="2" />
  <rect x="641"
        y="79"
        width="198"
        height="58"
        rx="9"
        stroke="#1B8FFB"
        stroke-width="2" />
  <rect x="641"
        y="157"
        width="198"
        height="58"
        rx="9"
        fill="white" />
  <path d="M661.309 177.896V190H663.434V185.342H666.851C669.299 185.342 670.778 183.88 670.778 181.585C670.778 179.052 669.061 177.896 666.562 177.896H661.309ZM663.434 179.664H666.205C667.548 179.664 668.704 180.072 668.704 181.636C668.704 183.064 667.769 183.625 666.392 183.625H663.434V179.664ZM677.323 181.058C677.136 181.041 677.068 181.024 676.949 181.024C675.538 181.024 674.586 181.772 674.008 182.979V181.228H672.189V190H674.11V186.141C674.11 184.305 674.722 182.86 676.643 182.86C676.847 182.86 676.983 182.877 677.323 182.911V181.058ZM685.891 187.263H684.038C683.647 188.385 683.018 188.861 681.947 188.861C680.451 188.861 679.584 187.858 679.533 186.09H686.01V185.886C686.01 182.86 684.412 180.973 681.845 180.973C679.38 180.973 677.595 182.962 677.595 185.716C677.595 188.334 679.21 190.289 681.913 190.289C683.885 190.289 685.449 189.184 685.891 187.263ZM684.072 184.798H679.567C679.754 183.251 680.553 182.418 681.828 182.418C683.103 182.418 683.953 183.319 684.072 184.798ZM692.26 184.424H687.279V186.226H692.26V184.424ZM699.054 181.058C698.867 181.041 698.799 181.024 698.68 181.024C697.269 181.024 696.317 181.772 695.739 182.979V181.228H693.92V190H695.841V186.141C695.841 184.305 696.453 182.86 698.374 182.86C698.578 182.86 698.714 182.877 699.054 182.911V181.058ZM707.622 187.263H705.769C705.378 188.385 704.749 188.861 703.678 188.861C702.182 188.861 701.315 187.858 701.264 186.09H707.741V185.886C707.741 182.86 706.143 180.973 703.576 180.973C701.111 180.973 699.326 182.962 699.326 185.716C699.326 188.334 700.941 190.289 703.644 190.289C705.616 190.289 707.18 189.184 707.622 187.263ZM705.803 184.798H701.298C701.485 183.251 702.284 182.418 703.559 182.418C704.834 182.418 705.684 183.319 705.803 184.798ZM717.17 186.685H715.266C715.062 187.977 714.297 188.691 713.141 188.691C711.662 188.691 710.795 187.535 710.795 185.597C710.795 183.642 711.713 182.452 713.209 182.452C714.263 182.452 714.96 183.064 715.181 184.169H717.102C716.881 182.146 715.436 180.956 713.192 180.956C710.523 180.956 708.823 182.809 708.823 185.699C708.823 188.351 710.472 190.221 713.141 190.221C715.334 190.221 716.898 188.844 717.17 186.685ZM722.724 180.973C720.004 180.973 718.253 182.792 718.253 185.614C718.253 188.47 719.987 190.272 722.724 190.272C725.41 190.272 727.11 188.47 727.11 185.614C727.11 182.775 725.41 180.973 722.724 180.973ZM722.69 182.503C724.22 182.503 725.155 183.676 725.155 185.597C725.155 187.569 724.237 188.759 722.707 188.759C721.143 188.759 720.208 187.586 720.208 185.614C720.208 183.693 721.16 182.503 722.69 182.503ZM733.702 181.058C733.515 181.041 733.447 181.024 733.328 181.024C731.917 181.024 730.965 181.772 730.387 182.979V181.228H728.568V190H730.489V186.141C730.489 184.305 731.101 182.86 733.022 182.86C733.226 182.86 733.362 182.877 733.702 182.911V181.058ZM742.729 177.896H740.825V182.367C740.213 181.466 739.278 180.99 738.037 180.99C735.606 180.99 734.059 182.775 734.059 185.597C734.059 188.436 735.623 190.238 738.105 190.238C739.414 190.238 740.366 189.745 740.91 188.793V190H742.729V177.896ZM738.394 182.554C739.958 182.554 740.876 183.676 740.876 185.597C740.876 187.535 739.975 188.674 738.462 188.674C736.949 188.674 736.014 187.484 736.014 185.563C736.014 183.693 736.932 182.554 738.394 182.554ZM752.662 187.263H750.809C750.418 188.385 749.789 188.861 748.718 188.861C747.222 188.861 746.355 187.858 746.304 186.09H752.781V185.886C752.781 182.86 751.183 180.973 748.616 180.973C746.151 180.973 744.366 182.962 744.366 185.716C744.366 188.334 745.981 190.289 748.684 190.289C750.656 190.289 752.22 189.184 752.662 187.263ZM750.843 184.798H746.338C746.525 183.251 747.324 182.418 748.599 182.418C749.874 182.418 750.724 183.319 750.843 184.798ZM762.567 177.896H760.663V182.367C760.051 181.466 759.116 180.99 757.875 180.99C755.444 180.99 753.897 182.775 753.897 185.597C753.897 188.436 755.461 190.238 757.943 190.238C759.252 190.238 760.204 189.745 760.748 188.793V190H762.567V177.896ZM758.232 182.554C759.796 182.554 760.714 183.676 760.714 185.597C760.714 187.535 759.813 188.674 758.3 188.674C756.787 188.674 755.852 187.484 755.852 185.563C755.852 183.693 756.77 182.554 758.232 182.554ZM768.494 181.228L771.69 190.017H773.866L777.011 181.228H775.005L772.846 187.977L770.602 181.228H768.494ZM780.183 177.845H778.245V179.749H780.183V177.845ZM780.183 181.228H778.245V190H780.183V181.228ZM790.607 177.896H788.703V182.367C788.091 181.466 787.156 180.99 785.915 180.99C783.484 180.99 781.937 182.775 781.937 185.597C781.937 188.436 783.501 190.238 785.983 190.238C787.292 190.238 788.244 189.745 788.788 188.793V190H790.607V177.896ZM786.272 182.554C787.836 182.554 788.754 183.676 788.754 185.597C788.754 187.535 787.853 188.674 786.34 188.674C784.827 188.674 783.892 187.484 783.892 185.563C783.892 183.693 784.81 182.554 786.272 182.554ZM800.541 187.263H798.688C798.297 188.385 797.668 188.861 796.597 188.861C795.101 188.861 794.234 187.858 794.183 186.09H800.66V185.886C800.66 182.86 799.062 180.973 796.495 180.973C794.03 180.973 792.245 182.962 792.245 185.716C792.245 188.334 793.86 190.289 796.563 190.289C798.535 190.289 800.099 189.184 800.541 187.263ZM798.722 184.798H794.217C794.404 183.251 795.203 182.418 796.478 182.418C797.753 182.418 798.603 183.319 798.722 184.798ZM806.196 180.973C803.476 180.973 801.725 182.792 801.725 185.614C801.725 188.47 803.459 190.272 806.196 190.272C808.882 190.272 810.582 188.47 810.582 185.614C810.582 182.775 808.882 180.973 806.196 180.973ZM806.162 182.503C807.692 182.503 808.627 183.676 808.627 185.597C808.627 187.569 807.709 188.759 806.179 188.759C804.615 188.759 803.68 187.586 803.68 185.614C803.68 183.693 804.632 182.503 806.162 182.503ZM819.163 183.778C819.163 181.789 817.497 180.973 815.491 180.973C813.247 180.973 811.904 181.959 811.904 183.625C811.904 185.512 813.485 185.767 815.491 186.26C816.596 186.532 817.582 186.685 817.582 187.569C817.582 188.351 816.834 188.844 815.695 188.844C814.488 188.844 813.672 188.351 813.57 187.195H811.717C811.819 189.201 813.179 190.255 815.661 190.255C818.007 190.255 819.486 189.133 819.486 187.365C819.486 185.427 817.616 185.036 816.086 184.679C814.675 184.356 813.842 184.288 813.842 183.404C813.842 182.758 814.42 182.384 815.406 182.384C816.443 182.384 817.174 182.707 817.31 183.778H819.163Z"
        fill="#383838" />
  <rect x="641"
        y="157"
        width="198"
        height="58"
        rx="9"
        stroke="#CCCCCC"
        stroke-width="2" />
  <rect x="641"
        y="235"
        width="198"
        height="58"
        rx="9"
        fill="white" />
  <path d="M708.258 255.896V268H714.429C716.69 268 718.254 266.572 718.254 264.43C718.254 262.866 717.353 261.829 715.976 261.489C716.996 261.081 717.71 260.112 717.71 258.939C717.71 257.137 716.401 255.896 713.783 255.896H708.258ZM710.332 257.613H713.29C714.497 257.613 715.602 257.766 715.602 259.279C715.602 260.503 714.803 260.945 713.222 260.945H710.332V257.613ZM710.332 262.475H713.477C714.854 262.475 716.129 262.713 716.129 264.379C716.129 265.926 714.939 266.266 713.511 266.266H710.332V262.475ZM721.979 255.896H720.058V268H721.979V255.896ZM731.944 265.263H730.091C729.7 266.385 729.071 266.861 728 266.861C726.504 266.861 725.637 265.858 725.586 264.09H732.063V263.886C732.063 260.86 730.465 258.973 727.898 258.973C725.433 258.973 723.648 260.962 723.648 263.716C723.648 266.334 725.263 268.289 727.966 268.289C729.938 268.289 731.502 267.184 731.944 265.263ZM730.125 262.798H725.62C725.807 261.251 726.606 260.418 727.881 260.418C729.156 260.418 730.006 261.319 730.125 262.798ZM735.39 259.228H733.554V268H735.492V263.274C735.492 261.251 736.461 260.605 737.634 260.605C739.181 260.605 739.334 261.693 739.334 262.9V268H741.272V262.152C741.272 260.163 740.32 258.99 738.297 258.99C736.988 258.99 736.121 259.466 735.39 260.52V259.228ZM751.611 255.896H749.707V260.367C749.095 259.466 748.16 258.99 746.919 258.99C744.488 258.99 742.941 260.775 742.941 263.597C742.941 266.436 744.505 268.238 746.987 268.238C748.296 268.238 749.248 267.745 749.792 266.793V268H751.611V255.896ZM747.276 260.554C748.84 260.554 749.758 261.676 749.758 263.597C749.758 265.535 748.857 266.674 747.344 266.674C745.831 266.674 744.896 265.484 744.896 263.563C744.896 261.693 745.814 260.554 747.276 260.554ZM761.545 265.263H759.692C759.301 266.385 758.672 266.861 757.601 266.861C756.105 266.861 755.238 265.858 755.187 264.09H761.664V263.886C761.664 260.86 760.066 258.973 757.499 258.973C755.034 258.973 753.249 260.962 753.249 263.716C753.249 266.334 754.864 268.289 757.567 268.289C759.539 268.289 761.103 267.184 761.545 265.263ZM759.726 262.798H755.221C755.408 261.251 756.207 260.418 757.482 260.418C758.757 260.418 759.607 261.319 759.726 262.798ZM771.45 255.896H769.546V260.367C768.934 259.466 767.999 258.99 766.758 258.99C764.327 258.99 762.78 260.775 762.78 263.597C762.78 266.436 764.344 268.238 766.826 268.238C768.135 268.238 769.087 267.745 769.631 266.793V268H771.45V255.896ZM767.115 260.554C768.679 260.554 769.597 261.676 769.597 263.597C769.597 265.535 768.696 266.674 767.183 266.674C765.67 266.674 764.735 265.484 764.735 263.563C764.735 261.693 765.653 260.554 767.115 260.554Z"
        fill="#383838" />
  <rect x="641"
        y="235"
        width="198"
        height="58"
        rx="9"
        stroke="#CCCCCC"
        stroke-width="2" />
  <path d="M207.383 29.5069C206.835 29.5714 206.442 30.0683 206.507 30.6169C206.571 31.1654 207.068 31.5577 207.617 31.4932L207.383 29.5069ZM312.162 187.487C312.707 187.397 313.076 186.883 312.987 186.338C312.897 185.793 312.383 185.424 311.838 185.513L312.162 187.487ZM267 155L266.045 155.297L267 155ZM207.5 30.5C207.617 31.4932 207.617 31.4932 207.616 31.4932C207.616 31.4932 207.616 31.4932 207.617 31.4932C207.617 31.4931 207.619 31.493 207.621 31.4927C207.624 31.4923 207.631 31.4916 207.64 31.4906C207.657 31.4887 207.685 31.4857 207.723 31.4819C207.798 31.4743 207.913 31.4634 208.064 31.4508C208.367 31.4255 208.819 31.3934 209.401 31.3672C210.567 31.3146 212.257 31.2857 214.337 31.3818C218.498 31.5741 224.203 32.2666 230.38 34.264C242.704 38.2496 256.935 47.4326 264.561 68.3426L266.439 67.6574C258.565 46.0674 243.796 36.5004 230.995 32.361C224.609 30.296 218.721 29.5822 214.429 29.3839C212.282 29.2847 210.53 29.3143 209.311 29.3692C208.702 29.3966 208.225 29.4304 207.898 29.4577C207.735 29.4713 207.608 29.4833 207.522 29.492C207.479 29.4964 207.445 29.4999 207.422 29.5025C207.411 29.5037 207.401 29.5048 207.395 29.5055C207.392 29.5059 207.389 29.5062 207.387 29.5064C207.386 29.5065 207.385 29.5066 207.385 29.5067C207.384 29.5068 207.383 29.5069 207.5 30.5ZM264.561 68.3426C272.22 89.3446 269.945 102.254 267.069 114.267C264.172 126.369 260.592 137.751 266.045 155.297L267.955 154.703C262.685 137.749 266.106 126.881 269.014 114.733C271.944 102.496 274.28 89.1554 266.439 67.6574L264.561 68.3426ZM266.045 155.297C271.898 174.128 283.403 182.231 293.498 185.574C298.522 187.238 303.173 187.717 306.567 187.781C308.265 187.813 309.653 187.741 310.621 187.661C311.105 187.62 311.485 187.578 311.746 187.545C311.877 187.528 311.978 187.514 312.048 187.504C312.083 187.499 312.11 187.495 312.129 187.492C312.138 187.491 312.146 187.489 312.152 187.488C312.154 187.488 312.157 187.488 312.158 187.487C312.159 187.487 312.16 187.487 312.161 187.487C312.161 187.487 312.162 187.487 312 186.5C311.838 185.513 311.838 185.513 311.839 185.513C311.839 185.513 311.839 185.513 311.839 185.513C311.838 185.513 311.838 185.513 311.836 185.514C311.834 185.514 311.829 185.515 311.823 185.516C311.809 185.518 311.788 185.521 311.76 185.525C311.702 185.533 311.614 185.546 311.496 185.561C311.261 185.59 310.91 185.63 310.455 185.668C309.546 185.743 308.227 185.812 306.605 185.781C303.358 185.72 298.915 185.262 294.127 183.676C284.597 180.519 273.602 172.872 267.955 154.703L266.045 155.297Z"
        fill="#1B8FFB" />
  <path d="M631.228 107.026C631.765 107.152 632.099 107.69 631.974 108.228C631.848 108.765 631.31 109.099 630.772 108.974L631.228 107.026ZM528.737 186.965C528.205 186.82 527.89 186.27 528.035 185.737C528.18 185.204 528.73 184.89 529.263 185.035L528.737 186.965ZM567 175L566.249 174.34L567 175ZM631 108C630.772 108.974 630.772 108.974 630.772 108.974C630.772 108.974 630.772 108.974 630.772 108.974C630.771 108.973 630.77 108.973 630.768 108.973C630.765 108.972 630.759 108.971 630.751 108.969C630.736 108.965 630.712 108.96 630.68 108.953C630.617 108.938 630.521 108.917 630.394 108.89C630.141 108.836 629.765 108.758 629.279 108.665C628.308 108.478 626.901 108.231 625.166 107.988C621.693 107.502 616.919 107.037 611.703 107.118C601.204 107.281 589.228 109.651 582.273 118.134L580.727 116.866C588.272 107.664 601.046 105.284 611.672 105.118C617.019 105.035 621.9 105.511 625.443 106.007C627.216 106.255 628.657 106.509 629.656 106.701C630.156 106.797 630.546 106.877 630.813 106.934C630.946 106.963 631.048 106.986 631.118 107.001C631.153 107.009 631.18 107.015 631.198 107.019C631.207 107.021 631.214 107.023 631.219 107.024C631.222 107.025 631.224 107.025 631.225 107.026C631.226 107.026 631.226 107.026 631.227 107.026C631.227 107.026 631.228 107.026 631 108ZM582.273 118.134C575.282 126.661 575.25 136.544 575.25 146.694C575.25 156.737 575.286 167.086 567.751 175.66L566.249 174.34C573.214 166.414 573.25 156.855 573.25 146.694C573.25 136.641 573.218 126.024 580.727 116.866L582.273 118.134ZM567.751 175.66C559.961 184.525 550.182 187.345 542.403 187.955C538.514 188.26 535.111 188.016 532.678 187.694C531.461 187.534 530.484 187.354 529.808 187.213C529.47 187.142 529.206 187.081 529.026 187.038C528.935 187.016 528.865 186.998 528.817 186.986C528.793 186.98 528.774 186.975 528.761 186.971C528.754 186.969 528.749 186.968 528.745 186.967C528.743 186.966 528.741 186.966 528.74 186.966C528.739 186.965 528.739 186.965 528.739 186.965C528.738 186.965 528.737 186.965 529 186C529.263 185.035 529.262 185.035 529.262 185.035C529.262 185.035 529.262 185.035 529.262 185.035C529.262 185.035 529.263 185.035 529.263 185.035C529.265 185.036 529.268 185.037 529.273 185.038C529.281 185.04 529.296 185.044 529.315 185.049C529.354 185.059 529.415 185.074 529.495 185.094C529.657 185.133 529.9 185.189 530.216 185.255C530.849 185.387 531.777 185.558 532.94 185.712C535.268 186.019 538.527 186.253 542.246 185.961C549.683 185.378 558.904 182.697 566.249 174.34L567.751 175.66Z"
        fill="#1B8FFB" />
</svg>