<svg width="31" height="30" viewBox="0 0 31 30" fill="none" xmlns="http://www.w3.org/2000/svg">
<rect x="0.799805" width="30" height="30" rx="4.72967" fill="#23BDEE"/>
<g clip-path="url(#clip0_151_5660)">
<path d="M11.6752 6.75C11.3498 6.75 11.0859 7.01383 11.0859 7.3393V8.51786H12.2645V7.3393C12.2645 7.01383 12.0007 6.75 11.6752 6.75Z" fill="white"/>
<path d="M19.9252 6.75C19.5998 6.75 19.3359 7.01383 19.3359 7.3393V8.51786H20.5145V7.3393C20.5145 7.01383 20.2507 6.75 19.9252 6.75Z" fill="white"/>
<path d="M22.282 8.51788H20.5142V10.875C20.5142 11.2005 20.2503 11.4643 19.9249 11.4643C19.5994 11.4643 19.3356 11.2005 19.3356 10.875V8.51788H12.2641V10.875C12.2641 11.2005 12.0003 11.4643 11.6748 11.4643C11.3494 11.4643 11.0855 11.2005 11.0855 10.875V8.51788H9.31772C8.34136 8.51788 7.54987 9.30938 7.54987 10.2857V21.4822C7.54987 22.4585 8.34136 23.25 9.31772 23.25H22.282C23.2584 23.25 24.0499 22.4585 24.0499 21.4822V10.2857C24.0499 9.30938 23.2584 8.51788 22.282 8.51788ZM22.8713 21.4822C22.8713 21.8076 22.6074 22.0715 22.282 22.0715H9.31772C8.99226 22.0715 8.72842 21.8076 8.72842 21.4822V13.8215H22.8713V21.4822Z" fill="white"/>
<path d="M12.264 15H11.0854C10.7599 15 10.4961 15.2638 10.4961 15.5893C10.4961 15.9148 10.7599 16.1786 11.0854 16.1786H12.264C12.5894 16.1786 12.8533 15.9148 12.8533 15.5893C12.8533 15.2638 12.5894 15 12.264 15Z" fill="white"/>
<path d="M16.389 15H15.2104C14.8849 15 14.6211 15.2638 14.6211 15.5893C14.6211 15.9148 14.8849 16.1786 15.2104 16.1786H16.389C16.7144 16.1786 16.9783 15.9148 16.9783 15.5893C16.9783 15.2638 16.7144 15 16.389 15Z" fill="white"/>
<path d="M20.5139 15H19.3354C19.0099 15 18.7461 15.2638 18.7461 15.5893C18.7461 15.9148 19.0099 16.1786 19.3354 16.1786H20.5139C20.8394 16.1786 21.1032 15.9148 21.1032 15.5893C21.1032 15.2638 20.8394 15 20.5139 15Z" fill="white"/>
<path d="M12.264 17.3572H11.0854C10.7599 17.3572 10.4961 17.621 10.4961 17.9465C10.4961 18.2719 10.7599 18.5358 11.0854 18.5358H12.264C12.5894 18.5358 12.8533 18.2719 12.8533 17.9465C12.8533 17.621 12.5894 17.3572 12.264 17.3572Z" fill="white"/>
<path d="M16.389 17.3572H15.2104C14.8849 17.3572 14.6211 17.621 14.6211 17.9465C14.6211 18.2719 14.8849 18.5358 15.2104 18.5358H16.389C16.7144 18.5358 16.9783 18.2719 16.9783 17.9465C16.9783 17.621 16.7144 17.3572 16.389 17.3572Z" fill="white"/>
<path d="M20.5139 17.3572H19.3354C19.0099 17.3572 18.7461 17.621 18.7461 17.9465C18.7461 18.2719 19.0099 18.5358 19.3354 18.5358H20.5139C20.8394 18.5358 21.1032 18.2719 21.1032 17.9465C21.1032 17.621 20.8394 17.3572 20.5139 17.3572Z" fill="white"/>
<path d="M12.264 19.7143H11.0854C10.7599 19.7143 10.4961 19.9781 10.4961 20.3036C10.4961 20.6291 10.7599 20.8929 11.0854 20.8929H12.264C12.5894 20.8929 12.8533 20.629 12.8533 20.3036C12.8533 19.9781 12.5894 19.7143 12.264 19.7143Z" fill="white"/>
<path d="M16.389 19.7143H15.2104C14.8849 19.7143 14.6211 19.9781 14.6211 20.3036C14.6211 20.6291 14.8849 20.8929 15.2104 20.8929H16.389C16.7144 20.8929 16.9783 20.6291 16.9783 20.3036C16.9783 19.9781 16.7144 19.7143 16.389 19.7143Z" fill="white"/>
<path d="M20.5139 19.7143H19.3354C19.0099 19.7143 18.7461 19.9781 18.7461 20.3036C18.7461 20.6291 19.0099 20.8929 19.3354 20.8929H20.5139C20.8394 20.8929 21.1032 20.6291 21.1032 20.3036C21.1032 19.9781 20.8394 19.7143 20.5139 19.7143Z" fill="white"/>
</g>
<defs>
<clipPath id="clip0_151_5660">
<rect width="16.5" height="16.5" fill="white" transform="translate(7.5498 6.75)"/>
</clipPath>
</defs>
</svg>
