<svg width="100%"
     height="100%"
     viewBox="0 0 375 50"
     fill="none"
     xmlns="http://www.w3.org/2000/svg">
  <path d="M82.657 47.997L82.725 48.9947L82.657 47.997ZM271.104 2.47803L271.215 1.48415L271.104 2.47803ZM0 44.4769C0.112685 43.4833 0.112822 43.4833 0.11315 43.4834C0.113516 43.4834 0.114036 43.4835 0.114766 43.4836C0.116226 43.4837 0.118451 43.484 0.121438 43.4843C0.12741 43.485 0.136426 43.486 0.148454 43.4873C0.172509 43.4901 0.208609 43.4941 0.256493 43.4994C0.352259 43.5101 0.495158 43.526 0.683095 43.5466C1.05897 43.5878 1.61499 43.648 2.33441 43.7239C3.77327 43.8756 5.86564 44.0901 8.47756 44.3406C13.7017 44.8417 21.0028 45.487 29.3095 46.0637C45.936 47.2179 66.5434 48.0935 82.5889 46.9993L82.725 48.9947C66.5354 50.0987 45.8142 49.2142 29.171 48.0589C20.843 47.4807 13.5239 46.8339 8.28659 46.3315C5.66779 46.0803 3.56912 45.8652 2.12462 45.7128C1.40237 45.6367 0.843628 45.5762 0.465164 45.5347C0.275932 45.5139 0.131766 45.4979 0.0347599 45.4871C-0.013743 45.4817 -0.050456 45.4776 -0.0751174 45.4748C-0.087448 45.4734 -0.0967658 45.4724 -0.103038 45.4717C-0.106174 45.4713 -0.108549 45.471 -0.110158 45.4709C-0.110963 45.4708 -0.111594 45.4707 -0.111997 45.4707C-0.112437 45.4706 -0.112685 45.4706 0 44.4769ZM82.5889 46.9993C120.475 44.4158 148.449 31.0088 176.6 19.2041C204.743 7.40256 233.008 -2.76268 271.215 1.48415L270.994 3.47191C233.31 -0.716755 205.437 9.28033 177.373 21.0485C149.316 32.8137 121.011 46.3839 82.725 48.9947L82.5889 46.9993ZM271.215 1.48415C293.077 3.91429 319.419 13.7797 340.233 22.9937C350.653 27.6069 359.714 32.0684 366.17 35.3769C369.398 37.0313 371.975 38.3977 373.747 39.3511C374.633 39.8278 375.317 40.2012 375.78 40.4558C376.012 40.5831 376.188 40.6807 376.307 40.7466C376.367 40.7795 376.412 40.8046 376.442 40.8215C376.457 40.8299 376.469 40.8363 376.476 40.8406C376.48 40.8428 376.483 40.8444 376.485 40.8455C376.486 40.8461 376.487 40.8466 376.487 40.8468C376.488 40.8472 376.488 40.8473 376 41.72C375.512 42.5926 375.511 42.5925 375.511 42.5923C375.511 42.5921 375.51 42.5917 375.509 42.5912C375.507 42.5903 375.505 42.5888 375.501 42.5868C375.494 42.5828 375.483 42.5767 375.468 42.5685C375.439 42.5523 375.395 42.5279 375.337 42.4956C375.221 42.4309 375.047 42.3347 374.817 42.2087C374.359 41.9568 373.679 41.5861 372.799 41.1122C371.038 40.1646 368.472 38.8044 365.257 37.1568C358.827 33.8612 349.801 29.4169 339.423 24.8225C318.64 15.6217 292.533 5.86616 270.994 3.47191L271.215 1.48415Z"
        fill="#1B8FFB" />
</svg>