<svg width="55"
     height="55"
     viewBox="0 0 55 55"
     fill="none"
     xmlns="http://www.w3.org/2000/svg">
  <rect width="55"
        height="55"
        rx="11.1594"
        fill="#1B8FFB" />
  <rect x="9.04688"
        y="9.625"
        width="37.7029"
        height="35.75"
        rx="6.37681"
        fill="white" />
  <circle cx="23.9681"
          cy="24.765"
          r="9.75151"
          stroke="#1B8FFB"
          stroke-width="2.92545" />
  <rect x="32.4997"
        y="29.7302"
        width="13.5507"
        height="3.18841"
        rx="1.5942"
        transform="rotate(38.2008 32.4997 29.7302)"
        fill="#1B8FFB"
        stroke="white"
        stroke-width="0.797101" />
  <path d="M29.4926 24.7102C29.4926 25.1504 29.8494 25.5073 30.2897 25.5073C30.7299 25.5073 31.0868 25.1504 31.0868 24.7102H29.4926ZM24.71 17.5362C24.2697 17.5362 23.9129 17.8931 23.9129 18.3333C23.9129 18.7736 24.2697 19.1304 24.71 19.1304V17.5362ZM24.71 19.1304C25.8057 19.1304 26.9987 19.7682 27.9461 20.851C28.8871 21.9264 29.4926 23.3399 29.4926 24.7102H31.0868C31.0868 22.892 30.2973 21.1171 29.1459 19.8012C28.0009 18.4927 26.4041 17.5362 24.71 17.5362V19.1304Z"
        fill="#1B8FFB" />
</svg>