<?xml version="1.0" encoding="UTF-8" standalone="no"?>
<!DOCTYPE svg
          PUBLIC "-//W3C//DTD SVG 1.1//EN" "http://www.w3.org/Graphics/SVG/1.1/DTD/svg11.dtd">
<svg width="100%"
     height="100%"
     viewBox="0 0 289 111"
     version="1.1"
     xmlns="http://www.w3.org/2000/svg"
     xmlns:xlink="http://www.w3.org/1999/xlink"
     xml:space="preserve"
     xmlns:serif="http://www.serif.com/"
     style="fill-rule:evenodd;clip-rule:evenodd;stroke-linejoin:round;stroke-miterlimit:2;">
    <g transform="matrix(1,0,0,1,-81.7747,-658.419)">
        <g transform="matrix(1,0,0,1,279.885,736.61)">
            <path d="M0,32.141C-0.896,32.141 -1.792,31.799 -2.475,31.116L-27.274,6.317C-28.641,4.951 -28.641,2.734 -27.274,1.368C-25.907,0 -23.691,0 -22.324,1.368L2.475,26.166C3.842,27.533 3.842,29.749 2.475,31.116C1.792,31.799 0.896,32.141 0,32.141"
                  style="fill:rgb(0,133,255);fill-rule:nonzero;" />
        </g>
        <g transform="matrix(1,0,0,1,224.854,726.568)">
            <path d="M0,27.707C-16.4,27.707 -31.661,19.568 -40.823,5.936C-41.901,4.331 -41.475,2.157 -39.871,1.078C-38.267,0 -36.091,0.427 -35.014,2.031C-27.154,13.726 -14.064,20.707 0,20.707C14.064,20.707 27.153,13.726 35.013,2.031C36.09,0.427 38.265,0.001 39.871,1.078C41.475,2.157 41.901,4.331 40.823,5.936C31.66,19.568 16.399,27.707 0,27.707"
                  style="fill:rgb(0,133,255);fill-rule:nonzero;" />
        </g>
        <g transform="matrix(1,0,0,1,262.776,658.901)">
            <path d="M0,26.742C-1.127,26.742 -2.232,26.2 -2.908,25.194C-10.768,13.5 -23.857,6.518 -37.921,6.518C-51.986,6.518 -65.075,13.5 -72.935,25.194C-74.013,26.8 -76.188,27.224 -77.792,26.147C-79.396,25.068 -79.823,22.894 -78.745,21.29C-69.582,7.657 -54.321,-0.482 -37.921,-0.482C-21.522,-0.482 -6.261,7.657 2.901,21.29C3.979,22.894 3.553,25.068 1.949,26.147C1.35,26.55 0.671,26.742 0,26.742"
                  style="fill:rgb(0,133,255);fill-rule:nonzero;" />
        </g>
        <g transform="matrix(1,0,0,1,102.127,716.225)">
            <path d="M0,-21.117L0,-15.219L-0.255,-15.219C-1.783,-17.148 -4.223,-18.204 -7.172,-18.204C-11.832,-18.204 -14.89,-15.146 -14.89,-10.558C-14.89,-5.971 -11.832,-2.913 -7.172,-2.913C-4.259,-2.913 -1.783,-3.932 -0.255,-5.898L0,-5.898L0,-0.001C-1.929,1.274 -4.113,1.893 -7.427,1.893C-15.145,1.893 -20.352,-3.277 -20.352,-10.558C-20.352,-17.84 -15.145,-23.01 -7.427,-23.01C-4.077,-23.01 -1.929,-22.428 0,-21.117"
                  style="fill-rule:nonzero;" />
        </g>
        <g transform="matrix(1,0,0,1,112.613,705.667)">
            <path d="M0,0C0,4.515 2.949,7.646 7.245,7.646C11.541,7.646 14.49,4.515 14.49,0C14.49,-4.515 11.541,-7.646 7.245,-7.646C2.949,-7.646 0,-4.515 0,0M19.951,0C19.951,7.281 14.709,12.451 7.245,12.451C-0.219,12.451 -5.461,7.281 -5.461,0C-5.461,-7.281 -0.219,-12.451 7.245,-12.451C14.709,-12.451 19.951,-7.281 19.951,0"
                  style="fill-rule:nonzero;" />
        </g>
        <g transform="matrix(1,0,0,1,158.961,704.246)">
            <path d="M0,3.205C0,10.304 -3.531,13.872 -10.595,13.872C-17.548,13.872 -21.043,10.304 -21.043,3.205L-21.043,-10.667L-15.655,-10.667L-15.655,2.841C-15.655,6.955 -13.871,9.066 -10.448,9.066C-6.99,9.066 -5.206,6.955 -5.206,2.841L-5.206,-10.667L0,-10.667L0,3.205Z"
                  style="fill-rule:nonzero;" />
        </g>
        <g transform="matrix(1,0,0,1,176.401,706.795)">
            <path d="M0,-2.257C2.658,-2.257 3.896,-3.239 3.896,-5.315C3.896,-7.427 2.658,-8.409 0,-8.409L-5.242,-8.409L-5.242,-2.257L0,-2.257ZM-5.242,10.959L-10.631,10.959L-10.631,-13.216L0.219,-13.216C6.262,-13.216 9.356,-10.522 9.356,-5.315C9.356,-1.456 7.646,1.019 4.296,2.003L10.085,10.959L3.75,10.959L-1.165,2.549L-5.242,2.549L-5.242,10.959Z"
                  style="fill-rule:nonzero;" />
        </g>
        <g transform="matrix(1,0,0,1,208.587,716.335)">
            <path d="M0,-21.336L0,-15.766L-0.255,-15.766C-1.857,-17.403 -4.588,-18.35 -7.646,-18.35C-10.304,-18.35 -11.979,-17.331 -11.979,-15.692C-11.979,-14.309 -10.923,-13.69 -7.318,-13.289C-0.947,-12.598 1.456,-10.413 1.456,-5.789C1.456,-0.947 -2.039,1.783 -8.229,1.783C-12.197,1.783 -15.291,1.055 -17.221,-0.328L-17.221,-5.898L-16.966,-5.898C-14.709,-4.006 -11.688,-2.986 -8.41,-2.986C-5.462,-2.986 -3.896,-3.897 -3.896,-5.644C-3.896,-7.101 -5.024,-7.756 -8.702,-8.156C-14.928,-8.848 -17.33,-10.923 -17.33,-15.364C-17.33,-20.207 -13.689,-23.119 -7.573,-23.119C-4.551,-23.119 -1.493,-22.392 0,-21.336"
                  style="fill-rule:nonzero;" />
        </g>
        <g transform="matrix(1,0,0,1,226.1,711.565)">
            <path d="M0,-11.796L-3.678,-2.512L3.786,-2.512L0.072,-11.796L0,-11.796ZM5.606,2.112L-5.498,2.112L-7.136,6.189L-12.779,6.189L-2.476,-17.985L2.73,-17.985L13.033,6.189L7.245,6.189L5.606,2.112Z"
                  style="fill-rule:nonzero;" />
        </g>
        <g transform="matrix(1,0,0,1,244.414,693.579)">
            <path d="M0,24.175L0,0L5.389,0L5.389,19.369L17.585,19.369L17.585,24.175L0,24.175Z"
                  style="fill-rule:nonzero;" />
        </g>
        <g transform="matrix(1,0,0,1,270.264,693.579)">
            <path d="M0,24.175L0,14.273L-9.903,0L-3.387,0L2.767,9.358L8.92,0L15.254,0L5.388,14.273L5.388,24.175L0,24.175Z"
                  style="fill-rule:nonzero;" />
        </g>
        <g transform="matrix(1,0,0,1,301.393,693.579)">
            <path d="M0,24.175L-5.389,24.175L-5.389,4.807L-12.598,4.807L-12.598,0L7.172,0L7.172,4.807L0,4.807L0,24.175Z"
                  style="fill-rule:nonzero;" />
        </g>
        <g transform="matrix(1,0,0,1,0,331.333)">
            <rect x="314.282"
                  y="362.246"
                  width="5.389"
                  height="24.175" />
        </g>
        <g transform="matrix(1,0,0,1,345.921,716.225)">
            <path d="M0,-21.117L0,-15.219L-0.255,-15.219C-1.784,-17.148 -4.224,-18.204 -7.172,-18.204C-11.832,-18.204 -14.891,-15.146 -14.891,-10.558C-14.891,-5.971 -11.832,-2.913 -7.172,-2.913C-4.26,-2.913 -1.784,-3.932 -0.255,-5.898L0,-5.898L0,-0.001C-1.93,1.274 -4.114,1.893 -7.427,1.893C-15.146,1.893 -20.352,-3.277 -20.352,-10.558C-20.352,-17.84 -15.146,-23.01 -7.427,-23.01C-4.078,-23.01 -1.93,-22.428 0,-21.117"
                  style="fill-rule:nonzero;" />
        </g>
        <g transform="matrix(1,0,0,1,368.858,716.335)">
            <path d="M0,-21.336L0,-15.766L-0.255,-15.766C-1.857,-17.403 -4.588,-18.35 -7.646,-18.35C-10.304,-18.35 -11.979,-17.331 -11.979,-15.692C-11.979,-14.309 -10.923,-13.69 -7.318,-13.289C-0.947,-12.598 1.456,-10.413 1.456,-5.789C1.456,-0.947 -2.039,1.783 -8.229,1.783C-12.197,1.783 -15.291,1.055 -17.221,-0.328L-17.221,-5.898L-16.966,-5.898C-14.709,-4.006 -11.688,-2.986 -8.41,-2.986C-5.462,-2.986 -3.896,-3.897 -3.896,-5.644C-3.896,-7.101 -5.024,-7.756 -8.702,-8.156C-14.928,-8.848 -17.33,-10.923 -17.33,-15.364C-17.33,-20.207 -13.689,-23.119 -7.573,-23.119C-4.551,-23.119 -1.493,-22.392 0,-21.336"
                  style="fill-rule:nonzero;" />
        </g>
    </g>
</svg>