<svg width="78" height="94" viewBox="0 0 78 94" fill="none" xmlns="http://www.w3.org/2000/svg">
<g clip-path="url(#clip0_1249_8711)">
<path d="M48.9046 36.8035C57.2053 36.8035 63.9343 30.0752 63.9343 21.7754C63.9343 13.4756 57.2053 6.74731 48.9046 6.74731C40.604 6.74731 33.875 13.4756 33.875 21.7754C33.875 30.0752 40.604 36.8035 48.9046 36.8035Z" fill="url(#paint0_linear_1249_8711)"/>
<path d="M48.9041 43.0607C33.5127 43.0607 21.0332 55.5389 21.0332 70.9286C21.0332 74.9614 24.3068 78.2347 28.34 78.2347H69.4681C73.5013 78.2347 76.793 74.9614 76.793 70.9286C76.793 55.5389 64.3135 43.0607 48.9041 43.0607Z" fill="url(#paint1_linear_1249_8711)"/>
</g>
<g filter="url(#filter0_b_1249_8711)">
<g clip-path="url(#clip1_1249_8711)">
<path d="M35.6267 37.0775C43.5403 34.5723 47.9248 26.1268 45.4198 18.2141C42.9148 10.3013 34.4689 5.91771 26.5553 8.42295C18.6418 10.9282 14.2573 19.3736 16.7622 27.2864C19.2672 35.1991 27.7131 39.5828 35.6267 37.0775Z" fill="url(#paint2_linear_1249_8711)"/>
<path d="M41.5358 19.4437C43.3615 25.2109 40.166 31.3672 34.3971 33.1935C28.6282 35.0198 22.4721 31.8241 20.6463 26.0568C18.8205 20.2895 22.0161 14.1333 27.7849 12.307C33.5538 10.4807 39.71 13.6764 41.5358 19.4437Z" stroke="url(#paint3_linear_1249_8711)" stroke-opacity="0.4" stroke-width="8.14803"/>
<g filter="url(#filter1_d_1249_8711)">
<path d="M32.6293 27.6092C35.3131 26.7596 36.8001 23.8954 35.9505 21.2119C35.101 18.5283 32.2367 17.0417 29.5528 17.8913C26.869 18.7409 25.3821 21.6051 26.2316 24.2887C27.0811 26.9722 29.9455 28.4589 32.6293 27.6092Z" fill="url(#paint4_linear_1249_8711)" shape-rendering="crispEdges"/>
</g>
<path d="M37.5145 43.0428C22.8409 47.6881 14.7094 63.3509 19.3543 78.023C20.5714 81.8677 24.6803 84.0003 28.5255 82.783L67.7356 70.37C71.5807 69.1527 73.731 65.0387 72.5138 61.1939C67.869 46.5218 52.2054 38.392 37.5145 43.0428Z" fill="url(#paint5_linear_1249_8711)"/>
<path d="M23.2383 76.7934C19.2727 64.2668 26.2152 50.8932 38.7441 46.9268C51.2919 42.9545 64.6647 49.8985 68.6298 62.4235C69.1638 64.1103 68.2189 65.9437 66.506 66.486L27.2959 78.899C25.5954 79.4373 23.7763 78.4927 23.2383 76.7934Z" stroke="url(#paint6_linear_1249_8711)" stroke-opacity="0.6" stroke-width="8.14803"/>
<g filter="url(#filter2_d_1249_8711)">
<line x1="9.05336" y1="-9.05336" x2="13.9685" y2="-9.05336" transform="matrix(0.944497 -0.328519 0.374099 0.927389 35.7734 65.275)" stroke="url(#paint7_linear_1249_8711)" stroke-width="18.1067" stroke-linecap="round" shape-rendering="crispEdges"/>
</g>
</g>
</g>
<defs>
<filter id="filter0_b_1249_8711" x="-75.5684" y="-76" width="228.896" height="245.029" filterUnits="userSpaceOnUse" color-interpolation-filters="sRGB">
<feFlood flood-opacity="0" result="BackgroundImageFix"/>
<feGaussianBlur in="BackgroundImageFix" stdDeviation="38"/>
<feComposite in2="SourceAlpha" operator="in" result="effect1_backgroundBlur_1249_8711"/>
<feBlend mode="normal" in="SourceGraphic" in2="effect1_backgroundBlur_1249_8711" result="shape"/>
</filter>
<filter id="filter1_d_1249_8711" x="21.9922" y="17.6522" width="18.1973" height="18.196" filterUnits="userSpaceOnUse" color-interpolation-filters="sRGB">
<feFlood flood-opacity="0" result="BackgroundImageFix"/>
<feColorMatrix in="SourceAlpha" type="matrix" values="0 0 0 0 0 0 0 0 0 0 0 0 0 0 0 0 0 0 127 0" result="hardAlpha"/>
<feOffset dy="4"/>
<feGaussianBlur stdDeviation="2"/>
<feComposite in2="hardAlpha" operator="out"/>
<feColorMatrix type="matrix" values="0 0 0 0 0 0 0 0 0 0 0 0 0 0 0 0 0 0 0.25 0"/>
<feBlend mode="normal" in2="BackgroundImageFix" result="effect1_dropShadow_1249_8711"/>
<feBlend mode="normal" in="SourceGraphic" in2="effect1_dropShadow_1249_8711" result="shape"/>
</filter>
<filter id="filter2_d_1249_8711" x="27.7383" y="43.3805" width="31.041" height="27.434" filterUnits="userSpaceOnUse" color-interpolation-filters="sRGB">
<feFlood flood-opacity="0" result="BackgroundImageFix"/>
<feColorMatrix in="SourceAlpha" type="matrix" values="0 0 0 0 0 0 0 0 0 0 0 0 0 0 0 0 0 0 127 0" result="hardAlpha"/>
<feOffset dy="4"/>
<feGaussianBlur stdDeviation="2"/>
<feComposite in2="hardAlpha" operator="out"/>
<feColorMatrix type="matrix" values="0 0 0 0 0 0 0 0 0 0 0 0 0 0 0 0 0 0 0.25 0"/>
<feBlend mode="normal" in2="BackgroundImageFix" result="effect1_dropShadow_1249_8711"/>
<feBlend mode="normal" in="SourceGraphic" in2="effect1_dropShadow_1249_8711" result="shape"/>
</filter>
<linearGradient id="paint0_linear_1249_8711" x1="48.9046" y1="6.74731" x2="48.9046" y2="36.8035" gradientUnits="userSpaceOnUse">
<stop stop-color="#FF9900"/>
<stop offset="1" stop-color="#FFBC58"/>
</linearGradient>
<linearGradient id="paint1_linear_1249_8711" x1="48.9131" y1="43.0607" x2="48.9131" y2="78.2347" gradientUnits="userSpaceOnUse">
<stop stop-color="#FF9900"/>
<stop offset="1" stop-color="#FFBC58"/>
</linearGradient>
<linearGradient id="paint2_linear_1249_8711" x1="16.3861" y1="39.7819" x2="43.48" y2="23.2245" gradientUnits="userSpaceOnUse">
<stop stop-color="white" stop-opacity="0.1"/>
<stop offset="1" stop-color="white" stop-opacity="0.23"/>
</linearGradient>
<linearGradient id="paint3_linear_1249_8711" x1="26.5553" y1="8.42295" x2="35.6267" y2="37.0775" gradientUnits="userSpaceOnUse">
<stop stop-color="white"/>
<stop offset="1" stop-color="white" stop-opacity="0"/>
</linearGradient>
<linearGradient id="paint4_linear_1249_8711" x1="29.5528" y1="17.8913" x2="32.6293" y2="27.6092" gradientUnits="userSpaceOnUse">
<stop stop-color="white" stop-opacity="0.67"/>
<stop offset="1" stop-color="white" stop-opacity="0"/>
</linearGradient>
<linearGradient id="paint5_linear_1249_8711" x1="55.3544" y1="73.1096" x2="25.9373" y2="48.7312" gradientUnits="userSpaceOnUse">
<stop stop-color="white" stop-opacity="0.1"/>
<stop offset="1" stop-color="white" stop-opacity="0.23"/>
</linearGradient>
<linearGradient id="paint6_linear_1249_8711" x1="37.5231" y1="43.0401" x2="48.1391" y2="76.5738" gradientUnits="userSpaceOnUse">
<stop stop-color="white"/>
<stop offset="1" stop-color="white" stop-opacity="0"/>
</linearGradient>
<linearGradient id="paint7_linear_1249_8711" x1="-2.56516" y1="0" x2="26.1817" y2="0" gradientUnits="userSpaceOnUse">
<stop stop-color="white" stop-opacity="0.67"/>
<stop offset="1" stop-color="white" stop-opacity="0"/>
</linearGradient>
<clipPath id="clip0_1249_8711">
<rect width="55.7598" height="71.5055" fill="white" transform="translate(21.0332 6.74731)"/>
</clipPath>
<clipPath id="clip1_1249_8711">
<rect width="55.3087" height="80.0701" fill="white" transform="translate(0.431641 16.693) rotate(-17.5666)"/>
</clipPath>
</defs>
</svg>
