<svg width="113" height="93" viewBox="0 0 113 93" fill="none" xmlns="http://www.w3.org/2000/svg">
<g clip-path="url(#clip0_1249_8712)">
<path d="M111.351 75.6123L96.3206 60.6889C100.416 55.2816 102.86 48.5756 102.86 41.2949C102.86 23.4976 88.2588 9 70.3128 9C52.3669 9 37.7871 23.4976 37.7871 41.2949C37.7871 59.0923 52.3883 73.5898 70.3128 73.5898C77.3669 73.5898 83.8849 71.3545 89.2236 67.5439L104.339 82.5524C105.304 83.5104 106.569 84 107.834 84C109.099 84 110.364 83.5104 111.329 82.5524C113.28 80.6364 113.28 77.5282 111.351 75.6123ZM47.6928 41.2949C47.6928 28.9049 57.8557 18.8141 70.3343 18.8141C82.8128 18.8141 92.9758 28.9049 92.9758 41.2949C92.9758 53.6849 82.8128 63.7758 70.3343 63.7758C57.8343 63.7758 47.6928 53.7062 47.6928 41.2949Z" fill="url(#paint0_linear_1249_8712)"/>
</g>
<g filter="url(#filter0_bd_1249_8712)">
<path d="M57.6834 81.818C77.191 75.6423 87.9992 54.8236 81.8242 35.318C75.6492 15.8124 54.8293 5.00634 35.3217 11.182C15.8141 17.3577 5.00584 38.1764 11.1809 57.682C17.3559 77.1876 38.1758 87.9936 57.6834 81.818Z" fill="url(#paint1_linear_1249_8712)" shape-rendering="crispEdges"/>
<path d="M77.9402 36.5476C83.436 53.9077 73.8167 72.4373 56.4538 77.934C39.0909 83.4307 20.5607 73.8125 15.0649 56.4524C9.56907 39.0923 19.1884 20.5627 36.5513 15.066C53.9142 9.56933 72.4444 19.1875 77.9402 36.5476Z" stroke="url(#paint2_linear_1249_8712)" stroke-opacity="0.3" stroke-width="8.14803" shape-rendering="crispEdges"/>
</g>
<g filter="url(#filter1_d_1249_8712)">
<line x1="36.2461" y1="32.5262" x2="56.7574" y2="32.5262" stroke="url(#paint3_linear_1249_8712)" stroke-width="9" stroke-linecap="round"/>
<line x1="36.2461" y1="48.3116" x2="56.7574" y2="48.3116" stroke="url(#paint4_linear_1249_8712)" stroke-width="9" stroke-linecap="round"/>
<line x1="36.2461" y1="61.8456" x2="44.5193" y2="61.8456" stroke="url(#paint5_linear_1249_8712)" stroke-width="9" stroke-linecap="round"/>
</g>
<defs>
<filter id="filter0_bd_1249_8712" x="-0.556641" y="-0.555786" width="94.1172" height="94.1116" filterUnits="userSpaceOnUse" color-interpolation-filters="sRGB">
<feFlood flood-opacity="0" result="BackgroundImageFix"/>
<feGaussianBlur in="BackgroundImageFix" stdDeviation="5"/>
<feComposite in2="SourceAlpha" operator="in" result="effect1_backgroundBlur_1249_8712"/>
<feColorMatrix in="SourceAlpha" type="matrix" values="0 0 0 0 0 0 0 0 0 0 0 0 0 0 0 0 0 0 127 0" result="hardAlpha"/>
<feOffset dy="4"/>
<feGaussianBlur stdDeviation="2"/>
<feComposite in2="hardAlpha" operator="out"/>
<feColorMatrix type="matrix" values="0 0 0 0 0 0 0 0 0 0 0 0 0 0 0 0 0 0 0.25 0"/>
<feBlend mode="normal" in2="effect1_backgroundBlur_1249_8712" result="effect2_dropShadow_1249_8712"/>
<feBlend mode="normal" in="SourceGraphic" in2="effect2_dropShadow_1249_8712" result="shape"/>
</filter>
<filter id="filter1_d_1249_8712" x="27.7461" y="28.0262" width="37.5117" height="46.3193" filterUnits="userSpaceOnUse" color-interpolation-filters="sRGB">
<feFlood flood-opacity="0" result="BackgroundImageFix"/>
<feColorMatrix in="SourceAlpha" type="matrix" values="0 0 0 0 0 0 0 0 0 0 0 0 0 0 0 0 0 0 127 0" result="hardAlpha"/>
<feOffset dy="4"/>
<feGaussianBlur stdDeviation="2"/>
<feComposite in2="hardAlpha" operator="out"/>
<feColorMatrix type="matrix" values="0 0 0 0 0 0 0 0 0 0 0 0 0 0 0 0 0 0 0.15 0"/>
<feBlend mode="normal" in2="BackgroundImageFix" result="effect1_dropShadow_1249_8712"/>
<feBlend mode="normal" in="SourceGraphic" in2="effect1_dropShadow_1249_8712" result="shape"/>
</filter>
<linearGradient id="paint0_linear_1249_8712" x1="75.2911" y1="9" x2="75.2911" y2="84" gradientUnits="userSpaceOnUse">
<stop stop-color="#49A8FF"/>
<stop offset="1" stop-color="#0047FF"/>
</linearGradient>
<linearGradient id="paint1_linear_1249_8712" x1="31.7511" y1="26.5383" x2="73.928" y2="88.6188" gradientUnits="userSpaceOnUse">
<stop stop-color="#1B8FFB" stop-opacity="0.46"/>
<stop offset="1" stop-color="#1B8FFB"/>
</linearGradient>
<linearGradient id="paint2_linear_1249_8712" x1="35.3217" y1="11.182" x2="57.6834" y2="81.818" gradientUnits="userSpaceOnUse">
<stop/>
<stop offset="0.0001" stop-color="white" stop-opacity="0.984375"/>
<stop offset="1" stop-color="white" stop-opacity="0.67"/>
</linearGradient>
<linearGradient id="paint3_linear_1249_8712" x1="28.4579" y1="37.0262" x2="65.308" y2="37.0262" gradientUnits="userSpaceOnUse">
<stop stop-color="white" stop-opacity="0.51"/>
<stop offset="1" stop-color="white" stop-opacity="0"/>
</linearGradient>
<linearGradient id="paint4_linear_1249_8712" x1="28.4579" y1="52.8116" x2="65.308" y2="52.8116" gradientUnits="userSpaceOnUse">
<stop stop-color="white" stop-opacity="0.51"/>
<stop offset="1" stop-color="white" stop-opacity="0"/>
</linearGradient>
<linearGradient id="paint5_linear_1249_8712" x1="29.8215" y1="66.3456" x2="51.3902" y2="66.3456" gradientUnits="userSpaceOnUse">
<stop stop-color="white" stop-opacity="0.51"/>
<stop offset="1" stop-color="white" stop-opacity="0"/>
</linearGradient>
<clipPath id="clip0_1249_8712">
<rect width="75" height="75" fill="white" transform="translate(37.7871 9)"/>
</clipPath>
</defs>
</svg>
