<svg width="35" height="36" viewBox="0 0 35 36" fill="none" xmlns="http://www.w3.org/2000/svg">
<rect y="0.5" width="35" height="35" rx="17.5" fill="#2DC071"/>
<path fill-rule="evenodd" clip-rule="evenodd" d="M25.7957 12.7019C25.8604 12.7658 25.9118 12.8416 25.9469 12.9251C25.982 13.0086 26 13.0982 26 13.1886C26 13.279 25.982 13.3685 25.9469 13.452C25.9118 13.5355 25.8604 13.6114 25.7957 13.6752L16.0578 23.2981C15.9932 23.3621 15.9164 23.4129 15.8319 23.4475C15.7474 23.4822 15.6568 23.5 15.5654 23.5C15.4739 23.5 15.3833 23.4822 15.2988 23.4475C15.2143 23.4129 15.1375 23.3621 15.0729 23.2981L10.204 18.4866C10.0734 18.3576 10 18.1825 10 18C10 17.8175 10.0734 17.6424 10.204 17.5134C10.3346 17.3843 10.5117 17.3118 10.6964 17.3118C10.8811 17.3118 11.0583 17.3843 11.1889 17.5134L15.5654 21.8395L24.8107 12.7019C24.8754 12.6379 24.9521 12.5871 25.0366 12.5525C25.1211 12.5178 25.2117 12.5 25.3032 12.5C25.3947 12.5 25.4853 12.5178 25.5698 12.5525C25.6543 12.5871 25.731 12.6379 25.7957 12.7019Z" fill="white"/>
</svg>
