<svg width="100%"
     height="100%"
     viewBox="0 0 70 70"
     fill="none"
     xmlns="http://www.w3.org/2000/svg">
  <rect width="70"
        height="70"
        rx="15"
        fill="white" />
  <path fill-rule="evenodd"
        clip-rule="evenodd"
        d="M32.389 15.64L27.4341 25.3922C27.3778 25.5055 27.2953 25.6021 27.1968 25.6777C27.0982 25.7533 26.9835 25.8037 26.8628 25.8247L16.4462 27.7315C15.3679 27.9289 14.4827 28.7311 14.1448 29.8167C13.8068 30.9024 14.0703 32.0951 14.8328 32.9162L22.1876 40.8498C22.2721 40.9422 22.3365 41.0535 22.3747 41.1732C22.4129 41.295 22.423 41.4231 22.4069 41.5512L20.9242 52.4813C20.7714 53.6111 21.228 54.7388 22.1132 55.4107C22.9983 56.0827 24.1651 56.1877 25.1488 55.6858L34.6481 50.835C34.7588 50.7783 34.8795 50.751 35.0022 50.751V14C33.9058 14 32.902 14.6321 32.389 15.64Z"
        fill="#3A6EFF" />
  <path opacity="0.35"
        fill-rule="evenodd"
        clip-rule="evenodd"
        d="M47.8131 40.8477L55.1679 32.9141C55.9283 32.0931 56.1939 30.9003 55.8559 29.8146C55.5179 28.729 54.6328 27.9268 53.5545 27.7294L43.1379 25.8247C43.0172 25.8016 42.9025 25.7512 42.8039 25.6777C42.7053 25.6021 42.6229 25.5056 42.5665 25.3922L37.6117 15.638C37.0987 14.6321 36.0949 14 35.0005 14V50.7489C35.1232 50.7489 35.2439 50.7783 35.3545 50.8329L44.8538 55.6837C45.8376 56.1856 47.0044 56.0785 47.8895 55.4086C48.7747 54.7367 49.2313 53.6111 49.0784 52.4792L47.5958 41.5491C47.5777 41.4231 47.5898 41.2929 47.628 41.1711C47.6642 41.0514 47.7286 40.9401 47.8131 40.8477Z"
        fill="#3A6EFF" />
</svg>