<svg width="100%"
     height="100%"
     viewBox="0 0 70 70"
     fill="none"
     xmlns="http://www.w3.org/2000/svg">
  <rect width="70"
        height="70"
        rx="15"
        fill="white" />
  <path d="M50.0337 45.3676C49.5601 44.8941 46.8293 42.1632 45.4119 40.7458C44.2255 42.6302 42.63 44.2258 40.7456 45.4122C42.163 46.8295 44.8938 49.5604 45.3674 50.0339C46.656 51.3226 48.745 51.3226 50.0337 50.0339C51.3224 48.7452 51.3224 46.6563 50.0337 45.3676Z"
        fill="#3A6EFF" />
  <path opacity="0.35"
        d="M32.8504 47.7007C41.052 47.7007 47.7007 41.052 47.7007 32.8504C47.7007 24.6487 41.052 18 32.8504 18C24.6487 18 18 24.6487 18 32.8504C18 41.052 24.6487 47.7007 32.8504 47.7007Z"
        fill="#3A6EFF" />
</svg>