<svg width="70" height="70" viewBox="0 0 70 70" fill="none" xmlns="http://www.w3.org/2000/svg">
<rect width="70" height="70" rx="15" fill="white"/>
<path opacity="0.35" d="M17 53V17C17 15.896 18.008 15 19.25 15H46.25C49.9782 15 53 17.686 53 21V49C53 52.314 49.9782 55 46.25 55H19.25C18.008 55 17 54.104 17 53Z" fill="#3A6EFF"/>
<path d="M40.6245 25.0001C39.756 25.0001 30.243 25.0001 29.3745 25.0001C27.5115 25.0001 25.9995 26.3441 25.9995 28.0001C25.9995 29.6561 27.5115 31.0001 29.3745 31.0001C30.243 31.0001 39.756 31.0001 40.6245 31.0001C42.4875 31.0001 43.9995 29.6561 43.9995 28.0001C43.9995 26.3441 42.4875 25.0001 40.6245 25.0001Z" fill="#3A6EFF"/>
</svg>
