<svg viewBox="0 0 30 30"
     fill="none"
     xmlns="http://www.w3.org/2000/svg">
      <path d="M26.25 12.5001C26.25 21.2501 15 28.7501 15 28.7501C15 28.7501 3.75 21.2501 3.75 12.5001C3.75 9.51644 4.93526 6.65496 7.04505 4.54517C9.15483 2.43539 12.0163 1.25012 15 1.25012C17.9837 1.25012 20.8452 2.43539 22.955 4.54517C25.0647 6.65496 26.25 9.51644 26.25 12.5001Z"
            stroke="#383838"
            stroke-width="2"
            stroke-linecap="round"
            stroke-linejoin="round" />
      <path d="M15 16.2501C17.0711 16.2501 18.75 14.5712 18.75 12.5001C18.75 10.4291 17.0711 8.75012 15 8.75012C12.9289 8.75012 11.25 10.4291 11.25 12.5001C11.25 14.5712 12.9289 16.2501 15 16.2501Z"
            stroke="#383838"
            stroke-width="2"
            stroke-linecap="round"
            stroke-linejoin="round" />
</svg>